<svg width="160" height="52" viewBox="0 0 160 52" fill="none" xmlns="http://www.w3.org/2000/svg">
<path d="M79.68 43.83C79.18 43.59 78.64 43.23 78.06 42.75C77.5 42.27 76.94 41.72 76.38 41.1C75.84 40.5 75.37 39.9 74.97 39.3C74.89 39.32 74.8 39.33 74.7 39.33C74.62 39.33 74.53 39.33 74.43 39.33C72.71 39.33 71.34 39.01 70.32 38.37C69.3 37.73 68.57 36.81 68.13 35.61C67.69 34.41 67.47 32.99 67.47 31.35V22.26C67.47 20.62 67.69 19.22 68.13 18.06C68.57 16.88 69.3 15.98 70.32 15.36C71.34 14.74 72.71 14.43 74.43 14.43C76.19 14.43 77.58 14.74 78.6 15.36C79.62 15.98 80.35 16.88 80.79 18.06C81.23 19.22 81.45 20.62 81.45 22.26V31.38C81.45 32.54 81.34 33.59 81.12 34.53C80.9 35.47 80.54 36.29 80.04 36.99C79.54 37.67 78.88 38.2 78.06 38.58C78.32 38.86 78.59 39.15 78.87 39.45C79.15 39.75 79.43 40.03 79.71 40.29C79.99 40.55 80.26 40.76 80.52 40.92L79.68 43.83ZM74.43 36.06C75.17 36.06 75.72 35.9 76.08 35.58C76.44 35.26 76.68 34.82 76.8 34.26C76.92 33.7 76.98 33.09 76.98 32.43V21.24C76.98 20.56 76.92 19.95 76.8 19.41C76.68 18.87 76.44 18.45 76.08 18.15C75.72 17.83 75.17 17.67 74.43 17.67C73.71 17.67 73.17 17.83 72.81 18.15C72.45 18.45 72.21 18.87 72.09 19.41C71.99 19.95 71.94 20.56 71.94 21.24V32.43C71.94 33.09 71.99 33.7 72.09 34.26C72.21 34.82 72.45 35.26 72.81 35.58C73.17 35.9 73.71 36.06 74.43 36.06Z" fill="white"/>
<path d="M91.4236 39.33C89.6236 39.33 88.2236 39 87.2236 38.34C86.2236 37.68 85.5336 36.74 85.1536 35.52C84.7736 34.3 84.5836 32.84 84.5836 31.14V14.7H88.9036V31.65C88.9036 32.41 88.9536 33.13 89.0536 33.81C89.1536 34.47 89.3836 35.01 89.7436 35.43C90.1236 35.83 90.6836 36.03 91.4236 36.03C92.2036 36.03 92.7636 35.83 93.1036 35.43C93.4636 35.01 93.6936 34.47 93.7936 33.81C93.9136 33.13 93.9736 32.41 93.9736 31.65V14.7H98.2636V31.14C98.2636 32.84 98.0736 34.3 97.6936 35.52C97.3136 36.74 96.6236 37.68 95.6236 38.34C94.6436 39 93.2436 39.33 91.4236 39.33ZM101.756 39V14.7H104.846L110.756 28.56V14.7H114.416V39H111.476L105.536 24.48V39H101.756ZM118.103 39V14.7H128.303V17.82H122.543V24.81H127.073V27.9H122.543V35.94H128.363V39H118.103ZM137.055 39.33C135.595 39.33 134.375 39.05 133.395 38.49C132.415 37.91 131.675 37.07 131.175 35.97C130.675 34.87 130.395 33.52 130.335 31.92L134.145 31.17C134.185 32.11 134.295 32.94 134.475 33.66C134.675 34.38 134.965 34.94 135.345 35.34C135.745 35.72 136.265 35.91 136.905 35.91C137.625 35.91 138.135 35.7 138.435 35.28C138.735 34.84 138.885 34.29 138.885 33.63C138.885 32.57 138.645 31.7 138.165 31.02C137.685 30.34 137.045 29.66 136.245 28.98L133.185 26.28C132.325 25.54 131.635 24.72 131.115 23.82C130.615 22.9 130.365 21.77 130.365 20.43C130.365 18.51 130.925 17.03 132.045 15.99C133.165 14.95 134.695 14.43 136.635 14.43C137.775 14.43 138.725 14.61 139.485 14.97C140.245 15.31 140.845 15.79 141.285 16.41C141.745 17.03 142.085 17.74 142.305 18.54C142.525 19.32 142.665 20.15 142.725 21.03L138.945 21.69C138.905 20.93 138.815 20.25 138.675 19.65C138.555 19.05 138.325 18.58 137.985 18.24C137.665 17.9 137.185 17.73 136.545 17.73C135.885 17.73 135.375 17.95 135.015 18.39C134.675 18.81 134.505 19.34 134.505 19.98C134.505 20.8 134.675 21.48 135.015 22.02C135.355 22.54 135.845 23.08 136.485 23.64L139.515 26.31C140.515 27.15 141.365 28.14 142.065 29.28C142.785 30.4 143.145 31.76 143.145 33.36C143.145 34.52 142.885 35.55 142.365 36.45C141.865 37.35 141.155 38.06 140.235 38.58C139.335 39.08 138.275 39.33 137.055 39.33ZM144.354 39L149.214 14.7H153.954L158.814 39H154.704L153.744 33.39H149.514L148.524 39H144.354ZM149.964 30.57H153.264L151.614 20.37L149.964 30.57Z" fill="#C30927"/>
<circle cx="25.6544" cy="25.6544" r="25.6544" fill="#C30927"/>
<circle cx="41.5" cy="16.5" r="11" fill="#3E4147" stroke="#222429" stroke-width="7"/>
</svg>
