<svg width="43" height="42" viewBox="0 0 43 42" fill="none" xmlns="http://www.w3.org/2000/svg">
<path d="M29.3988 16.4063C30.0473 16.4063 30.6812 16.2138 31.2204 15.8533C31.7596 15.4927 32.1798 14.9803 32.428 14.3807C32.6761 13.7811 32.7411 13.1214 32.6146 12.4849C32.4881 11.8484 32.1758 11.2637 31.7173 10.8048C31.2587 10.3459 30.6745 10.0334 30.0385 9.9068C29.4025 9.78019 28.7432 9.84517 28.1441 10.0935C27.545 10.3419 27.033 10.7624 26.6727 11.302C26.3124 11.8416 26.1201 12.476 26.1201 13.125C26.1201 13.9952 26.4656 14.8298 27.0804 15.4452C27.6953 16.0606 28.5293 16.4063 29.3988 16.4063ZM29.3988 11.1563C29.7879 11.1563 30.1683 11.2717 30.4918 11.488C30.8153 11.7044 31.0674 12.0119 31.2163 12.3716C31.3652 12.7313 31.4042 13.1272 31.3283 13.5091C31.2524 13.891 31.065 14.2418 30.7899 14.5171C30.5148 14.7925 30.1642 14.98 29.7826 15.0559C29.401 15.1319 29.0055 15.0929 28.646 14.9439C28.2866 14.7949 27.9793 14.5425 27.7631 14.2188C27.547 13.895 27.4316 13.5144 27.4316 13.125C27.4316 12.6029 27.6389 12.1021 28.0078 11.7329C28.3767 11.3637 28.8771 11.1563 29.3988 11.1563Z" fill="white"/>
<path d="M37.9234 28.875V9.76172C37.9221 8.89188 37.5763 8.05803 36.9617 7.44296C36.3471 6.82789 35.5139 6.48177 34.6447 6.48047H8.41495C7.54578 6.48177 6.71258 6.82789 6.09798 7.44296C5.48338 8.05803 5.13753 8.89188 5.13623 9.76172V23.625V32.3203C5.13753 33.1902 5.48338 34.024 6.09798 34.6391C6.71258 35.2541 7.54578 35.6003 8.41495 35.6016H34.6447C35.5139 35.6003 36.3471 35.2541 36.9617 34.6391C37.5763 34.024 37.9221 33.1902 37.9234 32.3203V28.875ZM8.41495 7.79297H34.6447C35.1665 7.79297 35.6668 8.00039 36.0358 8.3696C36.4047 8.73881 36.6119 9.23957 36.6119 9.76172V27.291L27.2397 17.9107C27.1788 17.8497 27.1065 17.8013 27.0269 17.7683C26.9473 17.7352 26.862 17.7182 26.7758 17.7182C26.6896 17.7182 26.6043 17.7352 26.5247 17.7683C26.4451 17.8013 26.3727 17.8497 26.3118 17.9107L21.5298 22.6972L14.1248 15.2857C14.0639 15.2247 13.9916 15.1763 13.912 15.1433C13.8324 15.1102 13.7471 15.0932 13.6609 15.0932C13.5747 15.0932 13.4894 15.1102 13.4098 15.1433C13.3302 15.1763 13.2579 15.2247 13.197 15.2857L6.44772 22.041V9.76172C6.44772 9.23957 6.65498 8.73881 7.02391 8.3696C7.39283 8.00039 7.89321 7.79297 8.41495 7.79297ZM34.6447 34.2891H8.41495C7.89321 34.2891 7.39283 34.0816 7.02391 33.7124C6.65498 33.3432 6.44772 32.8425 6.44772 32.3203V23.8965L13.6609 16.6778L21.0659 24.0893C21.1268 24.1503 21.1991 24.1987 21.2787 24.2317C21.3583 24.2648 21.4437 24.2818 21.5298 24.2818C21.616 24.2818 21.7013 24.2648 21.7809 24.2317C21.8605 24.1987 21.9329 24.1503 21.9938 24.0893L26.7758 19.3028L36.6119 29.1465V32.3203C36.6119 32.8425 36.4047 33.3432 36.0358 33.7124C35.6668 34.0816 35.1665 34.2891 34.6447 34.2891Z" fill="white"/>
</svg>
