<svg width="67" height="68" viewBox="0 0 67 68" fill="none" xmlns="http://www.w3.org/2000/svg">
<g clip-path="url(#clip0_268_1049)">
<path d="M8.93576 68H58.0658C59.9158 68 61.4155 66.4779 61.4155 64.6003V26.3573L61.8119 26.6236C62.5403 27.1341 63.4434 27.3184 64.3096 27.1335C65.2009 26.9464 65.9783 26.3983 66.4624 25.6161L66.4691 25.6048C67.4502 24.0005 67.0207 21.8975 65.4921 20.8213L35.3386 0.571228C34.2311 -0.190409 32.7781 -0.190409 31.6706 0.571228L1.50031 20.8316C-0.025116 21.9114 -0.449227 24.015 0.535609 25.6162C1.01437 26.3978 1.78737 26.9465 2.67497 27.1348C2.89809 27.1804 3.12519 27.2031 3.35273 27.2028C4.0035 27.2037 4.63945 27.0063 5.17838 26.6362L5.5859 26.3585V64.6003C5.5859 66.4779 7.08567 68 8.93576 68ZM59.1822 64.6003C59.1822 65.2262 58.6824 65.7335 58.0657 65.7335H8.93576C8.31906 65.7335 7.81918 65.2262 7.81918 64.6003V24.8603L33.5007 7.63478L59.1822 24.8603V64.6003ZM3.93448 24.7493C3.70074 24.9133 3.4107 24.9723 3.13271 24.9125C2.83935 24.8503 2.58415 24.6683 2.42708 24.4093C2.07354 23.8497 2.21115 23.1073 2.74079 22.7162L32.9122 2.45477C33.0858 2.33509 33.2909 2.27121 33.5007 2.27121C33.7148 2.27211 33.9235 2.33801 34.1004 2.4605L64.2517 22.7107C64.7856 23.098 64.9287 23.841 64.5777 24.4038C64.4168 24.666 64.1575 24.8502 63.8598 24.9137C63.5799 24.9702 63.2893 24.908 63.0558 24.7415L34.1171 5.3309C33.744 5.08357 33.262 5.08357 32.8889 5.3309L3.93448 24.7493Z" fill="#B19777"/>
<path d="M24.1727 21.3857C22.876 20.0759 20.7798 20.0759 19.4831 21.3857L13.257 27.7047C11.9658 29.0206 11.9658 31.1484 13.257 32.4644L23.361 42.7283L17.146 49.0371C17.0113 49.1728 16.9132 49.3414 16.8613 49.5267L14.2586 58.7753C14.0735 59.4315 14.2028 60.1379 14.6077 60.6829C15.0125 61.2278 15.6462 61.5483 16.3186 61.5483C16.5176 61.5479 16.7156 61.5197 16.9071 61.4645L26.0196 58.8206C26.2021 58.768 26.3683 58.6684 26.502 58.5317L32.7192 52.2263L42.8255 62.4845C44.1226 63.7937 46.218 63.7937 47.5151 62.4845L53.7412 56.1655C55.0324 54.8496 55.0324 52.7217 53.7412 51.4058L43.6405 41.1419L52.1902 32.4646C53.0202 31.6235 53.4865 30.4819 53.4865 29.2915C53.4865 28.1011 53.0202 26.9596 52.1902 26.1184L49.0772 22.9589C48.25 22.1146 47.124 21.6416 45.9508 21.6455C44.7778 21.6415 43.6519 22.114 42.8244 22.9578L34.2824 31.6442L24.1727 21.3857ZM20.2737 55.3585C19.6168 54.6982 18.831 54.1848 17.9668 53.8513L18.6614 51.3819L22.5337 53.0659L24.193 56.996L21.7599 57.701C21.4309 56.8234 20.9246 56.0254 20.2737 55.3585ZM24.7076 52.4618L41.2833 35.6387L43.5958 37.9857L26.0944 55.7472L24.7076 52.4618ZM38.9721 30.0868L41.2845 27.7398L47.4884 34.0362L45.1748 36.3821L38.9721 30.0868ZM39.7057 34.0362L23.1287 50.8594L19.8906 49.4519L37.392 31.6892L39.7057 34.0362ZM14.8359 30.8631C14.4125 30.433 14.4125 29.7361 14.8359 29.306L21.0619 22.987C21.4857 22.5574 22.1723 22.5574 22.5961 22.987L24.9197 25.3453L22.5961 27.7037C22.3058 27.9882 22.1895 28.4095 22.2916 28.8058C22.3938 29.202 22.6986 29.5114 23.089 29.6152C23.4794 29.7189 23.8945 29.6007 24.175 29.3061L26.4986 26.9478L28.8111 29.297L27.2657 30.8654C26.9755 31.1499 26.8591 31.5713 26.9612 31.9676C27.0634 32.3638 27.3683 32.6732 27.7587 32.7769C28.149 32.8807 28.5642 32.7624 28.8446 32.4678L30.3899 30.8994L32.7024 33.2464L24.9421 41.1226L14.8359 30.8631ZM16.4505 59.2399L17.3437 56.0441C18.3583 56.4785 19.1656 57.2979 19.5937 58.3277L16.4505 59.2399ZM44.3741 45.0946L42.8288 46.663C42.5385 46.9475 42.4221 47.3688 42.5242 47.7651C42.6265 48.1613 42.9313 48.4707 43.3217 48.5745C43.7121 48.6782 44.1272 48.56 44.4076 48.2654L45.953 46.6947L48.2655 49.0417L45.9418 51.4001C45.6515 51.6846 45.5352 52.1059 45.6373 52.5022C45.7395 52.8984 46.0443 53.2078 46.4347 53.3116C46.8251 53.4153 47.2402 53.2971 47.5207 53.0025L49.8443 50.6442L52.1668 53.0024C52.5901 53.4325 52.5901 54.1293 52.1668 54.5595L45.9407 60.8786C45.5169 61.3082 44.8303 61.3082 44.4065 60.8786L34.3003 50.6215L42.0606 42.7453L44.3741 45.0946ZM45.9519 23.9163C46.5318 23.9144 47.0884 24.1482 47.4972 24.5656L50.6102 27.7251C51.4626 28.5914 51.4626 29.9945 50.6102 30.8608L49.066 32.4338L42.8622 26.1374L44.4075 24.569C44.8157 24.1508 45.3719 23.9157 45.9519 23.9163Z" fill="#B19777"/>
</g>
<defs>
<clipPath id="clip0_268_1049">
<rect width="67" height="68" fill="white"/>
</clipPath>
</defs>
</svg>
