<svg width="186" height="72" viewBox="0 0 186 72" fill="none" xmlns="http://www.w3.org/2000/svg">
<path d="M90.932 53V30.32H94.04V53H90.932ZM97.7093 53V30.32H99.8653L106.305 45.384V30.32H108.937V53H106.921L100.397 37.516V53H97.7093ZM114.994 53V32.672H111.158V30.32H121.882V32.672H118.158V53H114.994ZM129.783 53.252C128.252 53.252 127.029 52.9533 126.115 52.356C125.2 51.7587 124.547 50.9093 124.155 49.808C123.763 48.688 123.567 47.3813 123.567 45.888V37.292C123.567 35.7987 123.763 34.52 124.155 33.456C124.565 32.3733 125.219 31.552 126.115 30.992C127.029 30.4133 128.252 30.124 129.783 30.124C131.313 30.124 132.527 30.4133 133.423 30.992C134.319 31.5707 134.963 32.392 135.355 33.456C135.765 34.52 135.971 35.7987 135.971 37.292V45.916C135.971 47.3907 135.765 48.6787 135.355 49.78C134.963 50.8813 134.319 51.74 133.423 52.356C132.527 52.9533 131.313 53.252 129.783 53.252ZM129.783 50.76C130.623 50.76 131.257 50.592 131.687 50.256C132.116 49.9013 132.405 49.416 132.555 48.8C132.704 48.1653 132.779 47.428 132.779 46.588V36.648C132.779 35.808 132.704 35.0893 132.555 34.492C132.405 33.876 132.116 33.4093 131.687 33.092C131.257 32.756 130.623 32.588 129.783 32.588C128.943 32.588 128.299 32.756 127.851 33.092C127.421 33.4093 127.132 33.876 126.983 34.492C126.833 35.0893 126.759 35.808 126.759 36.648V46.588C126.759 47.428 126.833 48.1653 126.983 48.8C127.132 49.416 127.421 49.9013 127.851 50.256C128.299 50.592 128.943 50.76 129.783 50.76ZM139.08 53V30.32H142.244V50.732H148.04V53H139.08ZM150.377 53V30.32H153.485V53H150.377ZM157.155 53V30.32H159.311L165.751 45.384V30.32H168.383V53H166.367L159.843 37.516V53H157.155ZM171.948 53V30.32H180.74V32.672H175.112V40.176H179.676V42.416H175.112V50.732H180.796V53H171.948Z" fill="white"/>
<g clip-path="url(#clip0_507_6470)">
<path d="M9.46916 72H61.5323C63.4927 72 65.082 70.3883 65.082 68.4003V27.9077L65.5021 28.1897C66.274 28.7302 67.231 28.9254 68.1489 28.7296C69.0934 28.5315 69.9172 27.9511 70.4302 27.1229L70.4374 27.1109C71.477 25.4123 71.0218 23.1856 69.402 22.0461L37.4483 0.604829C36.2747 -0.20161 34.735 -0.20161 33.5613 0.604829L1.58981 22.057C-0.0266919 23.2003 -0.476123 25.4277 0.56751 27.123C1.07485 27.9506 1.894 28.5316 2.8346 28.7309C3.07103 28.7792 3.31169 28.8033 3.55282 28.803C4.24244 28.8039 4.91635 28.5949 5.48746 28.203L5.91931 27.909V68.4003C5.91931 70.3883 7.50861 72 9.46916 72ZM62.7154 68.4003C62.7154 69.063 62.1857 69.6002 61.5322 69.6002H9.46916C8.81565 69.6002 8.28592 69.063 8.28592 68.4003V26.3227L35.5007 8.08389L62.7154 26.3227V68.4003ZM4.16929 26.2051C3.9216 26.3788 3.61424 26.4413 3.31966 26.3779C3.00879 26.3121 2.73836 26.1194 2.5719 25.8452C2.19726 25.2526 2.34308 24.4666 2.90434 24.0524L34.8771 2.59917C35.061 2.47245 35.2783 2.40481 35.5007 2.40481C35.7275 2.40577 35.9487 2.47554 36.1361 2.60524L68.0875 24.0466C68.6533 24.4567 68.8049 25.2434 68.433 25.8393C68.2625 26.1169 67.9878 26.312 67.6722 26.3793C67.3756 26.4391 67.0677 26.3732 66.8202 26.1969L36.1538 5.64448C35.7584 5.3826 35.2477 5.3826 34.8523 5.64448L4.16929 26.2051Z" fill="white"/>
<path d="M25.6156 22.6437C24.2414 21.2568 22.0202 21.2568 20.646 22.6437L14.0482 29.3344C12.6799 30.7277 12.6799 32.9807 14.0482 34.374L24.7555 45.2417L18.1694 51.9217C18.0266 52.0653 17.9227 52.2438 17.8677 52.4401L15.1096 62.2327C14.9134 62.9275 15.0505 63.6754 15.4795 64.2524C15.9086 64.8294 16.58 65.1688 17.2926 65.1688C17.5035 65.1684 17.7133 65.1385 17.9162 65.08L27.5728 62.2807C27.7662 62.2249 27.9423 62.1195 28.084 61.9747L34.6724 55.2984L45.382 66.16C46.7565 67.5463 48.9771 67.5463 50.3516 66.16L56.9494 59.4693C58.3177 58.076 58.3177 55.823 56.9494 54.4297L46.2457 43.562L55.3058 34.3743C56.1853 33.4837 56.6795 32.275 56.6795 31.0145C56.6795 29.7541 56.1853 28.5454 55.3058 27.6548L52.0069 24.3095C51.1303 23.4154 49.9371 22.9146 48.6939 22.9188C47.4508 22.9145 46.2577 23.4148 45.3808 24.3083L36.3289 33.5056L25.6156 22.6437ZM21.4838 58.6149C20.7877 57.9158 19.955 57.3722 19.0392 57.019L19.7753 54.4044L23.8788 56.1875L25.6371 60.3487L23.0588 61.0952C22.7102 60.1659 22.1736 59.321 21.4838 58.6149ZM26.1824 55.5478L43.7478 37.7351L46.1983 40.2201L27.652 59.0264L26.1824 55.5478ZM41.2985 31.8566L43.749 29.3716L50.3232 36.0384L47.8715 38.5222L41.2985 31.8566ZM42.0759 36.0384L24.5093 53.8511L21.0778 52.3608L39.6241 33.5533L42.0759 36.0384ZM15.7213 32.6785C15.2727 32.2231 15.2727 31.4853 15.7213 31.0299L22.3191 24.3392C22.7682 23.8843 23.4958 23.8843 23.9449 24.3392L26.4072 26.8362L23.9449 29.3333C23.6373 29.6345 23.514 30.0807 23.6222 30.5003C23.7305 30.9198 24.0535 31.2474 24.4672 31.3572C24.8809 31.4671 25.3208 31.3419 25.618 31.03L28.0804 28.5329L30.5309 31.0204L28.8933 32.681C28.5857 32.9823 28.4624 33.4284 28.5706 33.848C28.6789 34.2675 29.002 34.5951 29.4156 34.705C29.8293 34.8148 30.2693 34.6896 30.5664 34.3777L32.204 32.717L34.6546 35.2021L26.4309 43.5416L15.7213 32.6785ZM17.4323 62.7246L18.3789 59.3408C19.4541 59.8007 20.3096 60.6684 20.7632 61.7587L17.4323 62.7246ZM47.0231 47.7472L45.3855 49.4079C45.0779 49.7091 44.9546 50.1552 45.0628 50.5748C45.1711 50.9943 45.4941 51.322 45.9078 51.4318C46.3215 51.5416 46.7614 51.4165 47.0586 51.1045L48.6962 49.4415L51.1467 51.9265L48.6844 54.4236C48.3768 54.7248 48.2534 55.171 48.3616 55.5906C48.47 56.0101 48.793 56.3377 49.2067 56.4476C49.6204 56.5574 50.0603 56.4322 50.3575 56.1203L52.8199 53.6232L55.2809 56.1202C55.7296 56.5756 55.7296 57.3134 55.2809 57.7688L48.6832 64.4596C48.2341 64.9146 47.5065 64.9146 47.0574 64.4596L36.3478 53.5992L44.5715 45.2598L47.0231 47.7472ZM48.695 25.3231C49.3096 25.3211 49.8994 25.5687 50.3326 26.0107L53.6315 29.356C54.5347 30.2732 54.5347 31.7589 53.6315 32.6762L51.9951 34.3417L45.4209 27.6749L47.0585 26.0142C47.491 25.5714 48.0804 25.3225 48.695 25.3231Z" fill="white"/>
</g>
<defs>
<clipPath id="clip0_507_6470">
<rect width="71" height="72" fill="white"/>
</clipPath>
</defs>
</svg>
