<svg width="30" height="36" viewBox="0 0 30 36" fill="none" xmlns="http://www.w3.org/2000/svg">
<path d="M15 0.400391C11.2658 0.400391 7.68445 1.88381 5.04393 4.52433C2.40342 7.16484 0.919998 10.7461 0.919998 14.4804C0.908411 17.9843 2.2152 21.3643 4.5808 23.9492L14.3312 35.2924C14.4138 35.389 14.5164 35.4665 14.6318 35.5197C14.7473 35.5729 14.8729 35.6004 15 35.6004C15.1271 35.6004 15.2527 35.5729 15.3682 35.5197C15.4836 35.4665 15.5862 35.389 15.6688 35.2924L25.4192 23.9492C27.7848 21.3643 29.0916 17.9843 29.08 14.4804C29.08 10.7461 27.5966 7.16484 24.9561 4.52433C22.3156 1.88381 18.7342 0.400391 15 0.400391ZM24.0816 22.8052L15 33.374L5.9184 22.814C4.30264 21.0514 3.23471 18.8567 2.84485 16.4976C2.455 14.1385 2.76007 11.7169 3.72287 9.52819C4.68566 7.33948 6.26456 5.47825 8.26701 4.17149C10.2694 2.86472 12.6089 2.16891 15 2.16891C17.3911 2.16891 19.7305 2.86472 21.733 4.17149C23.7354 5.47825 25.3143 7.33948 26.2771 9.52819C27.2399 11.7169 27.545 14.1385 27.1551 16.4976C26.7653 18.8567 25.6974 21.0514 24.0816 22.814V22.8052Z" fill="#B19777"/>
<path d="M14.9998 8.32031C13.7815 8.32031 12.5905 8.68159 11.5775 9.35846C10.5645 10.0353 9.77498 10.9974 9.30875 12.123C8.84251 13.2486 8.72052 14.4871 8.95821 15.6821C9.19589 16.877 9.78258 17.9746 10.6441 18.8361C11.5056 19.6976 12.6032 20.2843 13.7981 20.522C14.993 20.7596 16.2316 20.6376 17.3572 20.1714C18.4828 19.7052 19.4448 18.9156 20.1217 17.9026C20.7986 16.8896 21.1598 15.6986 21.1598 14.4803C21.1598 12.8466 20.5108 11.2798 19.3556 10.1245C18.2004 8.96931 16.6336 8.32031 14.9998 8.32031ZM14.9998 18.8803C14.1296 18.8803 13.2789 18.6223 12.5553 18.1388C11.8318 17.6553 11.2678 16.9681 10.9348 16.1641C10.6018 15.3601 10.5146 14.4754 10.6844 13.6219C10.8542 12.7684 11.2732 11.9844 11.8886 11.369C12.5039 10.7537 13.2879 10.3346 14.1414 10.1649C14.995 9.99508 15.8797 10.0822 16.6837 10.4152C17.4876 10.7483 18.1748 11.3122 18.6583 12.0358C19.1418 12.7594 19.3998 13.6101 19.3998 14.4803C19.3998 15.6473 18.9363 16.7664 18.1111 17.5916C17.286 18.4167 16.1668 18.8803 14.9998 18.8803Z" fill="#B19777"/>
</svg>
