<svg width="33" height="33" viewBox="0 0 33 33" fill="none" xmlns="http://www.w3.org/2000/svg">
<path d="M26.0803 20.4427C25.4047 19.7393 24.5898 19.3632 23.7262 19.3632C22.8695 19.3632 22.0477 19.7323 21.3442 20.4357L19.1433 22.6297C18.9622 22.5322 18.7811 22.4416 18.607 22.3511C18.3563 22.2257 18.1195 22.1073 17.9175 21.9819C15.8559 20.6726 13.9823 18.9662 12.1854 16.7583C11.3148 15.6578 10.7297 14.7315 10.3049 13.7913C10.876 13.2689 11.4053 12.7256 11.9207 12.2033C12.1158 12.0082 12.3108 11.8063 12.5058 11.6112C13.9684 10.1486 13.9684 8.25418 12.5058 6.79156L10.6044 4.89015C10.3885 4.67424 10.1656 4.45136 9.95664 4.22848C9.53875 3.79666 9.09996 3.35091 8.64724 2.93302C7.97165 2.26439 7.16372 1.90918 6.31401 1.90918C5.46429 1.90918 4.64244 2.26439 3.94595 2.93302C3.93899 2.93998 3.93899 2.93998 3.93202 2.94695L1.56396 5.3359C0.672459 6.2274 0.164023 7.31392 0.0525852 8.57457C-0.114572 10.6083 0.484408 12.5028 0.944089 13.7425C2.0724 16.7862 3.7579 19.6069 6.27222 22.6297C9.32284 26.2723 12.9933 29.1488 17.1862 31.1756C18.7881 31.9348 20.9263 32.8332 23.3153 32.9865C23.4615 32.9934 23.6148 33.0004 23.7541 33.0004C25.3629 33.0004 26.7141 32.4223 27.7728 31.2731C27.7798 31.2592 27.7937 31.2522 27.8007 31.2383C28.1628 30.7995 28.5807 30.4025 29.0195 29.9776C29.319 29.6921 29.6255 29.3926 29.9249 29.0792C30.6145 28.3618 30.9766 27.526 30.9766 26.6693C30.9766 25.8057 30.6075 24.9768 29.904 24.2804L26.0803 20.4427ZM28.5738 27.7767C28.5668 27.7767 28.5668 27.7837 28.5738 27.7767C28.3021 28.0693 28.0235 28.3339 27.724 28.6264C27.2713 29.0583 26.8116 29.511 26.3798 30.0194C25.6764 30.7716 24.8475 31.1268 23.761 31.1268C23.6566 31.1268 23.5451 31.1268 23.4406 31.1199C21.3721 30.9875 19.4498 30.1796 18.008 29.4901C14.0659 27.5817 10.6044 24.8724 7.72788 21.4387C5.35286 18.5761 3.76486 15.9295 2.71317 13.0878C2.06543 11.3535 1.82863 10.0024 1.9331 8.72779C2.00275 7.9129 2.31617 7.23731 2.89425 6.65922L5.26928 4.2842C5.61056 3.96382 5.97273 3.7897 6.32794 3.7897C6.76673 3.7897 7.12193 4.05436 7.34481 4.27724C7.35178 4.2842 7.35874 4.29117 7.36571 4.29813C7.79056 4.69513 8.19453 5.10606 8.61938 5.54484C8.83529 5.76772 9.05817 5.9906 9.28105 6.22044L11.1825 8.12185C11.9207 8.86013 11.9207 9.54268 11.1825 10.281C10.9805 10.4829 10.7855 10.6849 10.5835 10.8799C9.99843 11.4789 9.44124 12.0361 8.83529 12.5794C8.82137 12.5933 8.80744 12.6003 8.80047 12.6142C8.20149 13.2132 8.31293 13.7982 8.4383 14.1952C8.44526 14.2161 8.45223 14.237 8.45919 14.2579C8.9537 15.4559 9.65018 16.5842 10.7088 17.9284L10.7158 17.9354C12.6381 20.3034 14.6649 22.1491 16.9006 23.563C17.1862 23.7441 17.4787 23.8903 17.7573 24.0296C18.008 24.155 18.2448 24.2734 18.4468 24.3988C18.4747 24.4127 18.5025 24.4336 18.5304 24.4475C18.7672 24.5659 18.9901 24.6216 19.2199 24.6216C19.798 24.6216 20.1602 24.2595 20.2786 24.1411L22.6606 21.7591C22.8974 21.5223 23.2735 21.2367 23.7123 21.2367C24.1441 21.2367 24.4993 21.5083 24.7152 21.7451C24.7222 21.7521 24.7222 21.7521 24.7291 21.7591L28.5668 25.5967C29.2842 26.3071 29.2842 27.0384 28.5738 27.7767Z" fill="#B19777"/>
<path d="M17.834 7.84962C19.6588 8.15607 21.3164 9.01972 22.6398 10.343C23.9631 11.6664 24.8198 13.324 25.1332 15.1488C25.2098 15.6085 25.6068 15.9289 26.0595 15.9289C26.1152 15.9289 26.164 15.9219 26.2197 15.9149C26.7351 15.8314 27.0764 15.3438 26.9928 14.8284C26.6167 12.6206 25.572 10.6077 23.977 9.01275C22.3821 7.4178 20.3692 6.37307 18.1614 5.99696C17.646 5.91338 17.1654 6.25466 17.0748 6.7631C16.9843 7.27154 17.3186 7.76604 17.834 7.84962Z" fill="#B19777"/>
<path d="M32.9615 14.557C32.3416 10.9213 30.6282 7.61301 27.9955 4.98029C25.3628 2.34757 22.0545 0.634209 18.4188 0.0143347C17.9104 -0.0762086 17.4298 0.272035 17.3392 0.780471C17.2557 1.29587 17.5969 1.77645 18.1123 1.86699C21.358 2.41722 24.318 3.95645 26.6722 6.30362C29.0263 8.65775 30.5586 11.6178 31.1088 14.8635C31.1854 15.3231 31.5824 15.6435 32.0351 15.6435C32.0908 15.6435 32.1396 15.6366 32.1953 15.6296C32.7038 15.553 33.052 15.0654 32.9615 14.557Z" fill="#B19777"/>
</svg>
