<svg width="14" height="18" viewBox="0 0 14 18" fill="none" xmlns="http://www.w3.org/2000/svg">
<path d="M12.654 4.30258C12.1801 3.36819 11.4789 2.56792 10.6149 1.97536C9.75082 1.38279 8.75168 1.01695 7.70929 0.911461C7.23775 0.864148 6.76265 0.864148 6.2911 0.911461C5.24874 1.01702 4.24962 1.38285 3.38554 1.97535C2.52147 2.56784 1.82015 3.36799 1.34604 4.30227C0.749535 5.49436 0.51913 6.83632 0.683845 8.15911C0.84856 9.4819 1.40103 10.7264 2.27167 11.7358L6.51723 16.8975C6.57586 16.9688 6.64957 17.0263 6.73305 17.0657C6.81653 17.1052 6.90771 17.1256 7.00004 17.1256C7.09237 17.1256 7.18356 17.1052 7.26704 17.0657C7.35052 17.0263 7.42422 16.9688 7.48285 16.8975L11.7284 11.7358C12.599 10.7264 13.1515 9.48201 13.3162 8.15927C13.4809 6.83653 13.2505 5.49463 12.654 4.30258ZM7.00004 9.62546C6.50559 9.62546 6.02224 9.47883 5.61112 9.20413C5.19999 8.92943 4.87956 8.53898 4.69034 8.08217C4.50112 7.62535 4.45162 7.12268 4.54808 6.63773C4.64454 6.15278 4.88264 5.70732 5.23228 5.35769C5.58191 5.00806 6.02736 4.76996 6.51232 4.6735C6.99727 4.57703 7.49994 4.62654 7.95675 4.81576C8.41357 5.00498 8.80401 5.32541 9.07872 5.73653C9.35342 6.14766 9.50004 6.631 9.50004 7.12546C9.49927 7.78826 9.23562 8.42369 8.76695 8.89237C8.29828 9.36104 7.66285 9.62468 7.00004 9.62546Z" fill="#B19777"/>
</svg>
