<svg width="30" height="30" viewBox="0 0 30 30" fill="none" xmlns="http://www.w3.org/2000/svg">
<path d="M15.0002 0.719727C12.1759 0.719727 9.41502 1.55723 7.06668 3.12634C4.71835 4.69545 2.88804 6.92568 1.80722 9.53501C0.726402 12.1443 0.44361 15.0156 0.994608 17.7856C1.5456 20.5557 2.90564 23.1001 4.90274 25.0972C6.89983 27.0943 9.44429 28.4543 12.2143 29.0053C14.9844 29.5563 17.8556 29.2735 20.4649 28.1927C23.0743 27.1119 25.3045 25.2816 26.8736 22.9333C28.4427 20.5849 29.2802 17.824 29.2802 14.9997C29.2766 11.2135 27.771 7.58346 25.0937 4.90622C22.4165 2.22898 18.7864 0.723327 15.0002 0.719727ZM15.0002 27.9197C12.4449 27.9197 9.94694 27.162 7.82226 25.7423C5.69757 24.3226 4.04158 22.3048 3.0637 19.944C2.08581 17.5832 1.82995 14.9854 2.32848 12.4792C2.827 9.97293 4.05751 7.6708 5.8644 5.86391C7.6713 4.05701 9.97342 2.8265 12.4797 2.32798C14.9859 1.82946 17.5837 2.08532 19.9445 3.0632C22.3053 4.04109 24.3231 5.69708 25.7428 7.82176C27.1625 9.94644 27.9202 12.4444 27.9202 14.9997C27.9166 18.4252 26.5543 21.7094 24.1321 24.1316C21.7099 26.5538 18.4257 27.9161 15.0002 27.9197Z" fill="#B19777"/>
<path d="M19.7603 15.857L15.6803 14.497V6.84016C15.6803 6.65981 15.6087 6.48685 15.4812 6.35932C15.3536 6.2318 15.1807 6.16016 15.0003 6.16016C14.82 6.16016 14.647 6.2318 14.5195 6.35932C14.392 6.48685 14.3203 6.65981 14.3203 6.84016V15.0002C14.3193 15.1421 14.3636 15.2806 14.4468 15.3955C14.5299 15.5105 14.6476 15.5959 14.7827 15.6394L19.2979 17.149C19.3698 17.1632 19.4437 17.1632 19.5155 17.149C19.6586 17.147 19.7974 17.0999 19.9122 17.0144C20.0269 16.929 20.1118 16.8095 20.1547 16.673C20.204 16.5123 20.1907 16.3389 20.1176 16.1876C20.0445 16.0363 19.9169 15.9182 19.7603 15.857Z" fill="#B19777"/>
</svg>
