<svg width="31" height="15" viewBox="0 0 31 15" fill="none" xmlns="http://www.w3.org/2000/svg">
<g clip-path="url(#clip0_268_1452)">
<path d="M27.7699 6.08626L19.7063 0.446434C19.3339 0.185795 18.9587 0.0478516 18.6468 0.0478516C18.0439 0.0478516 17.6709 0.542238 17.6709 1.36978V13.5591C17.6709 14.3857 18.0434 14.8791 18.6449 14.8791C18.9573 14.8791 19.3265 14.741 19.6997 14.4797L27.7671 8.83997C28.2859 8.47668 28.5732 7.98781 28.5732 7.46281C28.5733 6.93817 28.2893 6.44943 27.7699 6.08626Z" fill="white"/>
</g>
<g clip-path="url(#clip1_268_1452)">
<path d="M2.84094 6.08626L10.9045 0.446434C11.2769 0.185795 11.6521 0.0478516 11.964 0.0478516C12.567 0.0478516 12.9399 0.542238 12.9399 1.36978V13.5591C12.9399 14.3857 12.5674 14.8791 11.9659 14.8791C11.6535 14.8791 11.2843 14.741 10.9111 14.4797L2.84376 8.83997C2.32495 8.47668 2.03764 7.98781 2.03764 7.46281C2.03752 6.93817 2.32154 6.44943 2.84094 6.08626Z" fill="white"/>
</g>
<defs>
<clipPath id="clip0_268_1452">
<rect width="14.5169" height="14.8312" fill="white" transform="translate(15.8638 0.0478516)"/>
</clipPath>
<clipPath id="clip1_268_1452">
<rect width="14.5169" height="14.8312" fill="white" transform="matrix(-1 0 0 1 14.7471 0.0478516)"/>
</clipPath>
</defs>
</svg>
