<svg width="72" height="60" viewBox="0 0 72 60" fill="none" xmlns="http://www.w3.org/2000/svg">
<path d="M17.4315 37.3762L33.8457 46.4952C34.5202 46.8701 35.2602 47.0574 36.0002 47.0574C36.7401 47.0574 37.4802 46.87 38.1547 46.4952L54.5689 37.3762C55.9764 36.5942 56.8508 35.1082 56.8508 33.4979V14.3825C56.8508 12.7722 55.9764 11.2862 54.5689 10.5044L38.1547 1.38539C36.8055 0.635859 35.1947 0.635859 33.8455 1.38539L17.4315 10.5044C16.0238 11.2862 15.1494 12.7722 15.1494 14.3825V33.4979C15.1496 35.1081 16.024 36.5942 17.4315 37.3762ZM54.7414 33.4979C54.7414 34.3425 54.2827 35.122 53.5444 35.5322L37.1302 44.6512C36.4226 45.0444 35.5776 45.0444 34.87 44.6512L18.4559 35.5322C17.7176 35.122 17.2589 34.3425 17.2589 33.4979V14.3825C17.2589 14.3178 17.2624 14.2537 17.2678 14.19L34.9455 24.011V40.7788C34.9455 41.3613 35.4177 41.8335 36.0002 41.8335C36.5826 41.8335 37.0549 41.3613 37.0549 40.7788V24.011L54.7325 14.19C54.7379 14.2537 54.7414 14.3178 54.7414 14.3825V33.4979ZM34.8701 3.22926C35.2239 3.03267 35.612 2.93437 36.0002 2.93437C36.3883 2.93437 36.7766 3.03267 37.1302 3.22926L53.5444 12.3482C53.5707 12.3629 53.5957 12.3789 53.6212 12.3944L36.0002 22.184L18.379 12.3945C18.4046 12.379 18.4296 12.3629 18.4558 12.3484L34.8701 3.22926Z" fill="#B19777"/>
<path d="M61.1696 25.6887C60.6452 25.4347 60.0145 25.6542 59.7608 26.1786C59.5071 26.703 59.7265 27.3336 60.2507 27.5874C66.4673 30.5954 69.8909 34.5045 69.8909 38.5946C69.8909 42.5699 66.677 45.6094 63.9808 47.4591C63.5004 47.7888 63.3782 48.4452 63.7079 48.9256C63.9123 49.2236 64.2425 49.3836 64.5785 49.3836C64.7841 49.3836 64.9918 49.3237 65.1742 49.1985C69.6398 46.1347 72.0002 42.4679 72.0002 38.5946C72.0002 33.6516 68.1539 29.0682 61.1696 25.6887Z" fill="#B19777"/>
<path d="M59.7097 50.247L48.8175 49.2332C48.2373 49.1792 47.7236 49.6056 47.6696 50.1856C47.6156 50.7655 48.042 51.2795 48.6219 51.3335L54.394 51.8708C48.916 53.5607 42.6265 54.4494 36 54.4494C26.8217 54.4494 18.2092 52.7281 11.7494 49.6022C5.53289 46.5943 2.10938 42.6852 2.10938 38.5951C2.10938 34.5271 5.50153 30.6333 11.6608 27.631C12.1845 27.3758 12.402 26.7444 12.1468 26.2208C11.8915 25.6971 11.2598 25.4796 10.7366 25.7348C3.81291 29.1098 0 33.6769 0 38.5951C0 43.5381 3.84637 48.1216 10.8305 51.501C17.5712 54.7626 26.5099 56.5588 36 56.5588C42.6137 56.5588 48.9188 55.6983 54.4669 54.0553L50.4051 57.2984C49.9499 57.6617 49.8755 58.3254 50.239 58.7807C50.4473 59.0416 50.7541 59.1774 51.0639 59.1774C51.2947 59.1774 51.527 59.102 51.7213 58.9468L60.27 52.1214C60.6063 51.8529 60.7456 51.4073 60.6225 50.9951C60.4991 50.583 60.1379 50.287 59.7097 50.247Z" fill="#B19777"/>
</svg>
