<svg width="60" height="62" viewBox="0 0 60 62" fill="none" xmlns="http://www.w3.org/2000/svg">
<path d="M6.9736 40.084C6.38248 40.084 5.80464 40.2593 5.31315 40.5877C4.82165 40.9161 4.43858 41.3829 4.21237 41.929C3.98616 42.4751 3.92697 43.076 4.04229 43.6558C4.15761 44.2355 4.44226 44.7681 4.86024 45.1861C5.27822 45.6041 5.81077 45.8887 6.39052 46.004C6.97028 46.1193 7.57121 46.0602 8.11733 45.8339C8.66345 45.6077 9.13023 45.2247 9.45863 44.7332C9.78704 44.2417 9.96233 43.6638 9.96233 43.0727C9.96144 42.2803 9.64627 41.5206 9.08596 40.9603C8.52566 40.4 7.76598 40.0849 6.9736 40.084ZM6.9736 44.069C6.77656 44.069 6.58394 44.0105 6.42011 43.9011C6.25628 43.7916 6.12859 43.636 6.05319 43.454C5.97778 43.2719 5.95805 43.0716 5.99649 42.8784C6.03493 42.6851 6.12982 42.5076 6.26914 42.3683C6.40847 42.2289 6.58599 42.1341 6.77924 42.0956C6.97249 42.0572 7.1728 42.0769 7.35484 42.1523C7.53688 42.2277 7.69247 42.3554 7.80194 42.5192C7.91141 42.6831 7.96984 42.8757 7.96984 43.0727C7.96954 43.3368 7.86449 43.5901 7.67772 43.7768C7.49095 43.9636 7.23772 44.0687 6.9736 44.069Z" fill="#B19777"/>
<path d="M44.831 40.084C44.2399 40.084 43.6621 40.2593 43.1706 40.5877C42.6791 40.9161 42.296 41.3829 42.0698 41.929C41.8436 42.4751 41.7844 43.076 41.8997 43.6558C42.015 44.2355 42.2997 44.7681 42.7177 45.1861C43.1356 45.6041 43.6682 45.8887 44.2479 46.004C44.8277 46.1193 45.4286 46.0602 45.9748 45.8339C46.5209 45.6077 46.9876 45.2247 47.3161 44.7332C47.6445 44.2417 47.8197 43.6638 47.8197 43.0727C47.8189 42.2803 47.5037 41.5206 46.9434 40.9603C46.3831 40.4 45.6234 40.0849 44.831 40.084ZM44.831 44.069C44.634 44.069 44.4414 44.0105 44.2775 43.9011C44.1137 43.7916 43.986 43.636 43.9106 43.454C43.8352 43.2719 43.8155 43.0716 43.8539 42.8784C43.8924 42.6851 43.9872 42.5076 44.1266 42.3683C44.2659 42.2289 44.4434 42.1341 44.6367 42.0956C44.8299 42.0572 45.0302 42.0769 45.2123 42.1523C45.3943 42.2277 45.5499 42.3554 45.6594 42.5192C45.7688 42.6831 45.8273 42.8757 45.8273 43.0727C45.827 43.3368 45.7219 43.5901 45.5351 43.7768C45.3484 43.9636 45.0951 44.0687 44.831 44.069Z" fill="#B19777"/>
<path d="M51.8046 43.0714C51.8046 42.1456 51.6203 41.2291 51.2624 40.3752C50.9044 39.5214 50.3801 38.7474 49.7199 38.0984C49.0597 37.4494 48.2769 36.9383 47.4171 36.5949C46.5573 36.2516 45.6378 36.0829 44.7121 36.0987C40.9324 36.1618 37.8572 39.3339 37.8572 43.1698V46.5165C35.1281 45.7737 31.1479 45.0639 25.9023 45.0639C20.6567 45.0639 16.6765 45.7737 13.9474 46.5165V43.0714C13.9474 42.1328 13.7579 41.2039 13.3903 40.3402C13.0228 39.4766 12.4846 38.6961 11.8082 38.0454C11.1317 37.3947 10.3309 36.8873 9.45366 36.5535C8.57642 36.2197 7.64083 36.0665 6.70294 36.1029C4.95028 36.1768 3.28926 36.9061 2.04884 38.1466C0.808417 39.387 0.0790551 41.048 0.0051978 42.8007C-0.0612943 44.523 0.512077 46.209 1.61481 47.5338C2.71754 48.8585 4.27158 49.7282 5.97743 49.9752V54.0301C5.97862 55.0866 6.39884 56.0995 7.14591 56.8466C7.89298 57.5936 8.90589 58.0139 9.9624 58.0151V61.0038C9.9624 61.268 10.0674 61.5214 10.2542 61.7082C10.441 61.8951 10.6944 62 10.9586 62H13.9474C14.1324 62 14.3137 61.9485 14.4711 61.8512C14.6285 61.754 14.7557 61.6148 14.8384 61.4494L16.5555 58.0151H35.2491L36.9662 61.4494C37.049 61.6148 37.1761 61.754 37.3335 61.8512C37.4909 61.9485 37.6722 62 37.8572 62H40.846C41.1102 62 41.3636 61.8951 41.5504 61.7082C41.7372 61.5214 41.8422 61.268 41.8422 61.0038V58.0151C42.8987 58.0139 43.9116 57.5936 44.6587 56.8466C45.4058 56.0995 45.826 55.0866 45.8272 54.0301V49.9741C47.4861 49.7324 49.0027 48.9021 50.1001 47.6348C51.1975 46.3675 51.8025 44.7478 51.8046 43.0714ZM13.3317 60.0075H11.9549V58.0151H14.3279L13.3317 60.0075ZM39.8497 60.0075H38.4729L37.4767 58.0151H39.8497V60.0075ZM44.8309 48.0526C44.5667 48.0526 44.3133 48.1576 44.1265 48.3444C43.9396 48.5312 43.8347 48.7846 43.8347 49.0489V54.0301C43.8341 54.5583 43.6239 55.0648 43.2504 55.4383C42.8769 55.8118 42.3704 56.0219 41.8422 56.0226H9.9624C9.43416 56.0219 8.92772 55.8118 8.55419 55.4383C8.18067 55.0648 7.97054 54.5583 7.96992 54.0301V49.0489C7.96992 48.7846 7.86496 48.5312 7.67812 48.3444C7.49129 48.1576 7.23789 48.0526 6.97367 48.0526C6.30311 48.0526 5.63944 47.9172 5.02246 47.6546C4.40547 47.3919 3.84787 47.0074 3.38308 46.524C2.91829 46.0407 2.55587 45.4685 2.31756 44.8417C2.07924 44.2149 1.96994 43.5464 1.99619 42.8764C2.04898 41.6251 2.56974 40.4392 3.45535 39.5536C4.34095 38.668 5.52683 38.1472 6.77816 38.0944C7.44821 38.0681 8.11668 38.1773 8.7435 38.4156C9.37031 38.6538 9.94257 39.0162 10.426 39.4809C10.9094 39.9457 11.294 40.5032 11.5567 41.1202C11.8194 41.7372 11.9548 42.4008 11.9549 43.0714V47.1311C10.3844 47.679 9.55917 48.1326 9.474 48.1805L10.4487 49.9183C10.5001 49.8897 15.7148 47.0564 25.9023 47.0564C36.0898 47.0564 41.3045 49.8897 41.3538 49.9172L42.3306 48.1805C42.2454 48.1326 41.4202 47.6785 39.8497 47.1311V43.1698C39.8497 40.4144 42.0459 38.136 44.7454 38.0909C45.4031 38.0795 46.0565 38.1985 46.668 38.441C47.2795 38.6835 47.8369 39.0447 48.308 39.5038C48.7791 39.9629 49.1546 40.5107 49.4129 41.1157C49.6712 41.7207 49.807 42.3708 49.8127 43.0286C49.8183 43.6864 49.6936 44.3388 49.4458 44.9481C49.198 45.5574 48.8319 46.1116 48.3687 46.5787C47.9056 47.0458 47.3545 47.4166 46.7473 47.6695C46.14 47.9225 45.4887 48.0527 44.8309 48.0526Z" fill="#B19777"/>
<path d="M7.97003 29.1227C7.97065 28.5944 8.18078 28.088 8.5543 27.7145C8.92783 27.3409 9.43427 27.1308 9.96251 27.1302H41.8423C42.3706 27.1308 42.877 27.3409 43.2505 27.7145C43.6241 28.088 43.8342 28.5944 43.8348 29.1227V34.1039H45.8273V29.1227C45.8261 28.0662 45.4059 27.0532 44.6588 26.3062C43.9117 25.5591 42.8988 25.1389 41.8423 25.1377H9.96251C8.906 25.1389 7.89309 25.5591 7.14602 26.3062C6.39895 27.0532 5.97873 28.0662 5.97754 29.1227V34.1039H7.97003V29.1227Z" fill="#B19777"/>
<path d="M19.9248 31.1152H21.9173V33.1077H19.9248V31.1152Z" fill="#B19777"/>
<path d="M24.9062 36.0977H26.8987V38.0901H24.9062V36.0977Z" fill="#B19777"/>
<path d="M14.9438 36.0977H16.9363V38.0901H14.9438V36.0977Z" fill="#B19777"/>
<path d="M19.9248 41.0771H21.9173V43.0696H19.9248V41.0771Z" fill="#B19777"/>
<path d="M29.8877 31.1152H31.8802V33.1077H29.8877V31.1152Z" fill="#B19777"/>
<path d="M34.8687 36.0977H36.8611V38.0901H34.8687V36.0977Z" fill="#B19777"/>
<path d="M29.8877 41.0771H31.8802V43.0696H29.8877V41.0771Z" fill="#B19777"/>
<path d="M55.7895 0.232422H27.8946C26.8381 0.233608 25.8252 0.653834 25.0782 1.4009C24.3311 2.14798 23.9109 3.16088 23.9097 4.2174V5.21364H25.9022V4.2174C25.9028 3.68915 26.1129 3.18272 26.4864 2.80919C26.86 2.43566 27.3664 2.22554 27.8946 2.22491H40.8458V23.146H42.8383V2.22491H55.7895C56.3177 2.22554 56.8242 2.43566 57.1977 2.80919C57.5712 3.18272 57.7813 3.68915 57.782 4.2174V54.0296C57.7813 54.5578 57.5712 55.0643 57.1977 55.4378C56.8242 55.8113 56.3177 56.0214 55.7895 56.0221H46.8233V58.0146H49.1963L50.9135 61.4489C50.9962 61.6143 51.1234 61.7535 51.2808 61.8507C51.4381 61.948 51.6195 61.9995 51.8045 61.9995H54.7932C55.0574 61.9995 55.3108 61.8946 55.4977 61.7077C55.6845 61.5209 55.7895 61.2675 55.7895 61.0033V58.0146C56.846 58.0134 57.8589 57.5931 58.606 56.8461C59.353 56.099 59.7733 55.0861 59.7744 54.0296V4.2174C59.7733 3.16088 59.353 2.14798 58.606 1.4009C57.8589 0.653834 56.846 0.233608 55.7895 0.232422ZM53.797 60.007H52.4202L51.4239 58.0146H53.797V60.007Z" fill="#B19777"/>
<path d="M6.97374 21.1528H15.9399V23.1453H17.9324V21.1528H26.8986C27.0364 21.1528 27.1727 21.1242 27.2989 21.0688C27.4251 21.0134 27.5384 20.9325 27.6317 20.8311C27.725 20.7297 27.7963 20.61 27.841 20.4796C27.8857 20.3493 27.9028 20.2111 27.8914 20.0737L26.8951 8.11881C26.8744 7.8698 26.7608 7.63768 26.5769 7.46849C26.393 7.2993 26.1523 7.20539 25.9024 7.20538H17.9324V5.21289H15.9399V7.20538H7.96999C7.72011 7.20539 7.47936 7.2993 7.29548 7.46849C7.11159 7.63768 6.998 7.8698 6.97723 8.11881L5.98099 20.0737C5.96953 20.2111 5.98669 20.3493 6.03138 20.4796C6.07607 20.61 6.14732 20.7297 6.24062 20.8311C6.33393 20.9325 6.44726 21.0134 6.57344 21.0688C6.69963 21.1242 6.83594 21.1528 6.97374 21.1528ZM8.88666 9.19787H24.9857L25.816 19.1603H8.05641L8.88666 9.19787Z" fill="#B19777"/>
</svg>
