<svg width="16" height="16" viewBox="0 0 16 16" fill="none" xmlns="http://www.w3.org/2000/svg">
<path d="M8 0.000488281C3.58218 0.000488281 0 3.58197 0 8.00014C0 12.4183 3.58183 15.9998 8 15.9998C12.4185 15.9998 16 12.4183 16 8.00014C16 3.58197 12.4185 0.000488281 8 0.000488281ZM8 2.39248C9.46183 2.39248 10.6464 3.5774 10.6464 5.03853C10.6464 6.5 9.46183 7.68458 8 7.68458C6.53887 7.68458 5.3543 6.5 5.3543 5.03853C5.3543 3.5774 6.53887 2.39248 8 2.39248ZM7.99824 13.9082C6.54028 13.9082 5.20495 13.3773 4.175 12.4984C3.9241 12.2844 3.77932 11.9706 3.77932 11.6414C3.77932 10.1595 4.97865 8.97352 6.46086 8.97352H9.53984C11.0224 8.97352 12.2172 10.1595 12.2172 11.6414C12.2172 11.971 12.0731 12.2841 11.8218 12.4981C10.7922 13.3773 9.45656 13.9082 7.99824 13.9082Z" fill="#BBBAB9"/>
</svg>
