<svg width="17" height="17" viewBox="0 0 17 17" fill="none" xmlns="http://www.w3.org/2000/svg">
<path d="M8.49992 0.708496C6.95888 0.708496 5.45244 1.16547 4.1711 2.02163C2.88977 2.87779 1.89109 4.09468 1.30136 5.51842C0.711628 6.94216 0.557327 8.50881 0.85797 10.0202C1.15861 11.5317 1.9007 12.92 2.99038 14.0097C4.08007 15.0994 5.46841 15.8415 6.97984 16.1421C8.49128 16.4428 10.0579 16.2885 11.4817 15.6987C12.9054 15.109 14.1223 14.1103 14.9785 12.829C15.8346 11.5477 16.2916 10.0412 16.2916 8.50016C16.2892 6.43443 15.4675 4.45401 14.0068 2.99331C12.5461 1.53262 10.5657 0.710933 8.49992 0.708496ZM11.1257 11.126C10.9929 11.2587 10.8127 11.3333 10.6249 11.3333C10.4371 11.3333 10.257 11.2587 10.1241 11.126L7.99913 9.00096C7.86628 8.86815 7.79163 8.68801 7.79159 8.50016V4.25016C7.79159 4.0623 7.86622 3.88213 7.99905 3.7493C8.13189 3.61646 8.31206 3.54183 8.49992 3.54183C8.68778 3.54183 8.86795 3.61646 9.00079 3.7493C9.13363 3.88213 9.20825 4.0623 9.20825 4.25016V8.20692L11.1257 10.1244C11.2585 10.2572 11.3331 10.4373 11.3331 10.6252C11.3331 10.813 11.2585 10.9931 11.1257 11.126Z" fill="#56595C"/>
</svg>
