<svg width="61" height="61" viewBox="0 0 61 61" fill="none" xmlns="http://www.w3.org/2000/svg">
<g clip-path="url(#clip0_507_8916)">
<path d="M35.5833 23.1035L57.9754 27.5514C59.78 27.9327 61 29.4577 61 31.2623V57.1873C61 59.2969 59.2971 60.9998 57.1875 60.9998H34.3125C35.0242 60.9998 35.5833 60.4406 35.5833 59.7289V58.4581H57.1875C57.8737 58.4581 58.4583 57.8989 58.4583 57.1873V31.2623C58.4583 30.6777 58.0517 30.1439 57.4671 30.0169L35.5833 25.696V23.1035Z" fill="black"/>
<path d="M49.5624 35.583C50.2741 35.583 50.8333 36.1422 50.8333 36.8538C50.8333 37.5655 50.2741 38.1247 49.5624 38.1247H44.4791C43.7674 38.1247 43.2083 37.5655 43.2083 36.8538C43.2083 36.1422 43.7674 35.583 44.4791 35.583H49.5624Z" fill="black"/>
<path d="M49.5624 43.208C50.2741 43.208 50.8333 43.7672 50.8333 44.4788C50.8333 45.1905 50.2741 45.7497 49.5624 45.7497H44.4791C43.7674 45.7497 43.2083 45.1905 43.2083 44.4788C43.2083 43.7672 43.7674 43.208 44.4791 43.208H49.5624Z" fill="black"/>
<path d="M49.5624 50.833C50.2741 50.833 50.8333 51.3922 50.8333 52.1038C50.8333 52.8155 50.2741 53.3747 49.5624 53.3747H44.4791C43.7674 53.3747 43.2083 52.8155 43.2083 52.1038C43.2083 51.3922 43.7674 50.833 44.4791 50.833H49.5624Z" fill="black"/>
<path d="M35.5834 59.7298C35.5834 60.4414 35.0243 61.0006 34.3126 61.0006C33.6009 61.0006 33.0417 60.4414 33.0417 59.7298V58.4589V24.1464C33.0417 23.7652 33.2197 23.4093 33.4992 23.1552C33.8043 22.9264 34.1855 22.8248 34.5668 22.901L35.5834 23.1043V25.6968V58.4589V59.7298Z" fill="black"/>
<path d="M33.0416 58.458V59.7288C33.0416 60.4405 33.6008 60.9997 34.3124 60.9997H24.1458C24.8574 60.9997 25.4166 60.4405 25.4166 59.7288V58.458H33.0416Z" fill="black"/>
<path d="M26.6874 12.708C27.3991 12.708 27.9583 13.2672 27.9583 13.9788C27.9583 14.6905 27.3991 15.2497 26.6874 15.2497H21.6041C20.8924 15.2497 20.3333 14.6905 20.3333 13.9788C20.3333 13.2672 20.8924 12.708 21.6041 12.708H26.6874Z" fill="black"/>
<path d="M27.9583 21.6038C27.9583 22.3155 27.3991 22.8747 26.6874 22.8747H21.6041C20.8924 22.8747 20.3333 22.3155 20.3333 21.6038C20.3333 20.8922 20.8924 20.333 21.6041 20.333H26.6874C27.3991 20.333 27.9583 20.8922 27.9583 21.6038Z" fill="black"/>
<path d="M26.6874 27.958C27.3991 27.958 27.9583 28.5172 27.9583 29.2288C27.9583 29.9405 27.3991 30.4997 26.6874 30.4997H21.6041C20.8924 30.4997 20.3333 29.9405 20.3333 29.2288C20.3333 28.5172 20.8924 27.958 21.6041 27.958H26.6874Z" fill="black"/>
<path d="M26.6874 35.583C27.3991 35.583 27.9583 36.1422 27.9583 36.8538C27.9583 37.5655 27.3991 38.1247 26.6874 38.1247H21.6041C20.8924 38.1247 20.3333 37.5655 20.3333 36.8538C20.3333 36.1422 20.8924 35.583 21.6041 35.583H26.6874Z" fill="black"/>
<path d="M15.25 36.8538C15.25 37.5655 14.6908 38.1247 13.9792 38.1247H8.89583C8.18417 38.1247 7.625 37.5655 7.625 36.8538C7.625 36.1422 8.18417 35.583 8.89583 35.583H13.9792C14.6908 35.583 15.25 36.1422 15.25 36.8538Z" fill="black"/>
<path d="M13.9792 12.708C14.6908 12.708 15.25 13.2672 15.25 13.9788C15.25 14.6905 14.6908 15.2497 13.9792 15.2497H8.89583C8.18417 15.2497 7.625 14.6905 7.625 13.9788C7.625 13.2672 8.18417 12.708 8.89583 12.708H13.9792Z" fill="black"/>
<path d="M13.9792 20.333C14.6908 20.333 15.25 20.8922 15.25 21.6038C15.25 22.3155 14.6908 22.8747 13.9792 22.8747H8.89583C8.18417 22.8747 7.625 22.3155 7.625 21.6038C7.625 20.8922 8.18417 20.333 8.89583 20.333H13.9792Z" fill="black"/>
<path d="M13.9792 27.958C14.6908 27.958 15.25 28.5172 15.25 29.2288C15.25 29.9405 14.6908 30.4997 13.9792 30.4997H8.89583C8.18417 30.4997 7.625 29.9405 7.625 29.2288C7.625 28.5172 8.18417 27.958 8.89583 27.958H13.9792Z" fill="black"/>
<path d="M22.8751 47.0205C22.8751 46.3088 22.2905 45.7497 21.6042 45.7497H13.9792C13.2676 45.7497 12.7084 46.3088 12.7084 47.0205V58.458H10.1667V47.0205C10.1667 44.9109 11.8697 43.208 13.9792 43.208H21.6042C23.7138 43.208 25.4167 44.9109 25.4167 47.0205V58.458H22.8751V47.0205Z" fill="black"/>
<path d="M12.7084 58.458H22.8751H25.4167V59.7288C25.4167 60.4405 24.8576 60.9997 24.1459 60.9997H11.4376C10.7259 60.9997 10.1667 60.4405 10.1667 59.7288V58.458H12.7084Z" fill="black"/>
<path d="M4.44792 0.508468L32.3808 4.75305C34.2362 5.05805 35.5833 6.63388 35.5833 8.51472V23.1039L34.5667 22.9006C34.1854 22.8243 33.8042 22.926 33.4992 23.1547C33.2196 23.4089 33.0417 23.7647 33.0417 24.146V8.51472C33.0417 7.8793 32.5842 7.34555 31.9742 7.24388L4.04125 3.02472C3.965 2.9993 3.88875 2.9993 3.8125 2.9993C3.5075 2.9993 3.22792 3.10097 2.99917 3.3043C2.69417 3.55847 2.54167 3.88888 2.54167 4.27013V57.1876C2.54167 57.8993 3.12625 58.4585 3.8125 58.4585H10.1667V59.7293C10.1667 60.441 10.7258 61.0001 11.4375 61.0001H3.8125C1.70292 61.0001 0 59.2972 0 57.1876V4.27013C0 3.1518 0.482917 2.0843 1.34708 1.37263C2.21125 0.635551 3.32958 0.330551 4.44792 0.508468Z" fill="black"/>
</g>
<defs>
<clipPath id="clip0_507_8916">
<rect width="61" height="61" fill="white"/>
</clipPath>
</defs>
</svg>
