<svg width="63" height="63" viewBox="0 0 63 63" fill="none" xmlns="http://www.w3.org/2000/svg">
<g clip-path="url(#clip0_507_8951)">
<path d="M55.7445 44.4592C55.399 44.3159 55.0013 44.3951 54.7368 44.6595L44.6314 54.7649C44.367 55.0294 44.2879 55.4271 44.4311 55.7726C44.5741 56.1183 44.9115 56.3434 45.2854 56.3434H55.3908C55.9015 56.3434 56.3155 55.9295 56.3155 55.4187V45.3134C56.3153 44.9394 56.09 44.6023 55.7445 44.4592ZM47.5175 54.4942L54.4658 47.5458V54.4942H47.5175Z" fill="#25292F"/>
<path d="M62.4293 29.6377C62.0838 29.4944 61.6861 29.5736 61.4216 29.838L58.6521 32.6074V13.7774C58.6521 13.2666 58.2381 12.8527 57.7274 12.8527H50.6226L53.2016 10.2736C53.202 10.2733 53.2024 10.2728 53.2027 10.2724L55.6878 7.78734C56.2202 7.25491 56.5135 6.54666 56.5135 5.79361C56.5135 5.04056 56.2202 4.33255 55.6878 3.79987L52.8142 0.926232C52.2817 0.393807 51.5735 0.100586 50.8204 0.100586C50.0674 0.100586 49.3592 0.393807 48.8267 0.926232L46.3404 3.41252L43.3361 6.41684L36.9004 12.8526H8.1974V3.70464C8.1974 3.19387 7.78335 2.77994 7.2727 2.77994C3.26259 2.78018 0 6.04253 0 10.0529V49.3278C0 49.3961 0.00787502 49.4625 0.0219024 49.5265C0.149625 51.2281 0.885816 52.8092 2.11616 54.0094C3.43129 55.292 5.16736 55.9984 7.0047 55.9984H35.261L29.9393 61.3201C29.6749 61.5846 29.5958 61.9822 29.7389 62.3278C29.882 62.6734 30.2193 62.8987 30.5932 62.8987H62.0754C62.5861 62.8987 63.0001 62.4847 63.0001 61.974V30.492C63.0001 30.1181 62.7747 29.7808 62.4293 29.6377ZM50.1347 2.2341C50.5127 1.85585 51.1285 1.85585 51.5065 2.2341L54.3803 5.10787C54.7586 5.48599 54.7586 6.10159 54.3803 6.47984L52.548 8.31226L48.3021 4.06652L50.1347 2.2341ZM46.9944 5.37426L51.2401 9.61988L49.5434 11.3166L45.298 7.07096L46.9944 5.37426ZM61.151 40.8823H59.4449C58.9342 40.8823 58.5202 41.2963 58.5202 41.807C58.5202 42.3178 58.9342 42.7317 59.4449 42.7317H61.151V45.5183H59.4449C58.9342 45.5183 58.5202 45.9322 58.5202 46.443C58.5202 46.9537 58.9342 47.3677 59.4449 47.3677H61.151V50.1541H59.4449C58.9342 50.1541 58.5202 50.568 58.5202 51.0788C58.5202 51.5895 58.9342 52.0035 59.4449 52.0035H61.151V54.79H59.4449C58.9342 54.79 58.5202 55.204 58.5202 55.7147C58.5202 56.2254 58.9342 56.6394 59.4449 56.6394H61.151V61.0496H32.8255L42.1658 51.7095C42.5269 51.3482 42.5269 50.7629 42.1658 50.4018C42.1243 50.3603 42.0798 50.3244 42.0331 50.2924C41.6731 50.0458 41.1777 50.0821 40.8579 50.4018L37.1104 54.1493H7.00483C4.20034 54.1493 1.94267 51.9598 1.85383 49.1603C1.85912 48.9846 1.87278 48.8104 1.89468 48.6381C1.8948 48.6371 1.89493 48.6362 1.89505 48.6352C1.90538 48.5533 1.91781 48.4719 1.93196 48.3909C1.93356 48.3817 1.93529 48.3725 1.93688 48.3632C1.9498 48.291 1.96432 48.2191 1.9802 48.1475C1.98463 48.1276 1.9893 48.1077 1.99398 48.0879C2.00801 48.0273 2.02314 47.9671 2.03938 47.9072C2.04824 47.8747 2.05747 47.8426 2.06695 47.8103C2.08048 47.7633 2.09451 47.7164 2.1094 47.67C2.12429 47.6236 2.14016 47.5777 2.15628 47.5318C2.16747 47.4997 2.17855 47.4676 2.19061 47.4357C2.21313 47.3752 2.237 47.3152 2.26161 47.2558C2.26862 47.2387 2.27551 47.2214 2.28277 47.2043C2.31439 47.1304 2.34725 47.0575 2.38195 46.9854C2.38342 46.9823 2.38478 46.9792 2.38625 46.9761C3.10952 45.4794 4.50057 44.3635 6.16995 44.0172C6.17463 44.0162 6.1793 44.0151 6.18398 44.0141C6.26051 43.9985 6.33779 43.9851 6.41555 43.9727C6.42847 43.9706 6.44139 43.968 6.45456 43.966C6.52482 43.9553 6.59582 43.9469 6.66682 43.9389C6.68675 43.9367 6.70656 43.9337 6.72662 43.9317C6.79515 43.9248 6.86431 43.9202 6.93346 43.9159C6.95536 43.9146 6.97726 43.9122 6.99917 43.9111C7.08973 43.9066 7.18103 43.9043 7.2727 43.9043C7.78335 43.9043 8.1974 43.4903 8.1974 42.9795V36.2748C8.1974 35.7641 7.78335 35.3501 7.2727 35.3501C6.76205 35.3501 6.348 35.7641 6.348 36.2748V42.1131C4.78653 42.3105 3.33716 43.007 2.1943 44.123C2.07408 44.2404 1.96014 44.3625 1.84915 44.4865V10.0529C1.84915 7.37772 3.7965 5.14847 6.34788 4.70821V13.7774V32.5762V32.5763C6.34788 33.0869 6.76193 33.501 7.27258 33.501C7.78322 33.501 8.19728 33.0869 8.19728 32.5763V32.5762V14.7021H35.0511L29.9392 19.814C29.5781 20.1752 29.5781 20.7606 29.9392 21.1217C30.3004 21.4827 30.8858 21.4827 31.2468 21.1217L37.9373 14.4313C37.9375 14.431 37.9376 14.4308 37.9379 14.4307L43.99 8.37858L48.2355 12.6243L47.7374 13.1224C47.737 13.1228 47.7365 13.1232 47.7361 13.1235L29.091 31.7689L24.8454 27.5232L28.5206 23.8481C28.8817 23.4868 28.8817 22.9015 28.5206 22.5403C28.1595 22.1793 27.574 22.1793 27.213 22.5403L22.8838 26.8694C22.8607 26.8925 22.839 26.917 22.8187 26.9421C22.812 26.9505 22.8059 26.9594 22.7995 26.9682C22.7865 26.9855 22.7737 27.003 22.7617 27.0212C22.755 27.0318 22.7488 27.0426 22.7424 27.0536C22.7322 27.0708 22.7224 27.0883 22.7134 27.1061C22.7075 27.1177 22.7022 27.1294 22.6968 27.1414C22.6885 27.1595 22.6809 27.178 22.6739 27.1964C22.6714 27.2029 22.6682 27.2091 22.6659 27.2156L20.8644 32.319L19.6361 35.7986C19.6199 35.8449 19.6082 35.8919 19.5994 35.9393H16.5242C16.0136 35.9393 15.5995 36.3532 15.5995 36.864C15.5995 37.3748 16.0136 37.7887 16.5242 37.7887H42.1321C42.6428 37.7887 43.0568 37.3748 43.0568 36.864C43.0568 36.3532 42.6428 35.9393 42.1321 35.9393H23.7595L29.3988 33.9486C29.4035 33.9469 29.4079 33.9446 29.4126 33.9428C29.4345 33.9347 29.456 33.9256 29.4773 33.9159C29.4858 33.912 29.4943 33.9083 29.5025 33.9042C29.5247 33.8931 29.5464 33.881 29.5679 33.8679C29.5747 33.8637 29.5819 33.8599 29.5886 33.8556C29.6109 33.8413 29.6326 33.8257 29.6539 33.8092C29.6592 33.8052 29.6647 33.8016 29.6699 33.7974C29.6956 33.7767 29.7208 33.7545 29.7447 33.7306L48.7732 14.7022H56.8026V34.4569L43.5755 47.6841C43.2144 48.0454 43.2144 48.6307 43.5755 48.9919C43.5981 49.0144 43.6216 49.0356 43.6458 49.0554C43.8154 49.1936 44.0224 49.2627 44.2294 49.2627C44.4364 49.2627 44.6436 49.1936 44.813 49.0554C44.8373 49.0357 44.8608 49.0144 44.8833 48.9919C44.8837 48.9915 44.8833 48.9919 44.8837 48.9915L61.151 32.7241V40.8823ZM27.3998 32.6928L24.7511 33.6278L22.9863 31.8631L23.9213 29.2144L27.3998 32.6928Z" fill="#25292F"/>
</g>
<defs>
<clipPath id="clip0_507_8951">
<rect width="63" height="63" fill="white"/>
</clipPath>
</defs>
</svg>
