<svg width="58" height="58" viewBox="0 0 58 58" fill="none" xmlns="http://www.w3.org/2000/svg">
<g clip-path="url(#clip0_507_8966)">
<path d="M49.3 40.6002H32.48L48.2144 24.8696C48.9666 24.1151 48.9666 22.8943 48.2144 22.1397L37.2727 11.1884C36.5121 10.4469 35.2978 10.4507 34.5419 11.1971L19.3333 26.4056V16.1725C19.3303 15.5534 19.1805 14.9439 18.8964 14.3938L12.2264 1.53716C11.7192 0.589881 10.7309 -0.000467699 9.65642 0.00196059C8.5819 0.00438886 7.59631 0.599198 7.0934 1.54876L0.435 14.4035C0.152575 14.9506 0.00352037 15.5568 0 16.1725V49.3002C0.00585893 54.1026 3.89755 57.9943 8.7 58.0002H49.3C54.1049 58.0002 58 54.105 58 49.3002C58 44.4953 54.1049 40.6002 49.3 40.6002ZM35.9136 12.5668L46.8476 23.5027L29.7501 40.6002H8.7C8.40944 40.6004 8.11907 40.6152 7.83 40.6446L10.6188 37.8568L11.1553 38.3923C11.5333 38.7695 12.1455 38.7688 12.5227 38.3909C12.8999 38.0129 12.8992 37.4007 12.5212 37.0235L11.9847 36.488L13.3516 35.1201L14.7204 36.4889C14.9647 36.7331 15.3208 36.8284 15.6544 36.7388C15.988 36.6493 16.2486 36.3886 16.3378 36.0549C16.4271 35.7212 16.3316 35.3653 16.0873 35.1211L14.7194 33.7533L16.0863 32.3864L18.821 35.1211C19.2003 35.4874 19.8032 35.4822 20.1761 35.1093C20.549 34.7365 20.5542 34.1335 20.1879 33.7542L17.4532 31.0195L18.821 29.6527L20.1888 31.0205C20.569 31.3781 21.1644 31.3692 21.5339 31.0006C21.9033 30.6319 21.9134 30.0365 21.5567 29.6556L20.1888 28.2877L21.5567 26.9209L24.2914 29.6556C24.6707 30.0219 25.2736 30.0167 25.6465 29.6438C26.0193 29.2709 26.0246 28.668 25.6582 28.2887L22.9245 25.554L24.2914 24.1871L25.6592 25.554C25.9019 25.8053 26.2613 25.9061 26.5993 25.8176C26.9373 25.7291 27.2012 25.4652 27.2897 25.1272C27.3781 24.7892 27.2774 24.4298 27.0261 24.1871L25.6582 22.8203L27.0261 21.4524L29.7598 24.1871C30.0041 24.4313 30.3602 24.5266 30.6938 24.437C31.0274 24.3475 31.288 24.0868 31.3772 23.7531C31.4665 23.4194 31.371 23.0635 31.1267 22.8193L28.391 20.0856L29.7579 18.7187L31.1267 20.0856C31.506 20.4519 32.1089 20.4467 32.4818 20.0738C32.8546 19.7009 32.8599 19.098 32.4935 18.7187L31.1267 17.3518L32.4935 15.985L35.2273 18.7187C35.6066 19.085 36.2095 19.0798 36.5824 18.7069C36.9552 18.334 36.9605 17.7311 36.5941 17.3518L33.8604 14.6181L35.9136 12.5668ZM5.72847 18.0382L2.19337 15.2068L5.6898 8.46236C8.09763 10.069 11.2357 10.069 13.6435 8.46236L17.14 15.2078L13.6049 18.0382L11.0335 15.4668C10.2786 14.7121 9.05477 14.7121 8.2998 15.4668L5.72847 18.0382ZM14.5 31.239V19.7501C14.6109 19.693 14.7158 19.625 14.8132 19.5471L17.4 17.4756V28.339L14.5 31.239ZM8.80827 2.44776C8.97659 2.13301 9.30368 1.93563 9.6606 1.93341C10.0175 1.9312 10.347 2.1245 10.5193 2.43712L12.7368 6.71269C10.9167 8.07505 8.41658 8.07505 6.59653 6.71269L8.80827 2.44776ZM1.93333 17.4756L4.52013 19.5471C4.61878 19.6147 4.72365 19.6726 4.83333 19.7202V30.9335C4.83333 31.4674 5.26612 31.9002 5.8 31.9002C6.33387 31.9002 6.76667 31.4674 6.76667 30.9335V19.666C6.8853 19.5911 6.99549 19.5036 7.09533 19.405L9.66667 16.8337L12.238 19.405C12.3377 19.5032 12.4479 19.5901 12.5667 19.6641V33.1723L6.76667 38.9723V34.8002C6.76667 34.2663 6.33387 33.8335 5.8 33.8335C5.26612 33.8335 4.83333 34.2663 4.83333 34.8002V40.9056L3.09333 42.6456L3.0682 42.6717C3.06345 42.6785 3.05924 42.6856 3.05563 42.693C2.64702 43.0415 2.27134 43.4269 1.93333 43.8443V17.4756ZM49.3 56.0668H8.7C4.96287 56.0668 1.93333 53.0373 1.93333 49.3002C1.93333 45.563 4.96287 42.5335 8.7 42.5335H49.3C53.0371 42.5335 56.0667 45.563 56.0667 49.3002C56.0667 53.0373 53.0371 56.0668 49.3 56.0668Z" fill="#25292F"/>
<path d="M8.70003 44.4668C6.03066 44.4668 3.8667 46.6308 3.8667 49.3001C3.8667 51.9695 6.03066 54.1335 8.70003 54.1335C11.3694 54.1335 13.5334 51.9695 13.5334 49.3001C13.5302 46.6321 11.3681 44.47 8.70003 44.4668ZM8.70003 52.2001C7.09841 52.2001 5.80003 50.9018 5.80003 49.3001C5.80003 47.6985 7.09841 46.4001 8.70003 46.4001C10.3017 46.4001 11.6 47.6985 11.6 49.3001C11.6 50.9018 10.3017 52.2001 8.70003 52.2001Z" fill="#25292F"/>
<path d="M49.2999 44.4668C46.6305 44.4668 44.4666 46.6308 44.4666 49.3001C44.4666 51.9695 46.6305 54.1335 49.2999 54.1335C51.9693 54.1335 54.1332 51.9695 54.1332 49.3001C54.13 46.6321 51.9679 44.47 49.2999 44.4668ZM49.2999 52.2001C47.6983 52.2001 46.3999 50.9018 46.3999 49.3001C46.3999 47.6985 47.6983 46.4001 49.2999 46.4001C50.9015 46.4001 52.1999 47.6985 52.1999 49.3001C52.1999 50.9018 50.9015 52.2001 49.2999 52.2001Z" fill="#25292F"/>
</g>
<defs>
<clipPath id="clip0_507_8966">
<rect width="58" height="58" fill="white"/>
</clipPath>
</defs>
</svg>
