<svg width="156" height="76" viewBox="0 0 156 76" fill="none" xmlns="http://www.w3.org/2000/svg">
<g clip-path="url(#clip0_268_1663)">
<path d="M148.111 38.8025C146.977 37.5523 145.843 36.3021 144.708 35.177C144.078 34.5519 143.574 33.9268 142.944 33.3017L139.037 29.3011V23.6753H133.492L126.561 16.6742C126.435 16.5492 126.309 16.5492 126.183 16.5492C126.057 16.5492 125.931 16.6742 125.805 16.6742L119.629 22.8001C118.999 23.4252 118.243 24.1753 117.613 24.8004C116.353 26.0506 115.093 27.3008 113.958 28.551L108.287 34.4269C107.657 35.052 107.027 35.8021 106.397 36.4272C106.271 36.5522 106.271 36.6772 106.145 36.6772L96.0628 24.5504V10.5483H84.4686L76.403 0.796875L47.4173 35.8021C47.1653 35.552 46.9132 35.302 46.6612 35.052C46.031 34.4269 45.5269 33.8018 44.8968 33.1767L39.6038 27.6759C38.2175 26.3007 36.8312 24.8004 35.445 23.4252L28.5136 16.4242C28.3876 16.2992 28.2616 16.2992 28.1355 16.2992C28.0095 16.2992 27.8835 16.4242 27.7575 16.4242L21.5823 22.5501C21.0782 23.1752 20.448 23.6753 19.8179 24.3004L20.5741 23.4252H13.6427V30.5513L10.114 34.1768C9.48388 34.8019 8.85376 35.552 8.22364 36.1771C6.96339 37.4273 5.82917 38.8025 4.56892 40.0527C4.31687 40.3027 4.31687 40.6778 4.56892 40.8028C4.69494 40.9278 4.82097 40.9278 4.94699 40.9278C5.07302 40.9278 5.19904 40.9278 5.32507 40.8028C6.58531 39.6776 7.97159 38.4275 9.23183 37.1773C9.86196 36.5522 10.6181 35.9271 11.2482 35.302L17.1714 29.6762C18.4316 28.426 19.6919 27.3008 20.9521 26.0506C21.5823 25.4255 22.3384 24.6754 22.9685 24.0503L27.8835 19.1746L33.6806 24.8004C35.0669 26.1756 36.4532 27.5508 37.9655 28.9261L43.5105 34.1768C44.1407 34.8019 44.7708 35.302 45.4009 35.9271C45.653 36.1771 46.031 36.4272 46.2831 36.6772L42.7544 40.9278H71.488L68.8415 26.4257L80.4358 26.9258L78.4194 41.1779H103.12H109.926L107.153 37.8024C107.279 37.6773 107.405 37.5523 107.531 37.4273C108.161 36.8022 108.917 36.1771 109.547 35.552L115.471 29.9262C116.731 28.676 117.991 27.5508 119.251 26.3007C119.882 25.6756 120.638 24.9255 121.268 24.3004L126.183 19.4246L131.98 25.0505C133.366 26.4257 134.752 27.8009 136.265 29.1761L141.81 34.4269C142.44 35.052 143.07 35.552 143.7 36.1771C144.96 37.3023 146.095 38.4275 147.355 39.5526C147.607 39.8027 147.985 39.8027 148.111 39.5526C148.363 39.3026 148.363 38.9275 148.111 38.8025Z" fill="white" fill-opacity="0.58"/>
<path d="M20.196 70.8073C19.3139 72.3075 18.0536 73.3077 16.5413 74.1828C15.029 74.9329 13.2647 75.308 11.3743 75.308C9.10586 75.308 7.08947 74.9329 5.45114 74.0578C3.81282 73.1826 2.55258 72.0575 1.6704 70.4322C0.78823 68.807 0.410156 66.9317 0.410156 64.8064C0.410156 62.5561 0.914255 60.5558 1.92245 58.8055C2.6786 57.0552 4.06487 55.68 5.82922 54.8049C7.46754 53.8048 9.48394 53.3047 11.7524 53.3047C13.7688 53.3047 15.4071 53.6797 16.7934 54.4299C18.1796 55.18 19.3139 56.1801 20.196 57.6803L16.4153 60.3057C15.9112 59.4306 15.2811 58.6805 14.3989 58.3054C13.5167 57.9304 12.6346 57.6803 11.6264 57.6803C10.3661 57.6803 9.23189 57.9304 8.34971 58.5555C7.34152 59.1806 6.71139 59.9307 6.08127 60.9308C5.45114 61.931 5.32512 63.3062 5.32512 64.6814C5.32512 66.6817 5.82922 68.1819 6.83742 69.3071C7.84561 70.4322 9.35791 70.9323 11.2483 70.9323C12.2565 70.9323 13.2647 70.6823 14.1468 70.1822C15.029 69.6821 15.7852 68.932 16.4153 67.9319L20.196 70.8073Z" fill="white" fill-opacity="0.58"/>
<path d="M19.062 74.9328L28.3878 53.6797H32.5467L41.4944 74.9328H36.4534L34.6891 70.5572H25.8673L24.103 74.9328H19.062ZM27.5057 66.5566H33.0508L30.2782 59.6806L27.5057 66.5566Z" fill="white" fill-opacity="0.58"/>
<path d="M60.7758 70.3072L61.9101 74.0578C61.406 74.4328 60.9019 74.6829 60.1457 74.8079C59.3896 75.0579 58.7594 75.0579 58.0033 75.0579C56.743 75.0579 55.4828 74.8079 54.6006 74.3078C53.5924 73.8077 52.8363 73.0576 52.2062 71.9324L49.6857 67.8068C49.4336 67.3068 49.0555 66.9317 48.8035 66.8067C48.5514 66.5566 48.1734 66.5566 47.7953 66.4316V74.6829H43.0063V53.4297H50.0637C53.0883 53.4297 55.2307 54.0548 56.743 55.18C58.2553 56.3051 59.0115 57.9304 59.0115 60.0557C59.0115 61.6809 58.5074 63.0561 57.4992 64.0563C56.491 65.0564 55.2307 65.8065 53.5924 66.0566C54.2225 66.4316 54.8527 66.9317 55.3568 67.6818L56.365 69.182C56.9951 70.1822 57.8773 70.6823 58.8855 70.6823C59.2635 70.6823 59.6416 70.6823 60.0197 70.5572C60.3978 70.4322 60.5238 70.5572 60.7758 70.3072ZM49.6857 57.6803H47.7953V62.9311H49.6857C51.198 62.9311 52.3322 62.6811 52.9623 62.306C53.5924 61.931 53.9705 61.1808 53.9705 60.3057C53.9705 59.4306 53.5924 58.6805 52.8363 58.3054C52.0801 57.8053 50.9459 57.6803 49.6857 57.6803Z" fill="white" fill-opacity="0.58"/>
<path d="M62.9185 74.9328V53.6797H67.8334V70.6822H77.1592L76.9072 74.9328H62.9185Z" fill="white" fill-opacity="0.58"/>
<path d="M85.7289 75.1829C83.0824 75.1829 81.066 74.6829 79.5537 73.5577C78.0414 72.4325 77.2853 70.8073 77.0332 68.557L81.6961 67.9319C81.8221 68.932 82.2002 69.8071 82.9564 70.3072C83.7125 70.8073 84.5947 71.1823 85.8549 71.1823C86.8631 71.1823 87.7453 71.0573 88.3754 70.6823C89.0055 70.3072 89.2576 69.8071 89.2576 69.057C89.2576 68.4319 89.0055 67.9319 88.3754 67.5568C87.7453 67.1817 86.7371 66.8067 85.3508 66.5567C83.8385 66.1816 82.5783 65.8065 81.5701 65.3065C80.5619 64.8064 79.8057 64.1813 79.3016 63.3062C78.7975 62.431 78.4195 61.3059 78.4195 60.0557C78.4195 58.6805 78.7975 57.5553 79.4277 56.5552C80.0578 55.555 81.066 54.6799 82.3262 54.1798C83.5865 53.5547 84.9728 53.3047 86.6111 53.3047C88.7535 53.3047 90.3918 53.8048 91.7781 54.9299C93.1644 55.9301 93.9205 57.4303 94.0465 59.3056L89.7617 60.0557C89.6357 59.1806 89.2576 58.5555 88.6275 58.1804C87.9973 57.6803 87.3672 57.5553 86.359 57.5553C85.3508 57.5553 84.7207 57.8054 84.2166 58.1804C83.7125 58.5555 83.4605 59.1806 83.4605 59.8057C83.4605 60.4307 83.7125 60.9308 84.2166 61.3059C84.7207 61.6809 85.7289 62.056 87.1152 62.431C88.6275 62.8061 89.8877 63.1812 90.8959 63.6812C91.9041 64.1813 92.7863 64.8064 93.4164 65.5565C94.0465 66.3066 94.2986 67.4318 94.2986 68.682C94.2986 69.9322 93.9205 71.1823 93.2904 72.1825C92.5342 73.1826 91.6521 73.9327 90.2658 74.5578C88.8795 74.9329 87.3672 75.1829 85.7289 75.1829Z" fill="white" fill-opacity="0.58"/>
<path d="M113.203 53.6797L112.572 57.9303H106.145V74.9328H101.104V57.9303H94.2988V53.6797H113.203Z" fill="white" fill-opacity="0.58"/>
<path d="M123.41 75.183C121.142 75.183 119.252 74.8079 117.613 73.9328C115.975 73.0576 114.715 71.9325 113.833 70.3072C112.95 68.682 112.572 66.8067 112.572 64.5564C112.572 62.306 113.076 60.4308 113.959 58.6805C114.841 56.9302 116.227 55.6801 117.865 54.6799C119.504 53.6798 121.52 53.1797 123.788 53.1797C125.805 53.1797 127.569 53.6798 129.081 54.5549C130.594 55.43 131.854 56.6802 132.61 58.1804C133.492 59.8057 133.87 61.5559 133.87 63.6812C133.87 65.9316 133.366 67.9319 132.484 69.6821C131.602 71.4324 130.342 72.6826 128.703 73.6827C127.065 74.6829 125.427 75.183 123.41 75.183ZM123.158 70.9323C124.923 70.9323 126.309 70.3072 127.317 69.057C128.325 67.8069 128.955 66.1816 128.955 63.9313C128.955 62.056 128.451 60.5558 127.443 59.4306C126.435 58.3054 125.175 57.6804 123.536 57.6804C122.402 57.6804 121.268 57.9304 120.386 58.5555C119.504 59.1806 118.747 59.9307 118.243 60.9308C117.739 61.931 117.487 63.1812 117.487 64.5564C117.487 66.5567 117.991 68.0569 119 69.1821C120.008 70.3072 121.394 70.9323 123.158 70.9323Z" fill="white" fill-opacity="0.58"/>
<path d="M151.01 53.6797H155.799V74.9328H151.388L141.81 61.6809V74.9328H137.021V53.6797H141.432L151.01 66.9317V53.6797Z" fill="white" fill-opacity="0.58"/>
</g>
<defs>
<clipPath id="clip0_268_1663">
<rect width="155.514" height="74.386" fill="white" transform="translate(0.28418 0.796875)"/>
</clipPath>
</defs>
</svg>
