<svg width="233" height="51" viewBox="0 0 233 51" fill="none" xmlns="http://www.w3.org/2000/svg">
<g clip-path="url(#clip0_268_1697)">
<path d="M33.7396 12.6665C33.1523 11.6199 32.2713 10.5734 31.3903 9.67628C28.6006 6.83555 24.7831 5.19092 20.672 5.19092C16.5608 5.19092 12.8902 6.83555 9.95363 9.67628C7.16392 12.517 5.54883 16.4043 5.54883 20.5907C5.54883 24.777 7.16392 28.5148 9.95363 31.5051C10.8346 32.4021 11.8624 33.2992 12.8902 33.8973C11.8624 28.2158 13.6243 22.2353 17.8823 17.8995C22.2871 13.2646 28.1601 11.6199 33.7396 12.6665Z" fill="white" fill-opacity="0.58"/>
<path d="M43.2832 43.4662C52.9738 33.5984 52.9738 17.4511 43.2832 7.5833C33.5926 -2.43402 17.7353 -2.43402 8.04478 7.5833C15.0925 0.406714 26.3981 0.406714 33.4458 7.5833C40.4935 14.7599 40.4935 26.2723 33.4458 33.4489C26.3981 40.476 14.9456 40.476 8.04478 33.2994C0.997095 26.2723 0.997095 14.6104 8.04478 7.5833C-1.64579 17.4511 -1.64579 33.5984 8.04478 43.4662C17.7353 53.4835 33.5926 53.4835 43.2832 43.4662Z" fill="white" fill-opacity="0.58"/>
<path d="M75.5853 17.3017C73.0893 17.3017 71.7678 18.1987 71.7678 19.8434C71.7678 20.5909 72.0615 21.189 72.6488 21.6375C73.2361 22.0861 74.7044 22.6841 77.0536 23.4317C79.4028 24.1792 81.0179 25.0763 81.8989 25.9734C82.7799 26.8705 83.3672 28.3656 83.3672 30.4587C83.3672 33.0005 82.633 34.9441 81.0179 36.2897C79.4028 37.6353 77.4941 38.2334 74.998 38.2334C73.2361 38.2334 70.8869 37.9344 68.244 37.3363L66.9226 37.0373L67.363 33.15C70.4464 33.5985 72.9425 33.748 74.5576 33.748C77.0536 33.748 78.2282 32.7014 78.2282 30.6083C78.2282 29.8607 77.9346 29.2626 77.3473 28.8141C76.76 28.3656 75.5853 27.917 73.9703 27.4685C71.1805 26.7209 69.2718 25.6744 68.244 24.6278C67.0694 23.5812 66.6289 22.0861 66.6289 20.1424C66.6289 17.7502 67.363 15.9561 68.8313 14.76C70.2996 13.5639 72.3552 12.9658 74.8512 12.9658C76.6131 12.9658 78.8155 13.2648 81.4584 13.7134L82.7799 14.0124L82.3394 17.8997C79.4028 17.4512 77.0536 17.3017 75.5853 17.3017Z" fill="white" fill-opacity="0.58"/>
<path d="M87.0376 17.6004V12.6665H91.7361V17.6004H87.0376ZM87.0376 37.7846V19.8431H91.7361V37.7846H87.0376Z" fill="white" fill-opacity="0.58"/>
<path d="M100.84 37.7845H96.1411V19.8431H100.84V20.8897C102.455 19.9926 103.776 19.3945 104.951 19.3945C106.859 19.3945 108.328 19.9926 109.356 21.0392C111.558 19.8431 113.467 19.3945 115.229 19.3945C117.578 19.3945 119.193 20.1421 120.074 21.4877C120.955 22.8333 121.395 25.076 121.395 28.0662V37.7845H116.697V28.2157C116.697 26.7206 116.55 25.5245 116.256 24.777C115.963 24.0294 115.229 23.7304 114.348 23.7304C113.613 23.7304 112.733 23.8799 111.558 24.1789L110.971 24.3284C111.117 26.1226 111.117 27.4682 111.117 28.3653V37.635H106.419V28.3653C106.419 26.5711 106.272 25.375 105.979 24.6275C105.685 23.8799 104.951 23.5809 103.923 23.5809C103.042 23.5809 102.161 23.7304 101.28 24.0294L100.84 24.1789V37.7845Z" fill="white" fill-opacity="0.58"/>
<path d="M125.653 45.41V19.993H130.352V20.89C131.82 19.993 133.288 19.5444 134.316 19.5444C136.665 19.5444 138.427 20.292 139.602 21.7871C140.776 23.2822 141.364 25.6744 141.364 29.1132C141.364 32.552 140.776 34.9442 139.455 36.2898C138.28 37.6354 136.225 38.383 133.288 38.383C132.554 38.383 131.673 38.383 130.792 38.2335H130.352V45.5596H125.653V45.41ZM133.435 23.7308C132.554 23.7308 131.673 23.8803 130.792 24.3288L130.352 24.4783V33.8976C131.38 34.0471 132.261 34.0471 132.995 34.0471C134.316 34.0471 135.344 33.5986 135.784 32.851C136.225 32.1035 136.519 30.6083 136.519 28.6647C136.519 25.3754 135.491 23.7308 133.435 23.7308Z" fill="white" fill-opacity="0.58"/>
<path d="M145.034 37.7846V12.6665H149.733V37.7846H145.034Z" fill="white" fill-opacity="0.58"/>
<path d="M159.13 33.2996C159.717 33.7481 160.451 34.0471 161.479 34.0471C163.681 34.0471 165.59 34.0471 167.352 33.8976L168.38 33.7481V37.3364C165.737 37.9344 163.241 38.383 161.038 38.383C158.396 38.383 156.487 37.6354 155.312 36.2898C154.138 34.7947 153.55 32.552 153.55 29.2627C153.55 22.8337 156.193 19.5444 161.332 19.5444C166.471 19.5444 168.967 22.2357 168.967 27.6181L168.673 30.9074H158.249C158.249 32.1035 158.542 32.851 159.13 33.2996ZM164.269 27.3191C164.269 25.8239 163.975 24.9269 163.535 24.3288C163.094 23.7308 162.36 23.4318 161.185 23.4318C160.011 23.4318 159.277 23.7308 158.836 24.3288C158.396 24.9269 158.102 25.9735 158.102 27.3191H164.269Z" fill="white" fill-opacity="0.58"/>
<path d="M194.074 37.7845H180.419V13.4141H185.265V33.4487H194.074V37.7845Z" fill="white" fill-opacity="0.58"/>
<path d="M196.717 17.6004V12.6665H201.416V17.6004H196.717ZM196.717 37.7846V19.8431H201.416V37.7846H196.717Z" fill="white" fill-opacity="0.58"/>
<path d="M211.4 24.0296V37.9343H206.702V24.0296H204.793V19.9928H206.702V19.2452C206.702 16.7035 207.142 14.9094 207.876 13.8628C208.61 12.8162 209.932 12.3677 211.841 12.3677C212.722 12.3677 213.749 12.5172 215.071 12.6667L215.805 12.8162V16.7035C214.777 16.7035 213.896 16.7035 213.162 16.7035C212.428 16.7035 211.987 16.853 211.694 17.3016C211.4 17.7501 211.4 18.3482 211.4 19.2452V19.9928H215.658V24.0296H211.4Z" fill="white" fill-opacity="0.58"/>
<path d="M222.999 33.2996C223.587 33.7481 224.321 34.0471 225.349 34.0471C227.551 34.0471 229.46 34.0471 231.222 33.8976L232.249 33.7481V37.3364C229.607 37.9344 227.11 38.383 224.908 38.383C222.265 38.383 220.356 37.6354 219.182 36.2898C218.007 34.7947 217.42 32.552 217.42 29.2627C217.42 22.8337 220.063 19.5444 225.202 19.5444C230.341 19.5444 232.837 22.2357 232.837 27.6181L232.543 30.9074H222.118C222.118 32.1035 222.412 32.851 222.999 33.2996ZM228.138 27.3191C228.138 25.8239 227.845 24.9269 227.404 24.3288C226.964 23.7308 226.23 23.4318 225.055 23.4318C223.88 23.4318 223.146 23.7308 222.706 24.3288C222.265 24.9269 221.972 25.9735 221.972 27.3191H228.138Z" fill="white" fill-opacity="0.58"/>
</g>
<defs>
<clipPath id="clip0_268_1697">
<rect width="232.133" height="50.8341" fill="white" transform="translate(0.703613 0.10791)"/>
</clipPath>
</defs>
</svg>
