<svg width="241" height="50" viewBox="0 0 241 50" fill="none" xmlns="http://www.w3.org/2000/svg">
<g clip-path="url(#clip0_268_1674)">
<path d="M61.6826 48.8649L41.9752 14.3481L29.6777 36.0178L37.0877 48.8649H61.6826Z" fill="white" fill-opacity="0.58"/>
<path d="M34.5651 48.8646L28.4164 38.1846L22.4253 48.8646H34.5651Z" fill="white" fill-opacity="0.58"/>
<path d="M27.7857 0.10791L0.195312 48.8647H19.5874L37.403 16.9793L27.7857 0.10791Z" fill="white" fill-opacity="0.58"/>
<path d="M93.3722 26.2665V48.8649H84.0703V17.9082H96.0524C99.6786 17.9082 102.516 18.8369 104.566 20.5395C106.773 22.5517 107.877 25.0282 107.877 28.1239C107.877 31.2196 106.458 33.8509 103.62 36.0179L108.981 48.7101H99.2056L94.7912 38.9588V31.0648H95.5795C97.629 31.0648 98.575 30.2909 98.575 28.5883C98.575 27.1952 97.4714 26.4213 95.1065 26.4213H93.3722V26.2665Z" fill="white" fill-opacity="0.58"/>
<path d="M127.269 17.1343C131.683 17.1343 135.625 18.6821 138.778 21.9326C141.931 25.183 143.508 28.8978 143.508 33.3865C143.508 37.8753 141.931 41.7448 138.62 44.8405C135.31 47.9362 131.526 49.6388 126.954 49.6388C122.382 49.6388 118.44 48.091 115.287 44.8405C112.134 41.5901 110.399 37.8753 110.399 33.3865C110.399 28.8978 111.976 25.0282 115.287 21.9326C118.598 18.8369 122.539 17.1343 127.269 17.1343ZM126.954 26.2665C125.062 26.2665 123.328 26.8856 122.066 28.2787C120.805 29.6717 120.017 31.3744 120.017 33.3865C120.017 35.3987 120.647 37.1013 122.066 38.4944C123.485 39.8874 125.062 40.5066 126.954 40.5066C128.846 40.5066 130.58 39.8874 131.841 38.4944C133.26 37.1013 133.891 35.3987 133.891 33.3865C133.891 31.3744 133.26 29.6717 131.841 28.2787C130.422 26.8856 128.846 26.2665 126.954 26.2665Z" fill="white" fill-opacity="0.58"/>
<path d="M157.224 17.9082V48.8649H147.922V17.9082H157.224ZM175.197 17.9082L166.842 31.9935L175.04 48.8649H164.477L157.382 31.8387L165.423 17.9082H175.197Z" fill="white" fill-opacity="0.58"/>
<path d="M187.81 17.9082V48.8649H178.351V17.9082H187.81ZM205.783 17.9082L197.427 31.9935L205.626 48.8649H195.062L187.968 31.8387L196.008 17.9082H205.783Z" fill="white" fill-opacity="0.58"/>
<path d="M223.914 17.1343C228.329 17.1343 232.27 18.6821 235.424 21.9326C238.577 25.183 240.153 28.8978 240.153 33.3865C240.153 37.8753 238.577 41.7448 235.266 44.8405C231.955 47.9362 228.171 49.6388 223.599 49.6388C219.027 49.6388 215.086 48.091 211.932 44.8405C208.779 41.5901 207.045 37.8753 207.045 33.3865C207.045 28.8978 208.622 25.0282 211.932 21.9326C215.243 18.8369 219.185 17.1343 223.914 17.1343ZM223.599 26.2665C221.707 26.2665 219.973 26.8856 218.712 28.2787C217.45 29.6717 216.662 31.3744 216.662 33.3865C216.662 35.3987 217.293 37.1013 218.712 38.4944C220.131 39.8874 221.707 40.5066 223.599 40.5066C225.491 40.5066 227.225 39.8874 228.487 38.4944C229.906 37.1013 230.536 35.3987 230.536 33.3865C230.536 31.3744 229.906 29.6717 228.487 28.2787C227.068 26.8856 225.491 26.2665 223.599 26.2665Z" fill="white" fill-opacity="0.58"/>
</g>
<defs>
<clipPath id="clip0_268_1674">
<rect width="239.958" height="49.5307" fill="white" transform="translate(0.195312 0.10791)"/>
</clipPath>
</defs>
</svg>
