<svg width="130" height="75" viewBox="0 0 130 75" fill="none" xmlns="http://www.w3.org/2000/svg">
<g clip-path="url(#clip0_268_1686)">
<path d="M76.6383 0.376465L70.8401 6.18085L65.0418 0.376465L62.4648 2.95619L81.0192 21.6592L70.8401 31.8491L67.7477 28.7534L74.8344 21.6592L53.4453 0.376465L32.1851 21.6592L53.4453 42.9419L59.2436 37.1375L65.0418 42.9419L67.7477 40.2332L49.0644 21.6592L59.2436 11.4693L62.336 14.5649L55.2492 21.6592L76.5095 42.9419L97.7697 21.6592L76.6383 0.376465ZM43.7816 21.6592L56.6666 34.5578L53.4453 37.7825L37.4679 21.6592L53.4453 5.6649L56.5377 8.76057L43.7816 21.6592ZM60.6609 21.6592L65.1707 17.1447L69.6804 21.6592L65.0418 26.1737L60.6609 21.6592ZM73.5459 34.5578L86.4309 21.6592L73.5459 8.76057L76.6383 5.6649L92.6157 21.6592L76.6383 37.7825L73.5459 34.5578Z" fill="white" fill-opacity="0.58"/>
<path d="M13.6307 67.4496C14.1461 68.0945 14.4038 68.9974 14.4038 70.0293C14.4038 71.4482 13.8884 72.4801 12.8576 73.254C11.8268 74.0279 10.4094 74.4149 8.73436 74.4149H0.874512V58.1626H8.47666C10.1517 58.1626 11.5691 58.5496 12.471 59.3235C13.5018 60.0974 14.0172 61.1293 14.0172 62.4191C14.0172 63.322 13.7595 63.967 13.373 64.6119C12.8576 65.2568 12.3422 65.7728 11.4402 66.0308C12.3422 66.2887 13.1153 66.8047 13.6307 67.4496ZM4.35346 64.7409H7.70356C8.60551 64.7409 9.37861 64.6119 9.76516 64.225C10.1517 63.967 10.4094 63.451 10.4094 62.8061C10.4094 62.1612 10.1517 61.6452 9.76516 61.2583C9.37861 61.0003 8.60551 60.7423 7.70356 60.7423H4.35346V64.7409ZM10.2806 71.1902C10.6671 70.8032 10.9248 70.2873 10.9248 69.6424C10.9248 68.8685 10.6671 68.3525 10.2806 68.0945C9.89402 67.8366 9.12091 67.5786 8.21896 67.5786H4.35346V71.7062H8.21896C9.24976 71.7062 9.89402 71.5772 10.2806 71.1902Z" fill="white" fill-opacity="0.58"/>
<path d="M29.3502 74.5438L27.804 70.9322H20.2019L18.6557 74.5438H15.0479L22.5212 58.1626H25.3559L32.8292 74.5438H29.3502ZM21.3615 68.0945H26.6444L24.0674 61.9032L21.3615 68.0945Z" fill="white" fill-opacity="0.58"/>
<path d="M35.9216 72.8666C34.7619 71.7057 34.1177 69.8999 34.1177 67.7072V58.0332H37.7255V67.8362C37.7255 69.126 37.9832 70.1579 38.6274 70.8028C39.2717 71.4478 40.0448 71.8347 41.2044 71.8347C42.3641 71.8347 43.1372 71.4478 43.7814 70.8028C44.4257 70.1579 44.6834 69.126 44.6834 67.8362V58.0332H48.2912V67.7072C48.2912 70.0289 47.6469 71.7057 46.4873 72.8666C45.3276 74.0275 43.5237 74.6724 41.2044 74.6724C38.7563 74.6724 37.0812 74.1565 35.9216 72.8666Z" fill="white" fill-opacity="0.58"/>
<path d="M62.336 58.1626H65.9438V74.5438H62.336V67.7076H54.8627V74.5438H51.2549V58.1626H54.8627V64.7409H62.336V58.1626Z" fill="white" fill-opacity="0.58"/>
<path d="M81.6637 74.5438L80.1175 70.9322H72.5153L70.9691 74.5438H67.3613L74.8346 58.1626H77.7982L85.2715 74.5438H81.6637ZM73.675 68.0945H78.9578L76.3808 61.9032L73.675 68.0945Z" fill="white" fill-opacity="0.58"/>
<path d="M88.2351 72.8666C87.0754 71.7057 86.4312 69.8999 86.4312 67.7072V58.0332H90.039V67.8362C90.039 69.126 90.2967 70.1579 90.9409 70.8028C91.5852 71.4478 92.3583 71.8347 93.5179 71.8347C94.6776 71.8347 95.4507 71.4478 96.0949 70.8028C96.7392 70.1579 96.9969 69.126 96.9969 67.8362V58.0332H100.605V67.7072C100.605 70.0289 99.9604 71.7057 98.8008 72.8666C97.6411 74.0275 95.8372 74.6724 93.5179 74.6724C91.0698 74.6724 89.3947 74.1565 88.2351 72.8666Z" fill="white" fill-opacity="0.58"/>
<path d="M105.759 74.1567C104.599 73.7698 103.697 73.3828 102.924 72.7379L104.083 70.1581C105.63 71.319 107.434 71.835 109.366 71.835C110.397 71.835 111.17 71.706 111.686 71.319C112.201 70.9321 112.459 70.5451 112.459 69.9002C112.459 69.3842 112.201 68.9973 111.686 68.6103C111.17 68.3523 110.268 68.0944 108.98 67.7074C107.562 67.4494 106.403 67.0625 105.501 66.6755C104.599 66.2886 103.955 65.7726 103.568 65.1277C103.182 64.4828 102.924 63.7088 102.924 62.8059C102.924 61.774 103.182 60.8711 103.697 60.0972C104.212 59.3233 104.985 58.6784 106.016 58.2914C107.047 57.9045 108.207 57.6465 109.495 57.6465C110.655 57.6465 111.814 57.7755 112.845 58.1624C113.876 58.5494 114.778 58.9363 115.422 59.5813L114.263 62.161C112.716 61.0001 111.17 60.4842 109.495 60.4842C108.593 60.4842 107.82 60.6132 107.305 61.0001C106.789 61.3871 106.532 61.903 106.532 62.548C106.532 62.9349 106.66 63.1929 106.789 63.4509C106.918 63.7088 107.305 63.9668 107.82 64.0958C108.336 64.2248 108.98 64.4828 109.882 64.6117C111.943 65.1277 113.49 65.6436 114.391 66.4175C115.293 67.1915 115.809 68.0944 115.809 69.3842C115.809 70.9321 115.165 72.0929 114.005 72.9958C112.845 73.8987 111.17 74.2857 108.98 74.2857C108.078 74.6727 106.918 74.5437 105.759 74.1567Z" fill="white" fill-opacity="0.58"/>
<path d="M118.772 74.5438V58.1626H129.982V61.0003H122.251V64.8699H129.596V67.7076H122.251V71.8351H129.982V74.6728H118.772V74.5438Z" fill="white" fill-opacity="0.58"/>
</g>
<defs>
<clipPath id="clip0_268_1686">
<rect width="129.108" height="74.2961" fill="white" transform="translate(0.874512 0.376465)"/>
</clipPath>
</defs>
</svg>
