<svg width="70" height="70" viewBox="0 0 70 70" fill="none" xmlns="http://www.w3.org/2000/svg">
<path d="M35 0C28.0777 0 21.3108 2.05271 15.5551 5.89856C9.79934 9.74441 5.3133 15.2107 2.66423 21.6061C0.015165 28.0015 -0.677952 35.0388 0.672531 41.8282C2.02301 48.6175 5.35644 54.8539 10.2513 59.7487C15.1461 64.6436 21.3825 67.977 28.1719 69.3275C34.9612 70.678 41.9985 69.9848 48.3939 67.3358C54.7893 64.6867 60.2556 60.2007 64.1014 54.445C67.9473 48.6892 70 41.9223 70 35C69.9894 25.7207 66.2985 16.8245 59.737 10.263C53.1756 3.70151 44.2793 0.0106143 35 0V0ZM35 67.0833C28.6545 67.0833 22.4515 65.2017 17.1755 61.6763C11.8994 58.151 7.78719 53.1402 5.35888 47.2778C2.93057 41.4153 2.29521 34.9644 3.53315 28.7409C4.7711 22.5173 7.82674 16.8006 12.3137 12.3137C16.8006 7.82672 22.5173 4.77108 28.7409 3.53314C34.9644 2.2952 41.4153 2.93055 47.2778 5.35886C53.1402 7.78718 58.151 11.8994 61.6763 17.1755C65.2017 22.4515 67.0833 28.6545 67.0833 35C67.0737 43.5061 63.6905 51.661 57.6757 57.6757C51.661 63.6904 43.5061 67.0737 35 67.0833Z" fill="#B19777"/>
<path d="M20.417 17.5H26.2503V29.1667H20.417V17.5Z" fill="#B19777"/>
<path d="M43.75 17.5H49.5833V29.1667H43.75V17.5Z" fill="#B19777"/>
<path d="M16.042 39.3748C16.042 44.4029 18.0394 49.225 21.5948 52.7804C25.1501 56.3358 29.9723 58.3332 35.0003 58.3332C40.0284 58.3332 44.8505 56.3358 48.4059 52.7804C51.9613 49.225 53.9587 44.4029 53.9587 39.3748V37.9165H16.042V39.3748ZM50.9765 40.8332C50.6124 44.8187 48.7718 48.5243 45.816 51.2224C42.8601 53.9206 39.0025 55.4165 35.0003 55.4165C30.9982 55.4165 27.1406 53.9206 24.1847 51.2224C21.2288 48.5243 19.3882 44.8187 19.0242 40.8332H50.9765Z" fill="#B19777"/>
</svg>
