<svg width="75" height="75" viewBox="0 0 75 75" fill="none" xmlns="http://www.w3.org/2000/svg">
<g clip-path="url(#clip0_268_993)">
<path d="M46.0846 7.25673C45.5386 6.98904 44.8792 7.21461 44.6116 7.76042C44.3441 8.30624 44.5695 8.96565 45.1155 9.23334C49.2601 11.2657 52.3204 14.9771 53.5114 19.4158C53.6692 20.0034 54.2734 20.3513 54.8599 20.1936C55.4471 20.0362 55.7953 19.4324 55.6378 18.8452C54.2817 13.7926 50.7998 9.5687 46.0846 7.25673Z" fill="#B19777"/>
<path d="M10.3092 23.3224C10.3092 22.7145 9.81656 22.2217 9.20852 22.2217H5.42202C4.81397 22.2217 4.32129 22.7145 4.32129 23.3224C4.32129 23.9303 4.81397 24.4231 5.42202 24.4231H9.20852C9.81641 24.4231 10.3092 23.9303 10.3092 23.3224Z" fill="#B19777"/>
<path d="M11.0704 15.3793L7.53016 14.0357C6.96218 13.8202 6.32625 14.1058 6.11051 14.6743C5.89477 15.2427 6.18067 15.8783 6.74908 16.0939L10.2893 17.4375C10.8585 17.6533 11.4935 17.3668 11.709 16.7989C11.9247 16.2307 11.6388 15.595 11.0704 15.3793Z" fill="#B19777"/>
<path d="M10.2893 29.2066L6.74902 30.5502C6.18061 30.7659 5.89486 31.4016 6.11045 31.9699C6.3259 32.538 6.96109 32.8242 7.5301 32.6084L11.0703 31.2648C11.6387 31.0491 11.9245 30.4134 11.7089 29.8452C11.4933 29.2767 10.8575 28.9911 10.2893 29.2066Z" fill="#B19777"/>
<path d="M69.5778 22.2217H65.7912C65.1831 22.2217 64.6904 22.7145 64.6904 23.3224C64.6904 23.9303 65.1831 24.4231 65.7912 24.4231H69.5778C70.1859 24.4231 70.6785 23.9303 70.6785 23.3224C70.6785 22.7145 70.1857 22.2217 69.5778 22.2217Z" fill="#B19777"/>
<path d="M64.7108 17.438L68.251 16.0944C68.8194 15.8787 69.1052 15.243 68.8896 14.6748C68.674 14.1062 68.038 13.8207 67.4699 14.0362L63.9297 15.3798C63.3613 15.5956 63.0755 16.2312 63.2911 16.7995C63.5066 17.3674 64.1418 17.6536 64.7108 17.438Z" fill="#B19777"/>
<path d="M68.2506 30.5502L64.7103 29.2066C64.1422 28.9911 63.5063 29.2767 63.2907 29.8452C63.0749 30.4136 63.3608 31.0492 63.9293 31.2648L67.4695 32.6084C68.0386 32.8242 68.6737 32.5377 68.8891 31.9699C69.1047 31.4016 68.819 30.7659 68.2506 30.5502Z" fill="#B19777"/>
<path d="M39.9463 2.19489C49.887 3.30193 57.7816 10.9954 59.1447 20.9039C59.2272 21.504 59.7801 21.9271 60.3852 21.8443C60.9875 21.7616 61.4084 21.2061 61.3255 20.6039C60.6034 15.3536 58.1071 10.4141 54.2967 6.6954C50.48 2.97025 45.47 0.594878 40.1899 0.00679637C39.5856 -0.0601278 39.0414 0.374733 38.9741 0.978958C38.9069 1.58318 39.3421 2.12753 39.9463 2.19489Z" fill="#B19777"/>
<path d="M60.4584 24.7938C59.8555 24.7429 59.3198 25.191 59.268 25.7966C58.6698 32.7915 54.6963 39.1148 48.6388 42.7113C47.0936 43.6287 46.1337 45.3043 46.1337 47.0843V51.4298H41.4752V42.6796C41.4752 42.1741 41.6455 41.6754 41.9546 41.2754L43.5298 39.2359C44.1349 38.4525 44.4682 37.4758 44.4682 36.4859V28.527C45.0759 28.5267 45.5683 28.0341 45.5683 27.4263C45.5683 26.8186 45.0759 26.3259 44.4682 26.3256V26.2055C44.4682 25.5976 43.9755 25.1048 43.3675 25.1048C42.7594 25.1048 42.2667 25.5976 42.2667 26.2055V26.3254H32.733V26.2055C32.733 25.5976 32.2403 25.1048 31.6323 25.1048C31.0242 25.1048 30.5315 25.5976 30.5315 26.2055V26.3254C29.9238 26.3257 29.4312 26.8184 29.4312 27.4262C29.4312 28.0339 29.9238 28.5266 30.5315 28.5269V36.4857C30.5315 37.4757 30.8648 38.4524 31.4699 39.2358L33.0451 41.2751C33.3541 41.6753 33.5245 42.174 33.5245 42.6794V51.4296H28.8662V47.0843C28.8662 45.3001 27.9209 43.633 26.3991 42.7336C19.7677 38.8146 15.6484 31.6016 15.6482 23.9096C15.6481 12.7695 23.9909 3.43457 35.0542 2.19574C35.6583 2.12808 36.0931 1.58344 36.0255 0.979366C35.9578 0.375287 35.4151 -0.0598666 34.8091 0.00793812C28.9757 0.661623 23.5848 3.43956 19.629 7.83058C15.6424 12.2561 13.4466 17.9665 13.4468 23.91C13.4471 32.6824 18.1596 40.4216 25.2789 44.6292C26.1336 45.1344 26.6646 46.0753 26.6646 47.0846V52.0588C25.9653 52.6035 25.5128 53.451 25.5128 54.4039V56.0298C25.5128 56.7394 25.7635 57.3912 26.1798 57.9031C25.7635 58.4148 25.5128 59.0666 25.5128 59.7764V61.4022C25.5128 62.5747 26.1964 63.5878 27.1846 64.0718C27.0541 64.4063 26.9797 64.7687 26.9797 65.1488V66.7746C26.9797 68.4144 28.3138 69.7487 29.9537 69.7487H31.962C32.1155 72.6703 34.5407 75 37.4999 75C40.4589 75 42.884 72.6701 43.0375 69.7487H45.0459C46.6858 69.7487 48.0199 68.4146 48.0199 66.7746V65.1488C48.0199 64.7687 47.9455 64.4063 47.815 64.0718C48.803 63.5878 49.4868 62.5747 49.4868 61.4022V59.7764C49.4868 59.0668 49.2361 58.415 48.8197 57.9031C49.2361 57.3913 49.4868 56.7395 49.4868 56.0298V54.4039C49.4868 53.4509 49.0343 52.6033 48.335 52.0588V47.0844C48.335 46.0776 48.8821 45.1273 49.7627 44.6044C56.4294 40.646 60.8028 33.6853 61.4614 25.9844C61.5132 25.3785 61.0641 24.8456 60.4584 24.7938ZM33.2122 37.8906C32.9032 37.4905 32.733 36.9918 32.733 36.4862V28.5273H42.2667V36.4862C42.2667 36.9918 42.0966 37.4905 41.7876 37.8904L40.2123 39.9298C39.6071 40.7134 39.2738 41.6901 39.2738 42.6799V51.4301H35.7258V42.6799C35.7258 41.6901 35.3925 40.7134 34.7872 39.9298L33.2122 37.8906ZM37.4997 72.7986C35.7548 72.7986 34.3179 71.4554 34.1685 69.7487H40.8311C40.6817 71.4552 39.2447 72.7986 37.4997 72.7986ZM45.8184 66.7746C45.8184 67.2006 45.4719 67.5472 45.0459 67.5472C43.2098 67.5472 31.3089 67.5472 29.9537 67.5472C29.5278 67.5472 29.1812 67.2007 29.1812 66.7746V65.1488C29.1812 64.7229 29.5277 64.3762 29.9537 64.3762H45.0459C45.4718 64.3762 45.8184 64.7227 45.8184 65.1488V66.7746ZM47.2853 61.4022C47.2853 61.8283 46.9388 62.1748 46.5126 62.1748C45.6706 62.1748 29.0181 62.1748 28.487 62.1748C28.0609 62.1748 27.7143 61.8283 27.7143 61.4022V59.7764C27.7143 59.3505 28.0608 59.0038 28.487 59.0038H46.5126C46.9387 59.0038 47.2853 59.3503 47.2853 59.7764V61.4022ZM47.2853 56.0298C47.2853 56.4557 46.9388 56.8024 46.5126 56.8024H28.487C28.0609 56.8024 27.7143 56.4558 27.7143 56.0298V54.4039C27.7143 53.9656 28.082 53.6314 28.487 53.6314H46.5126C46.9353 53.6314 47.2853 53.981 47.2853 54.4039V56.0298Z" fill="#B19777"/>
</g>
<defs>
<clipPath id="clip0_268_993">
<rect width="75" height="75" fill="white"/>
</clipPath>
</defs>
</svg>
