<svg width="71" height="71" viewBox="0 0 71 71" fill="none" xmlns="http://www.w3.org/2000/svg">
<g clip-path="url(#clip0_268_1019)">
<path d="M62.8231 50.1053C62.4338 49.9439 61.9856 50.0331 61.6874 50.3311L50.2988 61.7197C50.0008 62.0178 49.9117 62.466 50.0731 62.8554C50.2342 63.2449 50.6145 63.4987 51.0359 63.4987H62.4245C63.0001 63.4987 63.4666 63.0322 63.4666 62.4566V51.068C63.4664 50.6466 63.2125 50.2666 62.8231 50.1053ZM53.5514 61.4146L61.3821 53.5839V61.4146H53.5514Z" fill="#B19777"/>
<path d="M70.3568 33.4016C69.9675 33.2402 69.5193 33.3294 69.2211 33.6274L66.1 36.7485V15.5273C66.1 14.9517 65.6334 14.4852 65.0579 14.4852H57.0508L59.9574 11.5786C59.9578 11.5782 59.9582 11.5777 59.9587 11.5772L62.7593 8.77662C63.3593 8.17659 63.6898 7.37839 63.6898 6.52971C63.6898 5.68104 63.3593 4.88312 62.7593 4.28281L59.5207 1.04426C58.9207 0.444225 58.1225 0.11377 57.2738 0.11377C56.4251 0.11377 55.6271 0.444225 55.0269 1.04426L52.2249 3.84627L48.8391 7.23209L41.5861 14.4851H9.23834V4.17548C9.23834 3.59985 8.77171 3.13336 8.19622 3.13336C3.67689 3.13363 0 6.81025 0 11.3299V55.5921C0 55.669 0.00887502 55.7439 0.0246836 55.816C0.168625 57.7337 0.998301 59.5155 2.38488 60.8681C3.86701 62.3136 5.82354 63.1098 7.89419 63.1098H39.7386L33.7412 69.1072C33.4431 69.4053 33.354 69.8534 33.5153 70.2429C33.6765 70.6323 34.0566 70.8862 34.4781 70.8862H69.958C70.5335 70.8862 71.0001 70.4197 71.0001 69.8441V34.3644C71.0001 33.943 70.7461 33.5629 70.3568 33.4016ZM56.501 2.51821C56.927 2.09193 57.6211 2.09193 58.0471 2.51821L61.2857 5.75689C61.712 6.18303 61.712 6.87681 61.2857 7.30309L59.2208 9.36819L54.4358 4.58331L56.501 2.51821ZM52.9619 6.05712L57.7468 10.8419L55.8347 12.754L51.0501 7.96927L52.9619 6.05712ZM68.9162 46.0742H66.9935C66.4179 46.0742 65.9514 46.5407 65.9514 47.1163C65.9514 47.6919 66.4179 48.1584 66.9935 48.1584H68.9162V51.2988H66.9935C66.4179 51.2988 65.9514 51.7653 65.9514 52.3409C65.9514 52.9165 66.4179 53.383 66.9935 53.383H68.9162V56.5232H66.9935C66.4179 56.5232 65.9514 56.9897 65.9514 57.5654C65.9514 58.141 66.4179 58.6075 66.9935 58.6075H68.9162V61.7479H66.9935C66.4179 61.7479 65.9514 62.2145 65.9514 62.79C65.9514 63.3656 66.4179 63.8321 66.9935 63.8321H68.9162V68.8024H36.9939L47.5202 58.2762C47.9272 57.8691 47.9272 57.2094 47.5202 56.8024C47.4734 56.7557 47.4232 56.7152 47.3707 56.6791C46.9649 56.4012 46.4066 56.4421 46.0462 56.8024L41.8228 61.0258H7.89433C4.73371 61.0258 2.18936 58.5583 2.08923 55.4033C2.0952 55.2053 2.11059 55.0089 2.13527 54.8148C2.13541 54.8137 2.13555 54.8126 2.13569 54.8115C2.14734 54.7193 2.16134 54.6275 2.17729 54.5362C2.17909 54.5258 2.18104 54.5154 2.18284 54.505C2.1974 54.4236 2.21376 54.3426 2.23165 54.2619C2.23664 54.2395 2.24191 54.217 2.24718 54.1947C2.26299 54.1264 2.28005 54.0586 2.29835 53.9911C2.30834 53.9545 2.31874 53.9183 2.32941 53.8818C2.34467 53.8288 2.36048 53.776 2.37726 53.7237C2.39404 53.6715 2.41192 53.6197 2.43009 53.568C2.44271 53.5318 2.45519 53.4956 2.46878 53.4597C2.49416 53.3915 2.52106 53.3239 2.54879 53.257C2.5567 53.2377 2.56446 53.2181 2.57265 53.1989C2.60828 53.1157 2.64531 53.0334 2.68442 52.9522C2.68608 52.9487 2.68761 52.9452 2.68927 52.9418C3.50438 51.255 5.07207 49.9973 6.95344 49.6071C6.95871 49.606 6.96398 49.6048 6.96925 49.6036C7.0555 49.586 7.14259 49.5709 7.23023 49.5569C7.24479 49.5546 7.25935 49.5516 7.27419 49.5494C7.35337 49.5374 7.43338 49.5279 7.5134 49.5189C7.53586 49.5164 7.55819 49.513 7.58079 49.5107C7.65803 49.503 7.73596 49.4978 7.8139 49.493C7.83858 49.4915 7.86327 49.4888 7.88795 49.4876C7.99001 49.4824 8.09291 49.4798 8.19622 49.4798C8.77171 49.4798 9.23834 49.0133 9.23834 48.4377V40.8816C9.23834 40.306 8.77171 39.8395 8.19622 39.8395C7.62073 39.8395 7.1541 40.306 7.1541 40.8816V47.4612C5.39435 47.6837 3.76093 48.4686 2.47294 49.7264C2.33746 49.8587 2.20905 49.9962 2.08397 50.136V11.3299C2.08397 8.31498 4.27859 5.80266 7.15396 5.30649V15.5273V36.7132V36.7134C7.15396 37.2889 7.62059 37.7555 8.19608 37.7555C8.77157 37.7555 9.2382 37.2889 9.2382 36.7134V36.7132V16.5694H39.502L33.741 22.3304C33.334 22.7376 33.334 23.3972 33.741 23.8042C34.148 24.2111 34.8078 24.2111 35.2147 23.8042L42.7547 16.2642C42.755 16.2639 42.7551 16.2637 42.7554 16.2635L49.576 9.44294L54.3606 14.2278L53.7992 14.7892C53.7988 14.7896 53.7983 14.79 53.7979 14.7904L32.7851 35.8034L28.0004 31.0187L32.1423 26.8768C32.5493 26.4697 32.5493 25.81 32.1423 25.403C31.7353 24.9961 31.0755 24.9961 30.6686 25.403L25.7897 30.2818C25.7636 30.3078 25.7392 30.3354 25.7163 30.3637C25.7087 30.3731 25.7019 30.3833 25.6947 30.3931C25.68 30.4127 25.6656 30.4324 25.6521 30.4529C25.6445 30.4648 25.6376 30.477 25.6304 30.4893C25.6188 30.5088 25.6078 30.5285 25.5976 30.5486C25.591 30.5616 25.585 30.5748 25.5789 30.5884C25.5696 30.6087 25.561 30.6295 25.5531 30.6503C25.5503 30.6577 25.5467 30.6646 25.5441 30.672L23.5138 36.4234L22.1296 40.3449C22.1113 40.3971 22.0981 40.45 22.0883 40.5034H18.6226C18.0471 40.5034 17.5804 40.9699 17.5804 41.5455C17.5804 42.1212 18.0471 42.5877 18.6226 42.5877H47.4822C48.0578 42.5877 48.5243 42.1212 48.5243 41.5455C48.5243 40.9699 48.0578 40.5034 47.4822 40.5034H26.7766L33.132 38.26C33.1372 38.258 33.1422 38.2554 33.1475 38.2535C33.1722 38.2443 33.1965 38.2341 33.2204 38.2231C33.23 38.2187 33.2396 38.2145 33.2489 38.2099C33.2738 38.1974 33.2984 38.1837 33.3225 38.169C33.3303 38.1643 33.3383 38.16 33.3459 38.1551C33.371 38.1391 33.3954 38.1215 33.4194 38.1029C33.4254 38.0983 33.4316 38.0943 33.4375 38.0896C33.4664 38.0663 33.4949 38.0412 33.5218 38.0143L54.9666 16.5696H64.0156V38.8328L49.1089 53.7397C48.7019 54.1468 48.7019 54.8065 49.1089 55.2135C49.1343 55.2389 49.1608 55.2627 49.1881 55.285C49.3792 55.4408 49.6126 55.5187 49.8458 55.5187C50.0791 55.5187 50.3126 55.4408 50.5036 55.285C50.5309 55.2629 50.5574 55.2389 50.5828 55.2135C50.5832 55.2131 50.5828 55.2135 50.5832 55.2131L68.9162 36.8799V46.0742ZM30.8791 36.8447L27.894 37.8985L25.9052 35.9096L26.959 32.9246L30.8791 36.8447Z" fill="#B19777"/>
</g>
<defs>
<clipPath id="clip0_268_1019">
<rect width="71" height="71" fill="white"/>
</clipPath>
</defs>
</svg>
