<svg width="72" height="72" viewBox="0 0 72 72" fill="none" xmlns="http://www.w3.org/2000/svg">
<path d="M60.6294 24.6294C60.6294 11.027 49.6024 0 36 0C22.3975 0 11.3706 11.027 11.3706 24.6294C7.85402 25.0673 4.52905 27.366 4.52905 32.7024V45.5644C4.52905 51.5849 8.74342 53.7742 12.7389 53.7742H16.7069C17.4626 53.7742 18.0752 53.1616 18.0752 52.4059V25.9156C18.0752 25.16 17.4626 24.5473 16.7069 24.5473H14.1072C14.1072 12.4563 23.909 2.6545 36 2.6545C48.091 2.6545 57.8928 12.4563 57.8928 24.5473H55.293C54.5374 24.5473 53.9247 25.16 53.9247 25.9156V52.3649C53.9247 53.1205 54.5374 53.7332 55.293 53.7332H57.8928C57.5097 63.1334 52.9943 65.3364 43.9772 65.7332V64.8164C43.9772 63.305 42.752 62.0798 41.2406 62.0798H32.634C31.1225 62.0798 29.8974 63.305 29.8974 64.8164V69.2634C29.8974 70.7749 31.1225 72 32.634 72H41.2679C42.7794 72 44.0045 70.7749 44.0045 69.2634V68.4698C52.6796 68.073 60.1779 66.2805 60.6294 53.6511C64.1459 53.2132 67.4709 50.9145 67.4709 45.5781V32.7161C67.4709 27.3523 64.1596 25.0673 60.6294 24.6294ZM15.3386 27.1881V50.9966H12.6704C10.6454 50.9966 7.19724 50.2851 7.19724 45.5234V32.6613C7.19724 27.9407 10.6043 27.1881 12.6704 27.1881H15.3386ZM41.2679 67.1973V69.2771H32.634V64.8301H41.2679V67.1973ZM64.7343 45.5644C64.7343 50.2851 61.3272 51.0376 59.2611 51.0376H56.6613V27.2839H59.3295C61.3546 27.2839 64.8027 27.9954 64.8027 32.7571L64.7343 45.5644Z" fill="#25292F"/>
</svg>
