<svg width="84" height="84" viewBox="0 0 84 84" fill="none" xmlns="http://www.w3.org/2000/svg">
<g clip-path="url(#clip0_507_8847)">
<path d="M51.6149 8.12719C51.0034 7.82737 50.2649 8.08001 49.9652 8.69132C49.6656 9.30263 49.9181 10.0412 50.5295 10.341C55.1715 12.6173 58.5991 16.774 59.933 21.7453C60.1097 22.4035 60.7864 22.7931 61.4432 22.6165C62.1009 22.4402 62.491 21.7639 62.3146 21.1062C60.7958 15.4473 56.896 10.7166 51.6149 8.12719Z" fill="#25292F"/>
<path d="M11.5466 26.1205C11.5466 25.4397 10.9948 24.8877 10.3138 24.8877H6.0729C5.3919 24.8877 4.84009 25.4397 4.84009 26.1205C4.84009 26.8014 5.3919 27.3533 6.0729 27.3533H10.3138C10.9946 27.3533 11.5466 26.8014 11.5466 26.1205Z" fill="#25292F"/>
<path d="M12.3988 17.2249L8.43375 15.7201C7.79762 15.4788 7.08539 15.7987 6.84375 16.4353C6.60212 17.0719 6.92233 17.7838 7.55895 18.0253L11.524 19.5301C12.1615 19.7718 12.8727 19.4509 13.114 18.8149C13.3556 18.1785 13.0354 17.4666 12.3988 17.2249Z" fill="#25292F"/>
<path d="M11.5242 32.7113L7.55913 34.2162C6.9225 34.4578 6.60246 35.1697 6.84393 35.8062C7.08523 36.4425 7.79665 36.763 8.43393 36.5214L12.399 35.0165C13.0356 34.7749 13.3557 34.063 13.1142 33.4265C12.8727 32.7899 12.1606 32.47 11.5242 32.7113Z" fill="#25292F"/>
<path d="M77.9272 24.8877H73.6862C73.0052 24.8877 72.4534 25.4397 72.4534 26.1205C72.4534 26.8014 73.0052 27.3533 73.6862 27.3533H77.9272C78.6082 27.3533 79.16 26.8014 79.16 26.1205C79.16 25.4397 78.6081 24.8877 77.9272 24.8877Z" fill="#25292F"/>
<path d="M72.4759 19.5302L76.441 18.0253C77.0776 17.7837 77.3976 17.0718 77.1562 16.4353C76.9147 15.7985 76.2025 15.4788 75.5662 15.7201L71.6011 17.225C70.9645 17.4666 70.6445 18.1785 70.8859 18.815C71.1272 19.4511 71.8386 19.7716 72.4759 19.5302Z" fill="#25292F"/>
<path d="M76.4411 34.2162L72.476 32.7113C71.8397 32.47 71.1275 32.7899 70.886 33.4265C70.6444 34.0631 70.9646 34.775 71.6012 35.0165L75.5662 36.5214C76.2037 36.763 76.9149 36.4421 77.1562 35.8062C77.3977 35.1697 77.0777 34.4578 76.4411 34.2162Z" fill="#25292F"/>
<path d="M44.7403 2.45828C55.8739 3.69816 64.7158 12.3149 66.2425 23.4123C66.3349 24.0845 66.9541 24.5584 67.6318 24.4656C68.3064 24.3729 68.7779 23.7508 68.685 23.0763C67.8763 17.196 65.0804 11.6638 60.8127 7.49884C56.538 3.32667 50.9269 0.666263 45.0132 0.00761194C44.3363 -0.0673431 43.7268 0.4197 43.6515 1.09643C43.5762 1.77317 44.0636 2.38283 44.7403 2.45828Z" fill="#25292F"/>
<path d="M67.7135 27.7689C67.0383 27.7119 66.4383 28.2137 66.3803 28.8921C65.7103 36.7264 61.26 43.8085 54.4756 47.8365C52.745 48.864 51.6699 50.7407 51.6699 52.7342V57.6012H46.4524V47.801C46.4524 47.2349 46.6431 46.6764 46.9893 46.2283L48.7535 43.9441C49.4312 43.0667 49.8045 41.9728 49.8045 40.8641V31.9502C50.4852 31.9498 51.0367 31.398 51.0367 30.7173C51.0367 30.0367 50.4852 29.4849 49.8045 29.4845V29.3501C49.8045 28.6692 49.2527 28.1173 48.5717 28.1173C47.8907 28.1173 47.3389 28.6692 47.3389 29.3501V29.4844H36.6611V29.3501C36.6611 28.6692 36.1093 28.1173 35.4283 28.1173C34.7473 28.1173 34.1955 28.6692 34.1955 29.3501V29.4844C33.5148 29.4847 32.9631 30.0365 32.9631 30.7172C32.9631 31.3979 33.5148 31.9497 34.1955 31.95V40.8639C34.1955 41.9726 34.5688 43.0665 35.2465 43.944L37.0107 46.228C37.3567 46.6762 37.5476 47.2347 37.5476 47.8009V57.6011H32.3303V52.7342C32.3303 50.7359 31.2716 48.8688 29.5672 47.8615C22.14 43.4722 17.5263 35.3937 17.5262 26.7786C17.526 14.3017 26.8699 3.84661 39.2609 2.45911C39.9374 2.38334 40.4245 1.77334 40.3487 1.09677C40.2729 0.420205 39.6651 -0.0671678 38.9863 0.00877351C32.4529 0.740901 26.4151 3.85219 21.9847 8.77013C17.5196 13.7267 15.0604 20.1224 15.0605 26.7791C15.0609 36.6041 20.339 45.2721 28.3125 49.9846C29.2698 50.5504 29.8645 51.6042 29.8645 52.7346V58.3058C29.0813 58.9157 28.5745 59.865 28.5745 60.9323V62.7533C28.5745 63.548 28.8552 64.278 29.3216 64.8513C28.8552 65.4245 28.5745 66.1545 28.5745 66.9494V68.7704C28.5745 70.0836 29.3401 71.2182 30.4469 71.7604C30.3008 72.135 30.2174 72.5408 30.2174 72.9665V74.7875C30.2174 76.624 31.7116 78.1184 33.5483 78.1184H35.7976C35.9696 81.3906 38.6857 83.9999 42 83.9999C45.3141 83.9999 48.0303 81.3904 48.2022 78.1184H50.4515C52.2882 78.1184 53.7824 76.6242 53.7824 74.7875V72.9665C53.7824 72.5408 53.6991 72.135 53.5529 71.7604C54.6595 71.2182 55.4253 70.0836 55.4253 68.7704V66.9494C55.4253 66.1547 55.1446 65.4247 54.6783 64.8513C55.1446 64.2782 55.4253 63.5482 55.4253 62.7533V60.9323C55.4253 59.8648 54.9186 58.9156 54.1353 58.3058V52.7344C54.1353 51.6068 54.7481 50.5425 55.7344 49.9568C63.2011 45.5234 68.0993 37.7275 68.8369 29.1024C68.8949 28.4238 68.3919 27.827 67.7135 27.7689ZM37.1978 42.4373C36.8518 41.9892 36.6611 41.4307 36.6611 40.8644V31.9505H47.3389V40.8644C47.3389 41.4307 47.1484 41.9892 46.8022 42.4371L45.038 44.7213C44.3601 45.5989 43.9868 46.6928 43.9868 47.8014V57.6016H40.013V47.8014C40.013 46.6928 39.6397 45.5989 38.9619 44.7213L37.1978 42.4373ZM41.9998 81.5343C40.0456 81.5343 38.4362 80.0299 38.2688 78.1184H45.731C45.5637 80.0297 43.9543 81.5343 41.9998 81.5343ZM51.3168 74.7875C51.3168 75.2645 50.9287 75.6528 50.4515 75.6528C48.3952 75.6528 35.0662 75.6528 33.5483 75.6528C33.0713 75.6528 32.6831 75.2647 32.6831 74.7875V72.9665C32.6831 72.4895 33.0711 72.1013 33.5483 72.1013H50.4515C50.9285 72.1013 51.3168 72.4894 51.3168 72.9665V74.7875ZM52.9597 68.7704C52.9597 69.2476 52.5716 69.6356 52.0943 69.6356C51.1513 69.6356 32.5004 69.6356 31.9056 69.6356C31.4284 69.6356 31.0401 69.2476 31.0401 68.7704V66.9494C31.0401 66.4724 31.4282 66.0841 31.9056 66.0841H52.0943C52.5715 66.0841 52.9597 66.4722 52.9597 66.9494V68.7704ZM52.9597 62.7533C52.9597 63.2303 52.5716 63.6185 52.0943 63.6185H31.9056C31.4284 63.6185 31.0401 63.2304 31.0401 62.7533V60.9323C31.0401 60.4413 31.452 60.067 31.9056 60.067H52.0943C52.5677 60.067 52.9597 60.4586 52.9597 60.9323V62.7533Z" fill="#25292F"/>
</g>
<defs>
<clipPath id="clip0_507_8847">
<rect width="84" height="84" fill="white"/>
</clipPath>
</defs>
</svg>
