<svg width="67" height="67" viewBox="0 0 67 67" fill="none" xmlns="http://www.w3.org/2000/svg">
<path d="M62.7319 36.6949L53.3906 32.8016V30.0064C54.6765 29.2684 55.7899 28.2644 56.6565 27.0615C57.523 25.8585 58.1228 24.4844 58.4156 23.0311H58.625C59.458 23.0425 60.2613 22.7225 60.8583 22.1416C61.4554 21.5606 61.7972 20.7663 61.8086 19.9334C61.8199 19.1004 61.5 18.2971 60.919 17.7001C60.3381 17.103 59.5438 16.7612 58.7109 16.7498L59.7368 14.3713C60.6134 12.3389 60.6582 10.0437 59.8616 7.97862C59.065 5.91349 57.4905 4.243 55.476 3.32576L52.5531 1.99623C50.8236 1.22836 48.9218 0.931598 47.0406 1.13605C45.1594 1.3405 43.3657 2.03888 41.8415 3.16036L40.2126 4.38939C38.5494 4.81775 37.1208 5.882 36.2344 7.35309C35.7449 8.16573 35.4395 9.0758 35.3396 10.0192C35.2398 10.9626 35.348 11.9165 35.6566 12.8136C34.0761 12.4975 32.445 12.5372 30.8818 12.9298C31.3293 11.0304 31.1035 9.03451 30.2429 7.28307C29.3824 5.53163 27.9405 4.13327 26.1635 3.32681L23.2406 1.99623C21.5111 1.22836 19.6093 0.931598 17.7281 1.13605C15.8469 1.3405 14.0532 2.03888 12.529 3.16036L10.9001 4.38939C9.95661 4.63047 9.0791 5.07975 8.33196 5.70427C7.58482 6.32878 6.987 7.11267 6.58239 7.99841C6.17777 8.88414 5.97663 9.84924 5.99372 10.8229C6.01081 11.7965 6.24571 12.7539 6.68116 13.6249L8.24519 16.7498C7.41225 16.7671 6.62026 17.1145 6.04345 17.7156C5.46664 18.3168 5.15226 19.1224 5.16948 19.9554C5.18669 20.7883 5.53409 21.5803 6.13524 22.1571C6.73639 22.7339 7.54206 23.0483 8.37501 23.0311H8.58438C8.87838 24.4837 9.47862 25.857 10.3451 27.0595C11.2116 28.2619 12.3244 29.2658 13.6094 30.0043V32.8016L4.26812 36.6949C3.3132 37.0908 2.49731 37.7613 1.92385 38.6214C1.35039 39.4815 1.04517 40.4925 1.04688 41.5262V55.4842C1.04688 55.7619 1.15718 56.0281 1.3535 56.2245C1.54983 56.4208 1.81611 56.5311 2.09376 56.5311H9.42188V64.9061C9.42188 65.1837 9.53218 65.45 9.72851 65.6463C9.92483 65.8427 10.1911 65.953 10.4688 65.953H56.5313C56.8089 65.953 57.0752 65.8427 57.2715 65.6463C57.4678 65.45 57.5781 65.1837 57.5781 64.9061V56.5311H64.9063C65.1839 56.5311 65.4502 56.4208 65.6465 56.2245C65.8428 56.0281 65.9531 55.7619 65.9531 55.4842V41.5262C65.9548 40.4925 65.6496 39.4815 65.0762 38.6214C64.5027 37.7613 63.6868 37.0908 62.7319 36.6949ZM37.0311 15.4172L39.9529 16.7498C41.4685 17.4402 42.6529 18.6973 43.252 20.2512C43.8512 21.805 43.8172 23.5319 43.1574 25.061L42.8434 25.7781L41.7703 23.61C41.7019 23.4719 41.6038 23.3507 41.4832 23.2549C41.3625 23.1591 41.2221 23.0911 41.0721 23.0558C40.9221 23.0205 40.7662 23.0187 40.6154 23.0507C40.4647 23.0826 40.3228 23.1474 40.2 23.2405L38.525 24.4967C37.0753 25.584 35.3121 26.1717 33.5 26.1717C31.6879 26.1717 29.9247 25.584 28.475 24.4967L26.8 23.2405C26.6778 23.1479 26.5365 23.0836 26.3864 23.0523C26.2364 23.021 26.0812 23.0234 25.9321 23.0594C25.7827 23.0944 25.6427 23.1619 25.5222 23.2571C25.4017 23.3522 25.3037 23.4727 25.2349 23.61L24.0781 25.932L23.2134 24.2036C22.8761 23.5288 22.7168 22.779 22.7506 22.0254C22.7844 21.2718 23.0103 20.5393 23.4067 19.8975C23.8031 19.2556 24.357 18.7257 25.0157 18.3581C25.6745 17.9904 26.4162 17.7972 27.1706 17.7967C27.9771 17.7959 28.7712 17.9946 29.4823 18.3751C30.1933 18.7556 30.7993 19.306 31.2461 19.9774L31.5748 20.4715L33.3168 19.3095L32.9881 18.8164C32.0576 17.4223 30.6562 16.4099 29.0403 15.9647C30.2278 15.2318 31.5759 14.799 32.9681 14.7036C34.3603 14.6082 35.7547 14.8531 37.0311 15.4172ZM43.9688 30.3592H45.0156C45.2933 30.3592 45.5596 30.4695 45.7559 30.6658C45.9522 30.8622 46.0625 31.1284 46.0625 31.4061C46.0625 31.6837 45.9522 31.95 45.7559 32.1463C45.5596 32.3427 45.2933 32.453 45.0156 32.453H43.9688V30.3592ZM30.3594 42.4391C32.4037 43.0826 34.5963 43.0826 36.6406 42.4391V44.5821L33.5 47.7227L30.3594 44.5821V42.4391ZM33.5 40.828C31.2796 40.8255 29.1508 39.9423 27.5807 38.3722C26.0107 36.8022 25.1275 34.6734 25.125 32.453V28.5125L26.5467 25.6682L27.2188 26.1717C29.0309 27.5308 31.2349 28.2655 33.5 28.2655C35.7651 28.2655 37.9692 27.5308 39.7813 26.1717L40.4534 25.6682L41.875 28.5125V32.453C41.8725 34.6734 40.9893 36.8022 39.4193 38.3722C37.8492 39.9423 35.7204 40.8255 33.5 40.828ZM23.0313 32.453H21.9844C21.7067 32.453 21.4405 32.3427 21.2441 32.1463C21.0478 31.95 20.9375 31.6837 20.9375 31.4061C20.9375 31.1284 21.0478 30.8622 21.2441 30.6658C21.4405 30.4695 21.7067 30.3592 21.9844 30.3592H23.0313V32.453ZM9.42188 53.4323V54.4373H3.14063V41.5262C3.14025 40.9064 3.32364 40.3004 3.66762 39.7848C4.0116 39.2692 4.50073 38.8672 5.07316 38.6295L15.0593 34.4692C15.2505 34.3895 15.4137 34.2548 15.5283 34.0822C15.6429 33.9097 15.7038 33.707 15.7031 33.4998V29.3793C15.6976 29.181 15.6383 28.9879 15.5315 28.8207C15.4248 28.6534 15.2746 28.5183 15.097 28.4298C13.8455 27.8073 12.7705 26.8803 11.9708 25.7339C11.171 24.5875 10.6722 23.2585 10.5201 21.8691C10.4917 21.6129 10.3699 21.3762 10.1779 21.2043C9.98585 21.0324 9.73718 20.9373 9.47946 20.9373H8.37501C8.09736 20.9373 7.83108 20.827 7.63475 20.6307C7.43843 20.4344 7.32813 20.1681 7.32813 19.8905C7.32813 19.6128 7.43843 19.3465 7.63475 19.1502C7.83108 18.9539 8.09736 18.8436 8.37501 18.8436H9.42188C9.55998 18.8436 9.69671 18.8163 9.8242 18.7632C9.9517 18.7101 10.0674 18.6324 10.1647 18.5344C10.262 18.4364 10.339 18.3201 10.3912 18.1923C10.4434 18.0644 10.4697 17.9275 10.4688 17.7894L10.4614 16.7425C10.4605 16.5826 10.4228 16.425 10.3515 16.2819L8.55402 12.688C8.25292 12.0846 8.09367 11.4204 8.08843 10.7461C8.08318 10.0717 8.23208 9.40514 8.52376 8.79715C8.81543 8.18915 9.24218 7.65584 9.7714 7.23793C10.3006 6.82001 10.9183 6.52855 11.5774 6.38578C11.7256 6.35296 11.8651 6.28909 11.9867 6.19839L13.7874 4.83745C15.0092 3.9394 16.4467 3.38025 17.9542 3.21663C19.4617 3.05301 20.9857 3.29074 22.3717 3.90573L25.2967 5.23422C26.8122 5.92461 27.9967 7.18167 28.5958 8.73554C29.1949 10.2894 29.1609 12.0162 28.5012 13.5454L28.3316 13.9379C27.9341 14.158 27.5518 14.4046 27.1874 14.676L25.5364 15.9123C24.5949 16.1542 23.7194 16.6038 22.9743 17.2282C22.2291 17.8525 21.6332 18.6357 21.2302 19.5204C20.8273 20.4051 20.6275 21.3687 20.6455 22.3407C20.6635 23.3127 20.8988 24.2683 21.3343 25.1374L22.9004 28.2655H21.9844C21.1514 28.2655 20.3526 28.5964 19.7636 29.1853C19.1746 29.7743 18.8438 30.5731 18.8438 31.4061C18.8438 32.239 19.1746 33.0379 19.7636 33.6268C20.3526 34.2158 21.1514 34.5467 21.9844 34.5467H23.2406C23.5405 35.9952 24.1431 37.364 25.0091 38.5633C25.8752 39.7625 26.9849 40.7651 28.2656 41.5053V44.2198L13.2555 48.3895C12.1545 48.6978 11.1842 49.3572 10.4923 50.2675C9.8003 51.1777 9.42446 52.289 9.42188 53.4323ZM55.4844 63.8592H49.2031V55.4842H47.1094V63.8592H19.8906V55.4842H17.7969V63.8592H11.5156V53.4323C11.5172 52.7459 11.743 52.0788 12.1588 51.5326C12.5746 50.9864 13.1575 50.5911 13.8188 50.4069L29.0079 46.188L32.763 49.9431C32.9593 50.1394 33.2256 50.2496 33.5031 50.2496C33.7807 50.2496 34.047 50.1394 34.2433 49.9431L37.9984 46.188L53.1813 50.4069C53.8425 50.5911 54.4254 50.9864 54.8412 51.5326C55.257 52.0788 55.4829 52.7459 55.4844 53.4323V63.8592ZM63.8594 54.4373H57.5781V53.4323C57.5756 52.289 57.1997 51.1777 56.5077 50.2675C55.8158 49.3572 54.8455 48.6978 53.7445 48.3895L38.7344 44.2198V41.5053C40.0151 40.7651 41.1249 39.7625 41.9909 38.5633C42.8569 37.364 43.4596 35.9952 43.7594 34.5467H45.0156C45.8486 34.5467 46.6474 34.2158 47.2364 33.6268C47.8254 33.0379 48.1563 32.239 48.1563 31.4061C48.1563 30.5731 47.8254 29.7743 47.2364 29.1853C46.6474 28.5964 45.8486 28.2655 45.0156 28.2655H44.0546L45.0805 25.888C45.9572 23.8556 46.002 21.5604 45.2054 19.4953C44.4087 17.4302 42.8342 15.7597 40.8198 14.8424L38.391 13.7359L37.8676 12.689C37.5663 12.0857 37.4068 11.4214 37.4014 10.747C37.396 10.0727 37.5448 9.40595 37.8363 8.79784C38.1279 8.18973 38.5546 7.65629 39.0838 7.23825C39.6131 6.82021 40.2308 6.52863 40.8899 6.38578C41.0381 6.35296 41.1776 6.28909 41.2992 6.19839L43.0998 4.83745C44.3217 3.9394 45.7592 3.38025 47.2667 3.21663C48.7742 3.05301 50.2982 3.29074 51.6842 3.90573L54.6092 5.23422C56.1247 5.92461 57.3092 7.18167 57.9083 8.73554C58.5074 10.2894 58.4734 12.0162 57.8137 13.5454L56.6098 16.3311C56.5527 16.4633 56.5234 16.6058 56.5239 16.7498L56.5313 17.7967C56.5313 18.0744 56.6416 18.3406 56.8379 18.537C57.0342 18.7333 57.3005 18.8436 57.5781 18.8436H58.625C58.9027 18.8436 59.1689 18.9539 59.3653 19.1502C59.5616 19.3465 59.6719 19.6128 59.6719 19.8905C59.6719 20.1681 59.5616 20.4344 59.3653 20.6307C59.1689 20.827 58.9027 20.9373 58.625 20.9373H57.5206C57.2628 20.9373 57.0142 21.0324 56.8222 21.2043C56.6302 21.3762 56.5083 21.6129 56.48 21.8691C56.3273 23.2638 55.8251 24.5975 55.0199 25.7465C54.2147 26.8956 53.1326 27.8228 51.8737 28.4424C51.6993 28.5291 51.5525 28.6627 51.4499 28.8282C51.3472 28.9937 51.2928 29.1846 51.2927 29.3793V33.4998C51.2927 33.7065 51.3538 33.9085 51.4684 34.0804C51.5829 34.2524 51.7458 34.3866 51.9365 34.4661L61.9268 38.6295C62.4993 38.8672 62.9884 39.2692 63.3324 39.7848C63.6764 40.3004 63.8598 40.9064 63.8594 41.5262V54.4373Z" fill="#25292F"/>
</svg>
