<svg width="109" height="106" viewBox="0 0 109 106" fill="none" xmlns="http://www.w3.org/2000/svg">
<path d="M82.9332 24.5852C82.9332 29.3047 82.9332 59.8167 82.9332 63.5484H74.4865C74.4865 4.39022 74.4865 39.1827 74.4865 17.9999L51.7792 0V5.26826C51.7792 12.0731 51.7792 57.5119 51.7792 63.5484H41.5774C41.5774 42.9144 41.5774 33.6949 41.5774 13.0609L20.7349 29.7437V70.2435H27.4264C27.4264 70.2435 27.4264 64.9752 27.4264 32.9266L34.8858 26.9998C34.8858 78.2557 34.8858 60.146 34.8858 70.1337H58.4707C58.4707 44.5607 58.4707 36.3291 58.4707 13.7194L67.4659 20.5243C67.4659 33.1462 67.4659 57.6216 67.4659 70.1337H89.4054V29.7437L82.9332 24.5852Z" fill="#B5B6BC"/>
<path d="M5.61328 97.2245V85.8164H10.5249C12.6299 85.8164 13.6824 86.694 13.6824 88.449C13.6824 89.8531 12.6299 91.0817 10.5249 91.7837L14.3841 97.049H12.4545L8.77078 92.1348V91.2572C10.8758 90.9062 11.9283 90.0286 11.9283 88.8001C11.9283 87.747 11.402 87.2205 10.1741 87.2205H7.01661V97.4H5.61328V97.2245Z" fill="#B5B6BC"/>
<path d="M23.3301 85.9922V87.2207H17.366V91.0819H22.9793V92.3105H17.366V96.3472H23.5055V97.5758H15.9626V86.1677H23.3301V85.9922Z" fill="#B5B6BC"/>
<path d="M25.9616 97.2245H24.3828L29.1191 85.8164H30.6978L35.6095 97.2245H34.0307L32.6274 93.7143H28.9436L29.2945 92.4858H32.1011L29.9961 87.396L25.9616 97.2245Z" fill="#B5B6BC"/>
<path d="M38.7669 85.9922V96.1717H44.731V97.4003H37.3635V85.9922H38.7669Z" fill="#B5B6BC"/>
<path d="M57.712 85.9922V87.2207H51.7478V91.0819H57.3611V92.3105H51.7478V96.3472H57.8874V97.5758H50.3445V86.1677H57.712V85.9922Z" fill="#B5B6BC"/>
<path d="M59.9924 96.8738V95.4697C61.2204 95.8207 62.4483 96.1717 63.8516 96.1717C65.7812 96.1717 66.8337 95.4697 66.8337 94.0656C66.8337 92.837 66.132 92.3105 64.7287 92.3105H63.1499C60.8695 92.3105 59.6416 91.2575 59.6416 89.1513C59.6416 87.0452 61.2203 85.9922 64.2024 85.9922C65.6058 85.9922 66.8337 86.1677 67.8862 86.5187V87.9228C66.8337 87.5718 65.6058 87.2207 64.2024 87.2207C62.0974 87.2207 61.0449 87.9228 61.0449 89.3269C61.0449 90.5554 61.7466 91.0819 63.1499 91.0819H64.5533C67.0091 91.0819 68.237 92.135 68.237 94.2411C68.237 96.5227 66.8337 97.5758 63.8516 97.5758C62.4483 97.4003 61.0449 97.2248 59.9924 96.8738Z" fill="#B5B6BC"/>
<path d="M77.8848 85.9922V87.2207H74.3765V97.4003H72.9732V87.2207H69.4648V85.9922H77.8848Z" fill="#B5B6BC"/>
<path d="M78.7619 97.2245H77.1831L81.9193 85.8164H83.4981L88.4098 97.2245H86.831L85.4277 93.7143H81.7439L82.0948 92.4858H84.9014L82.7964 87.396L78.7619 97.2245Z" fill="#B5B6BC"/>
<path d="M96.4791 85.9922V87.2207H92.9707V97.4003H91.5674V87.2207H88.0591V85.9922H96.4791Z" fill="#B5B6BC"/>
<path d="M105.776 85.9922V87.2207H99.8119V91.0819H105.425V92.3105H99.8119V96.3472H105.951V97.5758H98.2332V86.1677H105.776V85.9922Z" fill="#B5B6BC"/>
<path d="M0.701666 102.138L1.57875 103.893L2.45583 102.138H3.15749L1.92958 104.42V105.648H1.22791V104.42L0 102.138H0.701666Z" fill="#B5B6BC"/>
<path d="M6.84132 105.648C6.66591 105.648 6.31507 105.648 6.13966 105.473C5.96424 105.297 5.78882 105.297 5.61341 105.122C5.43799 104.946 5.26257 104.771 5.26257 104.595C5.26257 104.42 5.08716 104.244 5.08716 103.893C5.08716 103.718 5.08716 103.367 5.26257 103.191C5.26257 103.016 5.43799 102.84 5.61341 102.665C5.78882 102.489 5.96424 102.314 6.13966 102.314C6.31507 102.138 6.49049 102.138 6.84132 102.138C7.01674 102.138 7.36757 102.138 7.54299 102.314C7.7184 102.489 7.89382 102.489 8.06924 102.665C8.24465 102.84 8.24465 103.016 8.42007 103.191C8.42007 103.367 8.59549 103.542 8.59549 103.893C8.59549 104.069 8.59549 104.42 8.42007 104.595C8.42007 104.771 8.24465 104.946 8.06924 105.122C7.89382 105.297 7.7184 105.473 7.54299 105.473C7.36757 105.473 7.01674 105.648 6.84132 105.648ZM5.78882 103.893C5.78882 104.069 5.78882 104.244 5.78882 104.42C5.78882 104.595 5.96424 104.771 5.96424 104.771C5.96424 104.946 6.13966 104.946 6.31507 104.946C6.49049 104.946 6.49049 105.122 6.66591 105.122C6.84132 105.122 7.01674 105.122 7.01674 104.946C7.19215 104.946 7.19215 104.771 7.36757 104.595C7.36757 104.42 7.54299 104.42 7.54299 104.244C7.54299 104.069 7.54299 103.893 7.54299 103.893C7.54299 103.718 7.54299 103.542 7.54299 103.542C7.54299 103.367 7.36757 103.191 7.36757 103.191C7.36757 103.016 7.19215 103.016 7.01674 103.016C6.84132 103.016 6.84132 102.84 6.66591 102.84C6.49049 102.84 6.31507 102.84 6.31507 103.016C6.13966 103.016 6.13966 103.191 5.96424 103.367C5.96424 103.542 5.78882 103.542 5.78882 103.718C5.78882 103.718 5.78882 103.718 5.78882 103.893Z" fill="#B5B6BC"/>
<path d="M12.4546 105.122C12.63 105.122 12.8054 105.122 12.8054 104.946C12.9808 104.946 12.9808 104.771 13.1563 104.771C13.1563 104.595 13.3317 104.595 13.3317 104.42C13.3317 104.244 13.3317 104.069 13.3317 104.069V102.314H14.0333V104.069C14.0333 104.244 14.0333 104.595 14.0333 104.771C14.0333 104.946 13.8579 105.122 13.6825 105.297C13.5071 105.473 13.3317 105.648 13.1563 105.648C12.9808 105.648 12.63 105.648 12.4546 105.648C12.1038 105.648 11.9284 105.648 11.7529 105.473C11.5775 105.297 11.4021 105.297 11.2267 105.122C11.0513 104.946 11.0513 104.771 11.0513 104.595C11.0513 104.42 11.0513 104.244 11.0513 103.893V102.138H11.7529V103.893C11.7529 104.069 11.7529 104.244 11.7529 104.244C11.7529 104.42 11.7529 104.42 11.9284 104.595C11.9284 104.771 12.1038 104.771 12.1038 104.771C12.1038 105.122 12.2792 105.122 12.4546 105.122Z" fill="#B5B6BC"/>
<path d="M16.489 105.648V102.138H18.0678C18.2432 102.138 18.4186 102.138 18.594 102.314C18.7694 102.314 18.7694 102.489 18.9448 102.665C19.1203 102.84 19.1203 102.84 19.1203 103.016C19.1203 103.191 19.1203 103.367 19.1203 103.367C19.1203 103.542 19.1203 103.718 18.9448 104.069C18.7694 104.244 18.594 104.42 18.4186 104.42L19.2957 105.648H18.594L17.8923 104.42H17.1907V105.648H16.489ZM17.1907 103.893H18.0678H18.2432C18.2432 103.893 18.4186 103.893 18.4186 103.718C18.4186 103.718 18.4186 103.542 18.594 103.542V103.367V103.191C18.594 103.191 18.594 103.016 18.4186 103.016L18.2432 102.84H18.0678H17.1907V103.893Z" fill="#B5B6BC"/>
<path d="M27.365 102.84H26.3125V105.648H25.6108V102.84H24.5583V102.138H27.5404V102.84H27.365Z" fill="#B5B6BC"/>
<path d="M29.1191 105.648L30.5225 102.138H31.0487L32.452 105.648H31.7504L31.3996 104.771H30.1716L29.8208 105.648H29.1191ZM30.8733 102.84L30.3471 104.244H31.3996L30.8733 102.84Z" fill="#B5B6BC"/>
<path d="M37.1883 105.297C36.8374 105.473 36.4866 105.648 36.1358 105.648C35.9603 105.648 35.7849 105.648 35.4341 105.473C35.2587 105.297 35.0833 105.297 34.9078 105.122C34.7324 104.946 34.7324 104.771 34.557 104.595C34.557 104.42 34.3816 104.069 34.3816 103.893C34.3816 103.718 34.3816 103.367 34.557 103.191C34.557 103.016 34.7324 102.84 34.9078 102.665C35.0833 102.489 35.2587 102.314 35.4341 102.314C35.6095 102.138 35.7849 102.138 36.1358 102.138C36.4866 102.138 36.662 102.138 37.0128 102.314C37.1883 102.489 37.3637 102.665 37.5391 102.84L37.0128 103.191C37.0128 103.016 36.8374 102.84 36.662 102.84C36.4866 102.665 36.3112 102.665 36.1358 102.665C35.9603 102.665 35.7849 102.665 35.7849 102.84C35.6095 102.84 35.6095 103.016 35.4341 103.016C35.4341 103.191 35.2587 103.191 35.2587 103.367C35.2587 103.542 35.2587 103.718 35.2587 103.893C35.2587 104.069 35.2587 104.244 35.2587 104.42C35.2587 104.595 35.4341 104.771 35.4341 104.771C35.6095 104.946 35.6095 104.946 35.7849 104.946C35.9603 104.946 35.9603 105.122 36.1358 105.122C36.4866 105.122 36.662 104.946 37.0128 104.595V104.42H36.3112V103.893H37.5391V105.648H37.0128V105.297H37.1883Z" fill="#B5B6BC"/>
<path d="M40.1704 105.648V102.138H40.8721V105.122H42.6262V105.648H40.1704Z" fill="#B5B6BC"/>
<path d="M45.082 105.648V102.138H45.7837V105.648H45.082Z" fill="#B5B6BC"/>
<path d="M49.1165 103.367V105.648H48.4148V102.138H48.941L50.6952 104.42V102.138H51.3969V105.648H50.8706L49.1165 103.367Z" fill="#B5B6BC"/>
<path d="M56.6594 105.122V105.648H54.2036V102.138H56.6594V102.665H54.9053V103.542H56.3086V104.069H54.9053V104.946H56.6594V105.122Z" fill="#B5B6BC"/>
<path d="M64.3778 103.016C64.2024 103.016 64.3778 103.016 64.3778 103.016C64.2024 102.841 64.2024 102.841 64.027 102.841C64.027 102.841 63.8516 102.841 63.6762 102.665C63.5007 102.665 63.5007 102.665 63.3253 102.665C63.1499 102.665 62.9745 102.665 62.9745 102.841C62.7991 102.841 62.7991 103.016 62.7991 103.192V103.367C62.7991 103.367 62.7991 103.543 62.9745 103.543C62.9745 103.543 63.1499 103.543 63.1499 103.718C63.3253 103.718 63.3253 103.718 63.5007 103.894C63.6762 103.894 63.8516 104.069 64.027 104.069C64.2024 104.069 64.2024 104.245 64.3778 104.245C64.5532 104.245 64.5532 104.42 64.5532 104.596C64.5532 104.771 64.5532 104.771 64.5532 104.947C64.5532 105.122 64.5532 105.298 64.3778 105.473C64.3778 105.649 64.2024 105.649 64.027 105.824C63.8516 105.824 63.8516 106 63.6762 106C63.5007 106 63.3253 106 63.1499 106C62.7991 106 62.6237 106 62.4482 105.824C62.2728 105.824 61.922 105.649 61.7466 105.473L62.0974 104.947C62.0974 104.947 62.0974 104.947 62.2728 105.122C62.2728 105.122 62.4482 105.298 62.6237 105.298C62.7991 105.298 62.7991 105.298 62.9745 105.473C63.1499 105.473 63.1499 105.473 63.3253 105.473C63.6762 105.473 63.8516 105.298 63.8516 105.122V104.947L63.6762 104.771C63.6762 104.771 63.5007 104.771 63.3253 104.596C63.1499 104.596 63.1499 104.596 62.9745 104.42C62.7991 104.42 62.6237 104.245 62.6237 104.245C62.4482 104.245 62.4482 104.069 62.2728 104.069L62.0974 103.894C62.0974 103.718 62.0974 103.718 62.0974 103.543C62.0974 103.367 62.0974 103.192 62.2728 103.016C62.2728 102.841 62.4482 102.841 62.6237 102.665C62.7991 102.49 62.7991 102.49 62.9745 102.49C63.1499 102.49 63.3253 102.49 63.5007 102.49C63.6762 102.49 64.027 102.49 64.2024 102.665C64.3778 102.665 64.5532 102.841 64.7287 103.016H64.3778Z" fill="#B5B6BC"/>
<path d="M67.1843 105.648V102.138H68.5877C68.7631 102.138 68.9385 102.138 69.1139 102.314C69.2893 102.314 69.2893 102.489 69.4647 102.665C69.6402 102.84 69.6402 102.84 69.6402 103.016C69.6402 103.191 69.6402 103.367 69.6402 103.367C69.6402 103.542 69.6402 103.718 69.6402 103.718C69.6402 103.893 69.4647 104.069 69.4647 104.069C69.2893 104.244 69.2893 104.244 69.1139 104.244C68.9385 104.244 68.7631 104.42 68.5877 104.42H67.7106V105.648H67.1843ZM67.886 103.893H68.5877C68.7631 103.893 68.7631 103.893 68.9385 103.718C68.9385 103.542 69.1139 103.542 69.1139 103.367V103.191C69.1139 103.191 69.1139 103.016 68.9385 103.016C68.9385 103.016 68.7631 103.016 68.7631 102.84H68.5877H67.886V103.893Z" fill="#B5B6BC"/>
<path d="M71.7454 105.648L73.1487 102.138H73.6749L75.0783 105.648H74.3766L74.0258 104.771H72.7979L72.447 105.648H71.7454ZM73.3241 102.84L72.7979 104.244H73.8504L73.3241 102.84Z" fill="#B5B6BC"/>
<path d="M77.0078 103.893C77.0078 103.718 77.0078 103.542 77.1832 103.191C77.1832 103.016 77.3586 102.84 77.5341 102.665C77.7095 102.489 77.8849 102.314 78.0603 102.314C78.2357 102.138 78.5866 102.138 78.762 102.138C79.1128 102.138 79.2882 102.138 79.6391 102.314C79.8145 102.489 79.9899 102.665 80.1653 102.84L79.6391 103.191C79.6391 103.016 79.4636 103.016 79.4636 103.016L79.2882 102.84H79.1128H78.9374C78.762 102.84 78.5866 102.84 78.5866 103.016C78.4111 103.016 78.4111 103.191 78.2357 103.367C78.2357 103.542 78.0603 103.542 78.0603 103.718C78.0603 103.893 78.0603 104.069 78.0603 104.069C78.0603 104.244 78.0603 104.42 78.0603 104.595C78.0603 104.771 78.2357 104.946 78.2357 104.946C78.2357 105.122 78.4111 105.122 78.5866 105.122C78.762 105.122 78.762 105.297 78.9374 105.297H79.1128C79.1128 105.297 79.2882 105.297 79.2882 105.122L79.4636 104.946L79.6391 104.771L80.1653 105.122C80.1653 105.297 79.9899 105.297 79.9899 105.473C79.8145 105.648 79.8145 105.648 79.6391 105.648C79.4636 105.648 79.2882 105.824 79.2882 105.824H78.9374C78.762 105.824 78.4111 105.824 78.2357 105.648C78.0603 105.473 77.8849 105.473 77.7095 105.297C77.5341 105.122 77.5341 104.946 77.3586 104.771C77.1832 104.42 77.0078 104.069 77.0078 103.893Z" fill="#B5B6BC"/>
<path d="M84.9016 105.122V105.648H82.4458V102.138H84.9016V102.665H83.1475V103.542H84.5508V104.069H83.1475V104.946H84.9016V105.122Z" fill="#B5B6BC"/>
<path d="M93.4968 102.138V105.648H92.9706V104.244H91.3918V105.648H90.6902V102.138H91.3918V103.542H92.9706V102.138H93.4968Z" fill="#B5B6BC"/>
<path d="M98.7595 105.122V105.648H96.3037V102.138H98.7595V102.665H97.0054V103.542H98.4087V104.069H97.0054V104.946H98.7595V105.122Z" fill="#B5B6BC"/>
<path d="M101.215 105.648V102.138H102.794C102.969 102.138 103.145 102.138 103.32 102.314C103.496 102.314 103.496 102.489 103.671 102.665C103.847 102.84 103.847 102.84 103.847 103.016C103.847 103.191 103.847 103.367 103.847 103.367C103.847 103.542 103.847 103.718 103.671 104.069C103.496 104.244 103.32 104.42 103.145 104.42L104.022 105.648H103.32L102.619 104.42H101.917V105.648H101.215ZM101.917 103.893H102.794H102.97C102.97 103.893 103.145 103.893 103.145 103.718C103.145 103.718 103.145 103.542 103.32 103.542V103.367V103.191C103.32 103.191 103.32 103.016 103.145 103.016L102.97 102.84H102.794H101.917V103.893Z" fill="#B5B6BC"/>
<path d="M108.934 105.122V105.648H106.478V102.138H108.758V102.665H107.004V103.542H108.407V104.069H107.004V104.946H108.934V105.122Z" fill="#B5B6BC"/>
</svg>
