<svg width="133" height="117" viewBox="0 0 133 117" fill="none" xmlns="http://www.w3.org/2000/svg">
<g clip-path="url(#clip0_507_9264)">
<path d="M10.001 104.005V106.764H0.408936V92.4692H3.63682V104.005H10.001Z" fill="#B5B6BC"/>
<path d="M25.3164 99.6052C25.3164 100.836 25.1333 101.908 24.767 102.843C24.4007 103.777 23.8971 104.552 23.2561 105.168C22.6151 105.784 21.8596 106.262 20.9897 106.581C20.1198 106.901 19.1812 107.06 18.1739 107.06C17.1895 107.06 16.2738 106.901 15.4038 106.581C14.5339 106.262 13.7784 105.784 13.1374 105.168C12.4964 104.552 11.9699 103.754 11.6036 102.843C11.2373 101.908 11.0542 100.836 11.0542 99.6052C11.0542 98.3741 11.2373 97.3026 11.6265 96.3679C12.0157 95.4332 12.5422 94.658 13.1832 94.0197C13.8471 93.3813 14.6026 92.9026 15.4496 92.6062C16.3195 92.287 17.2124 92.1274 18.1739 92.1274C19.1583 92.1274 20.074 92.287 20.9439 92.6062C21.8138 92.9254 22.5693 93.4041 23.2103 94.0197C23.8513 94.658 24.3778 95.4332 24.7441 96.3679C25.1333 97.3254 25.3164 98.3969 25.3164 99.6052ZM14.3737 99.6052C14.3737 100.312 14.4652 100.928 14.6255 101.497C14.8086 102.067 15.0376 102.546 15.3809 102.957C15.7014 103.367 16.1135 103.686 16.5714 103.891C17.0292 104.119 17.5787 104.21 18.1968 104.21C18.792 104.21 19.3185 104.096 19.7993 103.891C20.28 103.663 20.6692 103.367 20.9897 102.957C21.3102 102.546 21.562 102.067 21.7451 101.497C21.9283 100.928 21.997 100.312 21.997 99.6052C21.997 98.8985 21.9054 98.2601 21.7451 97.6902C21.562 97.1202 21.3331 96.6415 20.9897 96.2311C20.6692 95.8207 20.2571 95.5244 19.7993 95.2964C19.3185 95.0684 18.792 94.9772 18.1968 94.9772C17.5787 94.9772 17.0521 95.0912 16.5714 95.3192C16.1135 95.5472 15.7014 95.8663 15.3809 96.2767C15.0604 96.6871 14.8086 97.1658 14.6255 97.7358C14.4423 98.3057 14.3737 98.9213 14.3737 99.6052Z" fill="#B5B6BC"/>
<path d="M35.0001 94.9546C33.4891 94.9546 32.4132 95.3649 31.7493 96.2085C31.0854 97.0292 30.742 98.1691 30.742 99.6282C30.742 100.335 30.8336 100.973 30.9938 101.543C31.1541 102.113 31.4059 102.615 31.7493 103.025C32.0698 103.435 32.5048 103.755 32.9855 103.983C33.4891 104.211 34.0615 104.325 34.7254 104.325C35.0916 104.325 35.3892 104.325 35.6411 104.302C35.8929 104.279 36.1218 104.256 36.305 104.211V99.2406H39.5328V106.308C39.1437 106.468 38.5256 106.627 37.6785 106.787C36.8315 106.969 35.7555 107.038 34.5193 107.038C33.4434 107.038 32.459 106.878 31.589 106.536C30.7191 106.217 29.9637 105.715 29.3455 105.1C28.7274 104.461 28.2467 103.686 27.9033 102.774C27.5599 101.862 27.3997 100.791 27.3997 99.6282C27.3997 98.4427 27.5828 97.3712 27.9491 96.4592C28.3154 95.5473 28.8419 94.7494 29.4829 94.111C30.1239 93.4727 30.9023 92.9939 31.7722 92.6519C32.6421 92.3328 33.5807 92.1504 34.588 92.1504C35.2748 92.1504 35.87 92.196 36.4194 92.2872C36.9689 92.3784 37.4267 92.4696 37.8388 92.6064C38.228 92.7203 38.5485 92.8343 38.8232 92.9711C39.075 93.0851 39.2581 93.1991 39.3726 93.2675L38.434 95.8437C37.999 95.6157 37.4954 95.4105 36.9231 95.2281C36.305 95.0458 35.6869 94.9546 35.0001 94.9546Z" fill="#B5B6BC"/>
<path d="M56.2217 99.6052C56.2217 100.836 56.0386 101.908 55.6723 102.843C55.306 103.777 54.8023 104.552 54.1613 105.168C53.5203 105.784 52.7649 106.262 51.895 106.581C51.025 106.901 50.0864 107.06 49.0791 107.06C48.0948 107.06 47.179 106.901 46.3091 106.581C45.4392 106.262 44.6837 105.784 44.0427 105.168C43.4017 104.552 42.8752 103.754 42.5089 102.843C42.1426 101.908 41.9595 100.836 41.9595 99.6052C41.9595 98.3741 42.1426 97.3026 42.5318 96.3679C42.921 95.4332 43.4475 94.658 44.0885 94.0197C44.7524 93.3813 45.5079 92.9026 46.3549 92.6062C47.2248 92.287 48.1176 92.1274 49.0791 92.1274C50.0635 92.1274 50.9792 92.287 51.8492 92.6062C52.7191 92.9254 53.4746 93.4041 54.1156 94.0197C54.7566 94.658 55.2831 95.4332 55.6494 96.3679C56.0157 97.3254 56.2217 98.3969 56.2217 99.6052ZM45.256 99.6052C45.256 100.312 45.3476 100.928 45.5079 101.497C45.691 102.067 45.9199 102.546 46.2633 102.957C46.5838 103.367 46.973 103.686 47.4538 103.891C47.9116 104.119 48.461 104.21 49.0791 104.21C49.6744 104.21 50.2009 104.096 50.6816 103.891C51.1624 103.663 51.5516 103.367 51.8721 102.957C52.1926 102.546 52.4444 102.067 52.6275 101.497C52.8107 100.928 52.8793 100.312 52.8793 99.6052C52.8793 98.8985 52.7878 98.2601 52.6275 97.6902C52.4444 97.1202 52.2155 96.6415 51.8721 96.2311C51.5516 95.8207 51.1395 95.5244 50.6816 95.2964C50.2009 95.0684 49.6744 94.9772 49.0791 94.9772C48.461 94.9772 47.9345 95.0912 47.4538 95.3192C46.973 95.5472 46.5838 95.8663 46.2633 96.2767C45.9428 96.6871 45.691 97.1658 45.5079 97.7358C45.3476 98.3057 45.256 98.9213 45.256 99.6052Z" fill="#B5B6BC"/>
<path d="M71.4683 99.6055C71.4683 100.837 71.2852 101.931 70.896 102.843C70.5068 103.755 69.9574 104.53 69.2477 105.123C68.538 105.738 67.6681 106.171 66.6379 106.49C65.6077 106.787 64.4631 106.946 63.204 106.946C62.6317 106.946 61.9449 106.924 61.1665 106.878C60.3882 106.832 59.6327 106.741 58.9001 106.582V92.652C59.6556 92.5152 60.4111 92.4241 61.2352 92.3785C62.0365 92.3329 62.7461 92.3101 63.3185 92.3101C64.5547 92.3101 65.6535 92.4469 66.6608 92.7204C67.6681 92.994 68.5151 93.4272 69.2477 94.0199C69.9574 94.6127 70.5068 95.365 70.896 96.2997C71.2852 97.2116 71.4683 98.3288 71.4683 99.6055ZM62.128 104.142C62.2883 104.165 62.4485 104.165 62.6546 104.165C62.8606 104.165 63.0895 104.165 63.3643 104.165C64.9896 104.165 66.1801 103.755 66.9584 102.957C67.7368 102.136 68.126 101.019 68.126 99.6055C68.126 98.1008 67.7597 96.9837 67.0042 96.2085C66.2487 95.4334 65.0812 95.0458 63.4558 95.0458C63.2269 95.0458 62.998 95.0458 62.769 95.0458C62.5401 95.0458 62.3112 95.0686 62.1051 95.0914V104.142H62.128Z" fill="#B5B6BC"/>
<path d="M74.1697 106.764V92.4692H83.8534V95.1594H77.3976V97.9636H83.1437V100.608H77.3976V104.051H84.3341V106.741H74.1697V106.764Z" fill="#B5B6BC"/>
<path d="M90.6296 104.325C91.0874 104.325 91.4537 104.279 91.7513 104.211C92.0489 104.142 92.2778 104.028 92.461 103.891C92.6441 103.755 92.7586 103.618 92.8273 103.435C92.896 103.253 92.9417 103.048 92.9417 102.843C92.9417 102.387 92.7128 101.976 92.2778 101.68C91.8429 101.361 91.0874 101.042 89.9886 100.677C89.5078 100.517 89.05 100.312 88.5921 100.107C88.1343 99.9018 87.6993 99.6282 87.333 99.309C86.9667 98.9898 86.6462 98.6023 86.4173 98.1235C86.1884 97.6675 86.0739 97.0976 86.0739 96.4364C86.0739 95.7753 86.1884 95.1825 86.4402 94.6582C86.692 94.1338 87.0354 93.6779 87.4932 93.3131C87.9511 92.9483 88.5005 92.6519 89.1415 92.4468C89.7825 92.2416 90.5151 92.1504 91.3392 92.1504C92.3007 92.1504 93.1478 92.2644 93.8346 92.4696C94.5442 92.6747 95.1166 92.9027 95.5744 93.1535L94.6358 95.6841C94.2466 95.4789 93.7888 95.2965 93.308 95.1369C92.8273 94.9774 92.2321 94.909 91.5453 94.909C90.7669 94.909 90.2175 95.023 89.8741 95.2281C89.5307 95.4333 89.3705 95.7753 89.3705 96.2085C89.3705 96.4592 89.4391 96.6872 89.5536 96.8696C89.6681 97.052 89.8512 97.2116 90.0801 97.3484C90.3091 97.4851 90.5609 97.6219 90.8585 97.7359C91.1561 97.8499 91.4766 97.9639 91.8429 98.1007C92.5983 98.3743 93.2393 98.6479 93.7888 98.9214C94.3382 99.195 94.7961 99.4914 95.1623 99.8562C95.5286 100.221 95.8033 100.631 95.9865 101.11C96.1696 101.589 96.2612 102.182 96.2612 102.866C96.2612 104.188 95.8033 105.237 94.8647 105.966C93.9261 106.696 92.5068 107.06 90.6296 107.06C89.9886 107.06 89.4162 107.015 88.9126 106.946C88.409 106.878 87.9511 106.787 87.5619 106.673C87.1728 106.559 86.8294 106.445 86.5546 106.331C86.2799 106.217 86.0281 106.08 85.845 105.989L86.7607 103.435C87.1956 103.663 87.7222 103.869 88.3403 104.074C88.9355 104.233 89.7139 104.325 90.6296 104.325Z" fill="#B5B6BC"/>
<path d="M98.7566 92.4692H101.984V106.764H98.7566V92.4692Z" fill="#B5B6BC"/>
<path d="M112.309 94.9546C110.798 94.9546 109.722 95.3649 109.058 96.2085C108.394 97.0292 108.051 98.1691 108.051 99.6282C108.051 100.335 108.143 100.973 108.303 101.543C108.463 102.113 108.715 102.615 109.058 103.025C109.379 103.435 109.814 103.755 110.295 103.983C110.798 104.211 111.371 104.325 112.034 104.325C112.401 104.325 112.698 104.325 112.95 104.302C113.202 104.279 113.431 104.256 113.614 104.211V99.2406H116.842V106.308C116.453 106.468 115.835 106.627 114.988 106.787C114.141 106.969 113.065 107.038 111.828 107.038C110.752 107.038 109.768 106.878 108.898 106.536C108.028 106.217 107.273 105.715 106.655 105.1C106.037 104.461 105.556 103.686 105.212 102.774C104.869 101.862 104.709 100.791 104.709 99.6282C104.709 98.4427 104.892 97.3712 105.258 96.4592C105.624 95.5473 106.151 94.7494 106.792 94.111C107.433 93.4727 108.211 92.9939 109.081 92.6519C109.951 92.3328 110.89 92.1504 111.897 92.1504C112.584 92.1504 113.179 92.196 113.729 92.2872C114.278 92.3784 114.736 92.4696 115.148 92.6064C115.537 92.7203 115.858 92.8343 116.132 92.9711C116.384 93.0851 116.567 93.1991 116.682 93.2675L115.743 95.8437C115.308 95.6157 114.804 95.4105 114.209 95.2281C113.614 95.0458 112.973 94.9546 112.309 94.9546Z" fill="#B5B6BC"/>
<path d="M129.479 106.764C128.563 105.122 127.556 103.504 126.48 101.908C125.404 100.312 124.259 98.8071 123.046 97.3936V106.764H119.864V92.4692H122.496C122.954 92.9252 123.458 93.4724 124.007 94.1335C124.557 94.7946 125.129 95.5014 125.701 96.2537C126.274 97.0061 126.846 97.7812 127.418 98.5791C127.991 99.3771 128.517 100.152 129.021 100.905V92.4692H132.226V106.764H129.479Z" fill="#B5B6BC"/>
<path d="M1.89687 116.088C2.05712 116.088 2.17159 116.065 2.26316 116.042C2.35473 116.019 2.4463 115.974 2.49209 115.951C2.56077 115.905 2.58366 115.86 2.60655 115.791C2.62945 115.723 2.65234 115.655 2.65234 115.586C2.65234 115.427 2.58366 115.313 2.42341 115.199C2.28605 115.085 2.03423 114.994 1.66795 114.857C1.5077 114.811 1.34745 114.743 1.21009 114.674C1.04984 114.606 0.912483 114.515 0.798019 114.401C0.683555 114.287 0.569091 114.173 0.500413 114.013C0.431734 113.854 0.385948 113.671 0.385948 113.443C0.385948 113.215 0.431734 113.033 0.500413 112.851C0.591984 112.668 0.706448 112.531 0.843805 112.395C1.00405 112.281 1.1872 112.167 1.39323 112.121C1.59927 112.053 1.85109 112.03 2.1258 112.03C2.4463 112.03 2.72102 112.053 2.94994 112.121C3.17887 112.189 3.38491 112.258 3.52227 112.349L3.20177 113.192C3.06441 113.124 2.92705 113.056 2.7668 113.01C2.60655 112.965 2.40052 112.942 2.17159 112.942C1.91977 112.942 1.73663 112.987 1.62216 113.056C1.5077 113.124 1.46191 113.238 1.46191 113.375C1.46191 113.466 1.4848 113.534 1.53059 113.603C1.57638 113.671 1.62216 113.717 1.71373 113.762C1.78241 113.808 1.87398 113.854 1.96555 113.899C2.05712 113.945 2.17159 113.968 2.28605 114.013C2.53787 114.104 2.74391 114.196 2.92705 114.287C3.11019 114.378 3.27044 114.469 3.38491 114.606C3.49937 114.72 3.59094 114.857 3.65962 115.016C3.7283 115.176 3.75119 115.381 3.75119 115.609C3.75119 116.042 3.59094 116.407 3.29334 116.635C2.97284 116.886 2.51498 117 1.87398 117C1.66795 117 1.46191 116.977 1.30166 116.954C1.14141 116.931 0.981162 116.909 0.843805 116.863C0.706448 116.817 0.591984 116.795 0.500413 116.749C0.408841 116.703 0.31727 116.658 0.271484 116.635L0.569091 115.791C0.706448 115.86 0.889591 115.928 1.09563 115.997C1.32455 116.065 1.59927 116.088 1.89687 116.088Z" fill="#B5B6BC"/>
<path d="M12.748 115.997V116.909H9.54297V112.167H10.6189V115.997H12.748Z" fill="#B5B6BC"/>
<path d="M22.9353 114.538C22.9353 114.948 22.8667 115.313 22.7522 115.609C22.6377 115.928 22.4546 116.179 22.2486 116.384C22.0425 116.59 21.7907 116.749 21.4931 116.863C21.1955 116.977 20.8979 117.023 20.5545 117.023C20.234 117.023 19.9135 116.977 19.6388 116.863C19.3412 116.749 19.0894 116.612 18.8833 116.384C18.6773 116.179 18.4941 115.928 18.3797 115.609C18.2652 115.29 18.1965 114.948 18.1965 114.538C18.1965 114.127 18.2652 113.763 18.3797 113.466C18.517 113.147 18.6773 112.896 18.9062 112.691C19.1351 112.486 19.387 112.326 19.6617 112.212C19.9593 112.098 20.2569 112.053 20.5774 112.053C20.8979 112.053 21.2184 112.098 21.4931 112.212C21.7907 112.326 22.0425 112.486 22.2486 112.691C22.4546 112.896 22.6377 113.17 22.7522 113.466C22.8667 113.763 22.9353 114.127 22.9353 114.538ZM19.2954 114.538C19.2954 114.766 19.3183 114.971 19.387 115.176C19.4556 115.358 19.5243 115.518 19.6388 115.655C19.7532 115.792 19.8677 115.883 20.028 115.974C20.1882 116.042 20.3714 116.088 20.5545 116.088C20.7605 116.088 20.9208 116.042 21.081 115.974C21.2413 115.906 21.3786 115.792 21.4702 115.655C21.5618 115.518 21.6533 115.358 21.722 115.176C21.7907 114.994 21.8136 114.788 21.8136 114.538C21.8136 114.31 21.7907 114.082 21.722 113.899C21.6533 113.717 21.5847 113.557 21.4702 113.421C21.3557 113.284 21.2184 113.193 21.081 113.101C20.9208 113.033 20.7376 112.987 20.5545 112.987C20.3485 112.987 20.1653 113.033 20.028 113.101C19.8677 113.17 19.7304 113.284 19.6388 113.421C19.5243 113.557 19.4556 113.717 19.387 113.899C19.3183 114.105 19.2954 114.31 19.2954 114.538Z" fill="#B5B6BC"/>
<path d="M31.108 112.987C30.6044 112.987 30.2381 113.124 30.032 113.398C29.8031 113.671 29.6886 114.059 29.6886 114.538C29.6886 114.766 29.7115 114.971 29.7802 115.176C29.826 115.358 29.9176 115.518 30.032 115.655C30.1465 115.791 30.2839 115.905 30.4441 115.974C30.6044 116.042 30.8104 116.088 31.0164 116.088C31.1309 116.088 31.2454 116.088 31.314 116.088C31.4056 116.088 31.4743 116.065 31.543 116.065V114.424H32.6189V116.772C32.4816 116.817 32.2755 116.886 32.0008 116.931C31.7261 117 31.3598 117.023 30.9477 117.023C30.5815 117.023 30.261 116.977 29.9634 116.863C29.6658 116.749 29.4139 116.589 29.2079 116.384C29.0019 116.179 28.8416 115.905 28.7271 115.609C28.6127 115.313 28.5669 114.948 28.5669 114.56C28.5669 114.173 28.6356 113.808 28.75 113.512C28.8645 113.215 29.0476 112.942 29.2537 112.736C29.4597 112.531 29.7115 112.372 30.0091 112.258C30.3067 112.144 30.6044 112.098 30.9477 112.098C31.1767 112.098 31.3827 112.121 31.5659 112.144C31.749 112.167 31.9092 112.212 32.0237 112.258C32.1382 112.303 32.2526 112.326 32.3442 112.372C32.4358 112.417 32.4816 112.44 32.5274 112.463L32.2069 113.329C32.0695 113.261 31.8864 113.192 31.7032 113.124C31.543 113.01 31.3369 112.987 31.108 112.987Z" fill="#B5B6BC"/>
<path d="M41.7761 116.909C41.7303 116.749 41.6617 116.567 41.6159 116.407C41.5472 116.225 41.5014 116.065 41.4327 115.883H39.5784C39.5097 116.065 39.464 116.225 39.3953 116.407C39.3266 116.589 39.2808 116.749 39.235 116.909H38.1133C38.2964 116.407 38.4567 115.928 38.6169 115.495C38.7772 115.062 38.9374 114.651 39.0977 114.264C39.2579 113.876 39.3953 113.512 39.5555 113.17C39.7158 112.828 39.8531 112.486 40.0134 112.167H41.0207C41.1809 112.486 41.3412 112.828 41.4785 113.17C41.6388 113.512 41.7761 113.876 41.9364 114.264C42.0966 114.651 42.2569 115.062 42.4171 115.495C42.5774 115.928 42.7605 116.407 42.9208 116.909H41.7761ZM40.4712 113.238C40.4483 113.306 40.4026 113.398 40.3568 113.512C40.311 113.626 40.2652 113.762 40.1965 113.922C40.1278 114.082 40.0821 114.241 39.9905 114.446C39.9218 114.629 39.8531 114.834 39.7616 115.039H41.1351C41.0665 114.834 40.9978 114.629 40.9291 114.446C40.8604 114.264 40.7917 114.082 40.7231 113.922C40.6544 113.762 40.6086 113.626 40.5628 113.512C40.5399 113.398 40.517 113.306 40.4712 113.238Z" fill="#B5B6BC"/>
<path d="M51.6889 116.909C51.3913 116.361 51.0479 115.837 50.6816 115.29C50.3153 114.765 49.949 114.264 49.537 113.785V116.909H48.4839V112.167H49.3538C49.5141 112.326 49.6743 112.508 49.8575 112.714C50.0406 112.942 50.2237 113.17 50.4298 113.42C50.6129 113.671 50.819 113.922 51.0021 114.196C51.1852 114.469 51.3684 114.72 51.5286 114.971V112.167H52.6046V116.909H51.6889Z" fill="#B5B6BC"/>
<path d="M62.6314 112.987C62.1278 112.987 61.7615 113.124 61.5555 113.398C61.3265 113.671 61.2121 114.059 61.2121 114.538C61.2121 114.766 61.235 114.971 61.3037 115.176C61.3494 115.358 61.441 115.518 61.5555 115.655C61.6699 115.791 61.8073 115.905 61.9675 115.974C62.1278 116.042 62.3338 116.088 62.5399 116.088C62.6543 116.088 62.7688 116.088 62.8375 116.088C62.929 116.088 62.9977 116.065 63.0664 116.065V114.424H64.1424V116.772C64.005 116.817 63.799 116.886 63.5243 116.931C63.2495 117 62.8833 117.023 62.4712 117.023C62.1049 117.023 61.7844 116.977 61.4868 116.863C61.1892 116.749 60.9374 116.589 60.7313 116.384C60.5253 116.179 60.365 115.905 60.2506 115.609C60.1361 115.313 60.0903 114.948 60.0903 114.56C60.0903 114.173 60.159 113.808 60.2735 113.512C60.3879 113.215 60.5711 112.942 60.7771 112.736C60.9832 112.531 61.235 112.372 61.5326 112.258C61.8302 112.144 62.1278 112.098 62.4712 112.098C62.7001 112.098 62.9061 112.121 63.0893 112.144C63.2724 112.167 63.4327 112.212 63.5471 112.258C63.6845 112.303 63.7761 112.326 63.8677 112.372C63.9592 112.417 64.005 112.44 64.0508 112.463L63.7303 113.329C63.5929 113.261 63.4098 113.192 63.2266 113.124C63.0664 113.01 62.8604 112.987 62.6314 112.987Z" fill="#B5B6BC"/>
<path d="M74.6275 114.538C74.6275 114.948 74.5588 115.313 74.4444 115.609C74.3299 115.928 74.1468 116.179 73.9407 116.384C73.7347 116.59 73.4829 116.749 73.1852 116.863C72.8876 116.977 72.59 117.023 72.2466 117.023C71.9261 117.023 71.6056 116.977 71.3309 116.863C71.0333 116.749 70.7815 116.612 70.5755 116.384C70.3694 116.179 70.1863 115.928 70.0718 115.609C69.9573 115.29 69.8887 114.948 69.8887 114.538C69.8887 114.127 69.9573 113.763 70.0718 113.466C70.2092 113.147 70.3694 112.896 70.5984 112.691C70.8044 112.486 71.0791 112.326 71.3538 112.212C71.6514 112.098 71.949 112.053 72.2695 112.053C72.59 112.053 72.9105 112.098 73.1852 112.212C73.4829 112.326 73.7347 112.486 73.9407 112.691C74.1468 112.896 74.3299 113.17 74.4444 113.466C74.5817 113.763 74.6275 114.127 74.6275 114.538ZM70.9875 114.538C70.9875 114.766 71.0104 114.971 71.0791 115.176C71.1478 115.358 71.2165 115.518 71.3309 115.655C71.4454 115.792 71.5599 115.883 71.7201 115.974C71.8804 116.042 72.0635 116.088 72.2466 116.088C72.4527 116.088 72.6129 116.042 72.7732 115.974C72.9334 115.906 73.0708 115.792 73.1624 115.655C73.2539 115.518 73.3455 115.358 73.4142 115.176C73.4829 114.994 73.5057 114.788 73.5057 114.538C73.5057 114.31 73.4829 114.082 73.4142 113.899C73.3455 113.717 73.2768 113.557 73.1624 113.421C73.0479 113.284 72.9105 113.193 72.7732 113.101C72.6129 113.033 72.4298 112.987 72.2466 112.987C72.0406 112.987 71.8575 113.033 71.7201 113.101C71.5599 113.17 71.4225 113.284 71.3309 113.421C71.2165 113.557 71.1478 113.717 71.0791 113.899C71.0104 114.105 70.9875 114.31 70.9875 114.538Z" fill="#B5B6BC"/>
<path d="M80.488 116.909V112.167H83.7159V113.056H81.564V113.99H83.4641V114.857H81.564V115.997H83.8762V116.886H80.488V116.909Z" fill="#B5B6BC"/>
<path d="M90.9041 116.088C91.0644 116.088 91.1789 116.065 91.2704 116.042C91.362 116.019 91.4536 115.974 91.4994 115.951C91.568 115.905 91.5909 115.86 91.6138 115.791C91.6367 115.723 91.6367 115.655 91.6367 115.586C91.6367 115.427 91.568 115.313 91.4078 115.199C91.2704 115.085 91.0186 114.994 90.6523 114.857C90.4921 114.811 90.3318 114.743 90.1945 114.674C90.0342 114.606 89.8969 114.515 89.7824 114.401C89.6679 114.287 89.5535 114.173 89.4848 114.013C89.4161 113.854 89.3703 113.671 89.3703 113.443C89.3703 113.215 89.4161 113.033 89.4848 112.851C89.5764 112.668 89.6908 112.531 89.8282 112.395C89.9884 112.281 90.1716 112.167 90.3776 112.121C90.5836 112.053 90.8355 112.03 91.1102 112.03C91.4307 112.03 91.7054 112.053 91.9343 112.121C92.1632 112.189 92.3693 112.258 92.5066 112.349L92.1861 113.192C92.0488 113.124 91.9114 113.056 91.7512 113.01C91.5909 112.965 91.3849 112.942 91.156 112.942C90.9041 112.942 90.721 112.987 90.6065 113.056C90.4921 113.124 90.4463 113.238 90.4463 113.375C90.4463 113.466 90.4692 113.534 90.515 113.603C90.5608 113.671 90.6065 113.717 90.6981 113.762C90.7668 113.808 90.8584 113.854 90.9499 113.899C91.0415 113.945 91.156 113.968 91.2704 114.013C91.5222 114.104 91.7283 114.196 91.9114 114.287C92.0946 114.378 92.2548 114.469 92.3693 114.606C92.4837 114.72 92.5753 114.857 92.644 115.016C92.7127 115.176 92.7356 115.381 92.7356 115.609C92.7356 116.042 92.5753 116.407 92.2777 116.635C91.9572 116.886 91.4994 117 90.8584 117C90.6523 117 90.4463 116.977 90.286 116.954C90.1258 116.931 89.9655 116.909 89.8282 116.863C89.6908 116.817 89.5764 116.795 89.4848 116.749C89.3932 116.703 89.3016 116.658 89.2559 116.635L89.5535 115.791C89.6908 115.86 89.874 115.928 90.08 115.997C90.3547 116.065 90.6065 116.088 90.9041 116.088Z" fill="#B5B6BC"/>
<path d="M103.106 112.167H104.182V116.909H103.106V114.902H101.297V116.909H100.221V112.167H101.297V113.99H103.106V112.167Z" fill="#B5B6BC"/>
<path d="M110.226 116.909V112.167H113.453V113.056H111.302V113.99H113.202V114.857H111.302V115.997H113.614V116.886H110.226V116.909Z" fill="#B5B6BC"/>
<path d="M120.756 112.098C121.466 112.098 122.015 112.235 122.405 112.486C122.794 112.736 122.977 113.124 122.977 113.671C122.977 114.013 122.908 114.287 122.748 114.492C122.588 114.697 122.382 114.857 122.084 114.993C122.176 115.107 122.29 115.244 122.382 115.404C122.496 115.563 122.588 115.723 122.702 115.883C122.817 116.042 122.908 116.225 123 116.407C123.091 116.589 123.183 116.772 123.275 116.931H122.084C121.993 116.772 121.901 116.612 121.809 116.453C121.718 116.293 121.626 116.133 121.535 115.997C121.443 115.837 121.352 115.7 121.26 115.563C121.168 115.427 121.077 115.313 120.985 115.199H120.459V116.931H119.383V112.258C119.612 112.212 119.864 112.189 120.115 112.167C120.344 112.121 120.573 112.098 120.756 112.098ZM120.825 113.01C120.756 113.01 120.688 113.01 120.619 113.01C120.55 113.01 120.505 113.01 120.436 113.033V114.332H120.733C121.146 114.332 121.42 114.287 121.603 114.173C121.787 114.082 121.855 113.899 121.855 113.648C121.855 113.42 121.764 113.261 121.581 113.147C121.42 113.078 121.168 113.01 120.825 113.01Z" fill="#B5B6BC"/>
<path d="M128.906 116.909V112.167H132.134V113.056H129.982V113.99H131.882V114.857H129.982V115.997H132.294V116.886H128.906V116.909Z" fill="#B5B6BC"/>
<path d="M106.609 30.8229L68.4234 0.72938C67.1643 -0.250939 65.4015 -0.250939 64.1653 0.72938L25.9801 30.8229C24.8354 31.7348 24.3776 33.2623 24.8583 34.6302C25.3391 35.9981 26.644 36.9328 28.1091 36.9328H34.9999V53.5754L41.8677 58.4086V36.9328H90.6981V49.1526L97.5659 44.3422V36.9328H104.457C105.922 36.9328 107.227 36.0209 107.707 34.6302C108.188 33.2395 107.753 31.7348 106.609 30.8229ZM66.2943 7.774L94.5899 30.0934H37.9988L66.2943 7.774Z" fill="#B5B6BC"/>
<path d="M59.6096 76.4877L35.0227 59.1384V67.5737L57.6408 83.464C58.236 83.8743 58.9228 84.0795 59.6096 84.0795C60.2964 84.0795 61.0061 83.8743 61.5784 83.464L97.5659 58.1808V49.8823L59.6096 76.4877Z" fill="#B5B6BC"/>
</g>
<defs>
<clipPath id="clip0_507_9264">
<rect width="132" height="117" fill="white" transform="translate(0.294434)"/>
</clipPath>
</defs>
</svg>
