<svg width="112" height="94" viewBox="0 0 112 94" fill="none" xmlns="http://www.w3.org/2000/svg">
<g clip-path="url(#clip0_507_9237)">
<path d="M10.069 82.2832V85.0666H0.294434V70.6812H3.58559V82.2832H10.069Z" fill="#B5B6BC"/>
<path d="M25.6975 77.856C25.6975 79.0843 25.5087 80.1711 25.14 81.0989C24.7713 82.0356 24.2588 82.8132 23.6113 83.4405C22.9639 84.0679 22.1906 84.5451 21.3003 84.8632C20.4101 85.1813 19.4479 85.3403 18.4138 85.3403C17.4157 85.3403 16.4715 85.1813 15.5813 84.8632C14.691 84.5451 13.9177 84.0679 13.2613 83.4405C12.5959 82.8132 12.0833 82.0267 11.6966 81.0989C11.319 80.1623 11.1301 79.0843 11.1301 77.856C11.1301 76.6278 11.328 75.5409 11.7236 74.6131C12.1193 73.6765 12.6498 72.8989 13.3152 72.2538C13.9807 71.6176 14.754 71.1405 15.6352 70.8224C16.5165 70.5043 17.4427 70.3452 18.4138 70.3452C19.412 70.3452 20.3561 70.5043 21.2464 70.8224C22.1366 71.1405 22.9099 71.6176 23.5664 72.2538C24.2318 72.8901 24.7444 73.6765 25.131 74.6131C25.5087 75.5498 25.6975 76.6278 25.6975 77.856ZM14.5292 77.856C14.5292 78.5629 14.6191 79.1991 14.79 79.7647C14.9698 80.3302 15.2216 80.8162 15.5543 81.2315C15.887 81.6379 16.2917 81.956 16.7682 82.1769C17.2448 82.3979 17.7934 82.5127 18.4138 82.5127C19.0163 82.5127 19.5648 82.3979 20.0504 82.1769C20.536 81.956 20.9406 81.6379 21.2734 81.2315C21.6061 80.825 21.8578 80.339 22.0377 79.7647C22.2175 79.1991 22.2985 78.5629 22.2985 77.856C22.2985 77.1491 22.2085 76.5129 22.0377 75.9386C21.8578 75.3642 21.6061 74.8694 21.2734 74.4629C20.9406 74.0564 20.536 73.7383 20.0504 73.5174C19.5648 73.2965 19.0163 73.1817 18.4138 73.1817C17.7934 73.1817 17.2448 73.2965 16.7682 73.5263C16.2917 73.756 15.887 74.0741 15.5543 74.4806C15.2216 74.887 14.9698 75.3819 14.79 75.9562C14.6101 76.5394 14.5292 77.1668 14.5292 77.856Z" fill="#B5B6BC"/>
<path d="M35.58 73.1728C34.0424 73.1728 32.9363 73.5881 32.2529 74.4275C31.5695 75.267 31.2278 76.4068 31.2278 77.8648C31.2278 78.5717 31.3087 79.2079 31.4796 79.7823C31.6504 80.3566 31.9022 80.8515 32.2439 81.2668C32.5856 81.6821 33.0083 82.0002 33.5118 82.2299C34.0154 82.4597 34.6089 82.5745 35.2833 82.5745C35.652 82.5745 35.9667 82.5657 36.2185 82.5569C36.4792 82.5392 36.7041 82.5127 36.9019 82.4773V77.476H40.193V84.5892C39.7974 84.7394 39.1679 84.9073 38.2957 85.0752C37.4234 85.2519 36.3444 85.3315 35.0675 85.3315C33.9704 85.3315 32.9723 85.1636 32.0821 84.8366C31.1918 84.5008 30.4275 84.0237 29.789 83.3875C29.1596 82.7513 28.665 81.9737 28.3233 81.0459C27.9816 80.1181 27.8018 79.0577 27.8018 77.8737C27.8018 76.6719 27.9906 75.6027 28.3683 74.6749C28.7459 73.7471 29.2675 72.9607 29.9329 72.3157C30.5983 71.6706 31.3717 71.1846 32.2619 70.8488C33.1521 70.5131 34.1053 70.354 35.1214 70.354C35.8138 70.354 36.4343 70.3982 36.9918 70.4865C37.5493 70.5749 38.0259 70.6809 38.4306 70.7958C38.8352 70.9107 39.1589 71.0344 39.4197 71.1581C39.6805 71.2818 39.8693 71.379 39.9772 71.4497L39.024 74.0476C38.5744 73.809 38.0529 73.6057 37.4684 73.4379C36.9019 73.2611 36.2634 73.1728 35.58 73.1728Z" fill="#B5B6BC"/>
<path d="M57.1973 77.856C57.1973 79.0843 57.0084 80.1711 56.6398 81.0989C56.2711 82.0356 55.7585 82.8132 55.1111 83.4405C54.4636 84.0679 53.6903 84.5451 52.8001 84.8632C51.9099 85.1813 50.9477 85.3403 49.9136 85.3403C48.9154 85.3403 47.9713 85.1813 47.081 84.8632C46.1908 84.5451 45.4175 84.0679 44.761 83.4405C44.0956 82.8132 43.5831 82.0267 43.1964 81.0989C42.8187 80.1623 42.6299 79.0843 42.6299 77.856C42.6299 76.6278 42.8277 75.5409 43.2234 74.6131C43.619 73.6765 44.1496 72.8989 44.815 72.2538C45.4804 71.6176 46.2538 71.1405 47.135 70.8224C48.0162 70.5043 48.9424 70.3452 49.9136 70.3452C50.9117 70.3452 51.8559 70.5043 52.7461 70.8224C53.6364 71.1405 54.4097 71.6176 55.0661 72.2538C55.7315 72.8901 56.2441 73.6765 56.6308 74.6131C57.0084 75.5498 57.1973 76.6278 57.1973 77.856ZM46.0289 77.856C46.0289 78.5629 46.1189 79.1991 46.2897 79.7647C46.4696 80.3302 46.7213 80.8162 47.0541 81.2315C47.3868 81.6379 47.7914 81.956 48.268 82.1769C48.7446 82.3979 49.2931 82.5127 49.9136 82.5127C50.5161 82.5127 51.0646 82.3979 51.5502 82.1769C52.0357 81.956 52.4404 81.6379 52.7731 81.2315C53.1058 80.825 53.3576 80.339 53.5374 79.7647C53.7173 79.1991 53.7982 78.5629 53.7982 77.856C53.7982 77.1491 53.7083 76.5129 53.5374 75.9386C53.3576 75.3642 53.1058 74.8694 52.7731 74.4629C52.4404 74.0564 52.0357 73.7383 51.5502 73.5174C51.0646 73.2965 50.5161 73.1817 49.9136 73.1817C49.2931 73.1817 48.7446 73.2965 48.268 73.5263C47.7914 73.756 47.3868 74.0741 47.0541 74.4806C46.7213 74.887 46.4696 75.3819 46.2897 75.9562C46.1189 76.5394 46.0289 77.1668 46.0289 77.856Z" fill="#B5B6BC"/>
<path d="M70.3078 70.6812V73.4381H65.8926V85.0577H62.6015V73.4381H58.1863V70.6812H70.3078Z" fill="#B5B6BC"/>
<path d="M72.4211 85.0577V70.6812H82.3036V73.4027H75.7123V76.2215H81.5572V78.8812H75.7123V82.345H82.7892V85.0666H72.4211V85.0577Z" fill="#B5B6BC"/>
<path d="M94.0473 85.0577C93.6336 84.2536 93.184 83.4495 92.6984 82.6278C92.2129 81.806 91.6463 81.1079 91.0079 80.5424C90.8101 80.7545 90.5583 81.0549 90.2615 81.4349C89.9558 81.8148 89.6591 82.2213 89.3533 82.6454C89.0476 83.0696 88.7688 83.5202 88.508 83.9797C88.2473 84.4392 88.0494 84.8015 87.9236 85.0577H84.1648C84.7763 83.9355 85.5046 82.778 86.3499 81.5762C87.1862 80.3834 88.1214 79.1109 89.1555 77.7678L84.3716 70.6812H88.3642L91.1518 74.843L94.0023 70.6812H97.7611L93.0132 77.6176C94.2541 79.1463 95.2792 80.5601 96.0885 81.8325C96.8978 83.1137 97.5273 84.1829 97.9949 85.0577H94.0473Z" fill="#B5B6BC"/>
<path d="M111.294 70.6812V73.4381H106.879V85.0577H103.588V73.4381H99.1729V70.6812H111.294Z" fill="#B5B6BC"/>
<path d="M3.50468 93.2756C3.63057 93.2756 3.72948 93.2667 3.81041 93.2491C3.89134 93.2314 3.95429 93.2049 3.99925 93.1695C4.04421 93.1342 4.08018 93.09 4.09817 93.0458C4.11615 93.0016 4.12514 92.9486 4.12514 92.8868C4.12514 92.7631 4.0622 92.657 3.9453 92.5775C3.8284 92.498 3.62158 92.4096 3.33383 92.3124C3.20794 92.2682 3.08204 92.2152 2.95615 92.1622C2.83026 92.1092 2.71336 92.0385 2.61445 91.9501C2.51553 91.8618 2.4346 91.7557 2.37166 91.6409C2.30871 91.5171 2.27274 91.3669 2.27274 91.1902C2.27274 91.0135 2.30871 90.8544 2.37166 90.7131C2.4346 90.5717 2.53352 90.448 2.65941 90.3508C2.7853 90.2536 2.92918 90.174 3.10902 90.121C3.27987 90.068 3.4777 90.0415 3.70251 90.0415C3.96328 90.0415 4.18809 90.068 4.37692 90.121C4.56576 90.174 4.72762 90.2359 4.84452 90.3066L4.59274 90.9781C4.48483 90.9251 4.36793 90.8721 4.23305 90.8368C4.09817 90.7926 3.9453 90.7749 3.75646 90.7749C3.54964 90.7749 3.39677 90.8014 3.30685 90.8633C3.21693 90.9163 3.17197 91.0047 3.17197 91.1284C3.17197 91.1991 3.18995 91.2609 3.22592 91.3051C3.26189 91.3493 3.30685 91.3934 3.3698 91.4376C3.43274 91.473 3.50468 91.5083 3.58561 91.5437C3.66654 91.579 3.75646 91.6055 3.85538 91.6409C4.0532 91.7115 4.23305 91.7822 4.37692 91.8618C4.52979 91.9325 4.64669 92.0208 4.74561 92.1092C4.84452 92.2064 4.91646 92.3124 4.97041 92.445C5.01537 92.5687 5.04235 92.7277 5.04235 92.9133C5.04235 93.2667 4.91646 93.5406 4.66468 93.7439C4.41289 93.9383 4.02623 94.0355 3.52266 94.0355C3.35181 94.0355 3.19894 94.0266 3.05507 94.009C2.92018 93.9913 2.79429 93.9648 2.68639 93.9383C2.57848 93.9118 2.48856 93.8764 2.41662 93.8411C2.33569 93.8057 2.27274 93.7792 2.22778 93.7439L2.47057 93.0635C2.58747 93.1253 2.73135 93.1784 2.9022 93.2314C3.04608 93.249 3.2529 93.2756 3.50468 93.2756Z" fill="#AAAAAA"/>
<path d="M12.308 93.1873V93.9207H9.71826V90.1123H10.5905V93.1785H12.308V93.1873Z" fill="#AAAAAA"/>
<path d="M20.5808 92.0209C20.5808 92.3478 20.5359 92.6306 20.437 92.878C20.3381 93.1254 20.2032 93.3286 20.0323 93.4965C19.8615 93.6644 19.6546 93.7881 19.4209 93.8765C19.1871 93.9649 18.9263 94.0002 18.6565 94.0002C18.3957 94.0002 18.144 93.956 17.9102 93.8765C17.6764 93.7881 17.4695 93.6644 17.2987 93.4965C17.1278 93.3286 16.984 93.1254 16.885 92.878C16.7861 92.6306 16.7322 92.3478 16.7322 92.0209C16.7322 91.6939 16.7861 91.4112 16.885 91.1637C16.993 90.9163 17.1278 90.7131 17.3077 90.5364C17.4875 90.3685 17.6854 90.2448 17.9192 90.1564C18.1529 90.0681 18.3957 90.0327 18.6565 90.0327C18.9173 90.0327 19.1691 90.0769 19.4029 90.1564C19.6367 90.2448 19.8435 90.3685 20.0143 90.5364C20.1852 90.7043 20.3291 90.9163 20.428 91.1637C20.5359 91.4112 20.5808 91.6939 20.5808 92.0209ZM17.6224 92.0209C17.6224 92.2064 17.6494 92.3743 17.6943 92.5245C17.7393 92.6748 17.8112 92.8073 17.8922 92.9133C17.9821 93.0194 18.09 93.1077 18.2159 93.1608C18.3418 93.2226 18.4857 93.2491 18.6475 93.2491C18.8094 93.2491 18.9533 93.2226 19.0791 93.1608C19.205 93.0989 19.3129 93.0194 19.4029 92.9133C19.4928 92.8073 19.5557 92.6748 19.6007 92.5245C19.6457 92.3743 19.6726 92.2064 19.6726 92.0209C19.6726 91.8353 19.6457 91.6674 19.6007 91.5084C19.5557 91.3581 19.4838 91.2256 19.4029 91.1196C19.3129 91.0135 19.205 90.9252 19.0791 90.8722C18.9533 90.8103 18.8094 90.7838 18.6475 90.7838C18.4857 90.7838 18.3418 90.8103 18.2159 90.8722C18.09 90.934 17.9821 91.0135 17.8922 91.1284C17.8023 91.2344 17.7393 91.367 17.6943 91.5172C17.6494 91.6674 17.6224 91.8353 17.6224 92.0209Z" fill="#AAAAAA"/>
<path d="M27.2262 90.7838C26.8216 90.7838 26.5248 90.8987 26.345 91.1196C26.1651 91.3405 26.0752 91.6409 26.0752 92.0297C26.0752 92.2153 26.0932 92.3832 26.1382 92.5422C26.1831 92.6924 26.2461 92.825 26.336 92.931C26.4259 93.037 26.5338 93.1254 26.6687 93.1873C26.8036 93.2491 26.9564 93.2756 27.1363 93.2756C27.2352 93.2756 27.3161 93.2756 27.3881 93.2668C27.46 93.2668 27.514 93.2579 27.5679 93.2491V91.9237H28.4402V93.8058C28.3323 93.85 28.1704 93.8853 27.9366 93.9383C27.7028 93.9825 27.424 94.009 27.0823 94.009C26.7946 94.009 26.5248 93.9648 26.291 93.8765C26.0572 93.7881 25.8504 93.6644 25.6885 93.4877C25.5177 93.3198 25.3918 93.1166 25.3019 92.8691C25.212 92.6217 25.167 92.3478 25.167 92.0297C25.167 91.7116 25.2209 91.4288 25.3199 91.1814C25.4188 90.934 25.5626 90.7308 25.7335 90.5541C25.9044 90.3862 26.1112 90.2536 26.354 90.1653C26.5878 90.0769 26.8395 90.0327 27.1093 90.0327C27.2892 90.0327 27.46 90.0415 27.6039 90.0681C27.7478 90.0946 27.8737 90.1211 27.9816 90.1476C28.0895 90.1829 28.1794 90.2094 28.2423 90.2448C28.3143 90.2801 28.3592 90.3066 28.3862 90.3243L28.1344 91.0135C28.0175 90.9517 27.8826 90.8987 27.7208 90.8545C27.5769 90.8015 27.4061 90.7838 27.2262 90.7838Z" fill="#AAAAAA"/>
<path d="M35.8766 93.9295C35.8316 93.797 35.7866 93.6644 35.7417 93.523C35.6877 93.3817 35.6428 93.2491 35.5978 93.1077H34.0871C34.0422 93.2491 33.9882 93.3817 33.9432 93.523C33.8983 93.6644 33.8443 93.797 33.8084 93.9295H32.9001C33.044 93.523 33.1879 93.1431 33.3138 92.7896C33.4487 92.445 33.5746 92.1181 33.7005 91.8088C33.8263 91.4995 33.9522 91.2079 34.0691 90.934C34.195 90.6601 34.3209 90.3862 34.4468 90.1211H35.2741C35.4 90.3862 35.5259 90.6513 35.6518 90.934C35.7777 91.2079 35.9035 91.4995 36.0294 91.8088C36.1553 92.1181 36.2812 92.445 36.4161 92.7896C36.551 93.1342 36.6859 93.5142 36.8297 93.9295H35.8766ZM34.8335 90.987C34.8155 91.0401 34.7885 91.1196 34.7525 91.2168C34.7166 91.314 34.6716 91.42 34.6266 91.5437C34.5817 91.6674 34.5277 91.8088 34.4648 91.959C34.4018 92.1092 34.3479 92.2683 34.2849 92.4273H35.391C35.328 92.2595 35.2741 92.1004 35.2201 91.9502C35.1662 91.8 35.1122 91.6586 35.0583 91.5349C35.0043 91.4112 34.9684 91.2963 34.9234 91.2079C34.8874 91.1107 34.8604 91.0401 34.8335 90.987Z" fill="#AAAAAA"/>
<path d="M43.9337 93.9295C43.6819 93.4965 43.4122 93.0636 43.1244 92.6394C42.8367 92.2153 42.5219 91.8176 42.1982 91.4377V93.9295H41.335V90.1211H42.0453C42.1712 90.2448 42.3061 90.3862 42.45 90.5629C42.6029 90.7396 42.7467 90.9252 42.9086 91.1284C43.0615 91.3317 43.2143 91.5349 43.3672 91.747C43.5201 91.959 43.6639 92.1711 43.7988 92.3655V90.1211H44.6621V93.9295H43.9337Z" fill="#AAAAAA"/>
<path d="M52.818 90.7838C52.4133 90.7838 52.1166 90.8987 51.9368 91.1196C51.7569 91.3405 51.667 91.6409 51.667 92.0297C51.667 92.2153 51.685 92.3832 51.7299 92.5422C51.7749 92.6924 51.8378 92.825 51.9278 92.931C52.0177 93.037 52.1256 93.1254 52.2605 93.1873C52.3954 93.2491 52.5482 93.2756 52.7281 93.2756C52.827 93.2756 52.9079 93.2756 52.9799 93.2668C53.0518 93.2668 53.1057 93.2579 53.1597 93.2491V91.9237H54.0319V93.8058C53.924 93.85 53.7622 93.8853 53.5284 93.9383C53.2946 93.9825 53.0158 94.009 52.6741 94.009C52.3864 94.009 52.1166 93.9648 51.8828 93.8765C51.649 93.7881 51.4422 93.6644 51.2803 93.4877C51.1095 93.3198 50.9836 93.1166 50.8937 92.8691C50.8037 92.6217 50.7588 92.3478 50.7588 92.0297C50.7588 91.7116 50.8127 91.4288 50.9117 91.1814C51.0106 90.934 51.1544 90.7308 51.3253 90.5541C51.4961 90.3862 51.703 90.2536 51.9458 90.1653C52.1796 90.0769 52.4313 90.0327 52.7011 90.0327C52.8809 90.0327 53.0518 90.0415 53.1957 90.0681C53.3395 90.0946 53.4654 90.1211 53.5733 90.1476C53.6812 90.1829 53.7712 90.2094 53.8341 90.2448C53.9061 90.2801 53.951 90.3066 53.978 90.3243L53.7262 91.0135C53.6093 90.9517 53.4744 90.8987 53.3126 90.8545C53.1687 90.8015 52.9978 90.7838 52.818 90.7838Z" fill="#AAAAAA"/>
<path d="M62.5655 92.0209C62.5655 92.3478 62.5205 92.6306 62.4216 92.878C62.3227 93.1254 62.1878 93.3286 62.0169 93.4965C61.8461 93.6644 61.6393 93.7881 61.4055 93.8765C61.1717 93.9649 60.9109 94.0002 60.6411 94.0002C60.3804 94.0002 60.1286 93.956 59.8948 93.8765C59.661 93.7881 59.4542 93.6644 59.2833 93.4965C59.1125 93.3286 58.9686 93.1254 58.8697 92.878C58.7708 92.6306 58.7168 92.3478 58.7168 92.0209C58.7168 91.6939 58.7708 91.4112 58.8697 91.1637C58.9776 90.9163 59.1125 90.7131 59.2923 90.5364C59.4721 90.3685 59.67 90.2448 59.9038 90.1564C60.1376 90.0681 60.3804 90.0327 60.6411 90.0327C60.9019 90.0327 61.1537 90.0769 61.3875 90.1564C61.6213 90.2448 61.8281 90.3685 61.999 90.5364C62.1698 90.7043 62.3137 90.9163 62.4126 91.1637C62.5115 91.4112 62.5655 91.6939 62.5655 92.0209ZM59.607 92.0209C59.607 92.2064 59.634 92.3743 59.679 92.5245C59.7239 92.6748 59.7959 92.8073 59.8768 92.9133C59.9667 93.0194 60.0746 93.1077 60.2005 93.1608C60.3264 93.2226 60.4703 93.2491 60.6321 93.2491C60.794 93.2491 60.9379 93.2226 61.0638 93.1608C61.1897 93.0989 61.2976 93.0194 61.3875 92.9133C61.4774 92.8073 61.5403 92.6748 61.5853 92.5245C61.6303 92.3743 61.6573 92.2064 61.6573 92.0209C61.6573 91.8353 61.6303 91.6674 61.5853 91.5084C61.5403 91.3581 61.4684 91.2256 61.3875 91.1196C61.2976 91.0135 61.1897 90.9252 61.0638 90.8722C60.9379 90.8191 60.794 90.7838 60.6321 90.7838C60.4703 90.7838 60.3264 90.8103 60.2005 90.8722C60.0746 90.934 59.9667 91.0135 59.8768 91.1284C59.7869 91.2344 59.7239 91.367 59.679 91.5172C59.634 91.6674 59.607 91.8353 59.607 92.0209Z" fill="#AAAAAA"/>
<path d="M67.3135 93.9295V90.1211H69.9302V90.8368H68.1857V91.5879H69.7324V92.2948H68.1857V93.2138H70.0561V93.9295H67.3135Z" fill="#AAAAAA"/>
<path d="M75.7842 93.2756C75.9101 93.2756 76.009 93.2667 76.09 93.2491C76.1709 93.2314 76.2338 93.2049 76.2788 93.1695C76.3238 93.1342 76.3597 93.09 76.3777 93.0458C76.3957 93.0016 76.4047 92.9486 76.4047 92.8868C76.4047 92.7631 76.3417 92.657 76.2248 92.5775C76.1079 92.498 75.9011 92.4096 75.6134 92.3124C75.4875 92.2682 75.3616 92.2152 75.2357 92.1622C75.1098 92.1092 74.9929 92.0385 74.894 91.9501C74.7951 91.8618 74.7141 91.7557 74.6512 91.6409C74.5883 91.5172 74.5523 91.3669 74.5523 91.1902C74.5523 91.0135 74.5883 90.8544 74.6512 90.7131C74.7141 90.5717 74.8131 90.448 74.939 90.3508C75.0648 90.2536 75.2087 90.174 75.3886 90.121C75.5594 90.068 75.7573 90.0415 75.9821 90.0415C76.2428 90.0415 76.4676 90.068 76.6565 90.121C76.8453 90.174 77.0072 90.2359 77.1241 90.3066L76.8723 90.9781C76.7644 90.9251 76.6475 90.8721 76.5126 90.8368C76.3777 90.7926 76.2248 90.7749 76.036 90.7749C75.8292 90.7749 75.6763 90.8014 75.5864 90.8633C75.4965 90.9163 75.4515 91.0047 75.4515 91.1284C75.4515 91.1991 75.4695 91.2609 75.5055 91.3051C75.5414 91.3493 75.5864 91.3935 75.6493 91.4376C75.7123 91.473 75.7842 91.5083 75.8652 91.5437C75.9461 91.579 76.036 91.6055 76.1349 91.6409C76.3328 91.7115 76.5126 91.7822 76.6565 91.8618C76.8093 91.9325 76.9262 92.0208 77.0252 92.1092C77.1241 92.2064 77.196 92.3124 77.25 92.445C77.2949 92.5687 77.3219 92.7277 77.3219 92.9133C77.3219 93.2667 77.196 93.5407 76.9442 93.7439C76.6924 93.9383 76.3058 94.0355 75.8022 94.0355C75.6314 94.0355 75.4785 94.0266 75.3346 94.009C75.1997 93.9913 75.0738 93.9648 74.9659 93.9383C74.858 93.9118 74.7681 93.8764 74.6962 93.8411C74.6242 93.8057 74.5523 93.7792 74.5073 93.7439L74.7501 93.0635C74.867 93.1253 75.0109 93.1784 75.1817 93.2314C75.3256 93.2491 75.5324 93.2756 75.7842 93.2756Z" fill="#AAAAAA"/>
<path d="M85.6847 90.1211H86.5569V93.9295H85.6847V92.3125H84.2189V93.9295H83.3467V90.1211H84.2189V91.5791H85.6847V90.1211Z" fill="#AAAAAA"/>
<path d="M91.4666 93.9295V90.1211H94.0833V90.8368H92.3388V91.5879H93.8855V92.2948H92.3388V93.2138H94.2092V93.9295H91.4666Z" fill="#AAAAAA"/>
<path d="M100.018 90.0767C100.603 90.0767 101.043 90.1827 101.358 90.3859C101.664 90.5892 101.826 90.9073 101.826 91.3314C101.826 91.5965 101.763 91.8174 101.637 91.9853C101.511 92.1532 101.331 92.2857 101.097 92.3741C101.178 92.4713 101.259 92.5773 101.34 92.701C101.43 92.8247 101.511 92.9484 101.592 93.0898C101.673 93.2224 101.754 93.3637 101.835 93.5051C101.916 93.6465 101.988 93.7879 102.051 93.9293H101.079C101.007 93.8056 100.935 93.6818 100.864 93.5493C100.792 93.4256 100.72 93.2931 100.639 93.1782C100.558 93.0545 100.486 92.9396 100.414 92.8336C100.342 92.7275 100.261 92.6303 100.189 92.542H99.7575V93.9293H98.8853V90.1739C99.0741 90.1385 99.2719 90.112 99.4787 90.0943C99.6766 90.0855 99.8564 90.0767 100.018 90.0767ZM100.063 90.8101C100 90.8101 99.9463 90.8101 99.8924 90.8189C99.8384 90.8189 99.7935 90.8277 99.7485 90.8277V91.8616H99.9913C100.315 91.8616 100.558 91.8174 100.693 91.7379C100.837 91.6583 100.909 91.517 100.909 91.3226C100.909 91.137 100.837 91.0045 100.693 90.9249C100.558 90.8454 100.342 90.8101 100.063 90.8101Z" fill="#AAAAAA"/>
<path d="M106.636 93.9295V90.1211H109.253V90.8368H107.509V91.5879H109.055V92.2948H107.509V93.2138H109.379V93.9295H106.636Z" fill="#AAAAAA"/>
<path d="M61.7474 59.6093C61.1089 59.6093 60.4795 59.3707 59.9939 58.8936C59.7151 58.6197 59.5173 58.3016 59.4004 57.9569C59.3195 57.736 59.2745 57.5063 59.2655 57.2589C59.2655 57.2147 59.2655 57.1705 59.2655 57.1352C59.2745 56.7464 59.3734 56.3753 59.5443 56.0483C59.5983 55.9511 59.6522 55.8539 59.7241 55.7567C59.8141 55.633 59.913 55.527 60.0209 55.4209L71.2881 44.3491C75.0739 40.6291 75.0739 34.5674 71.2881 30.8473C67.5024 27.1273 61.3337 27.1273 57.548 30.8473C56.5769 31.8017 55.0122 31.8017 54.0411 30.8473C50.2553 27.1273 44.0867 27.1273 40.3009 30.8473C36.5152 34.5674 36.5152 40.6291 40.3009 44.3491L51.5952 55.4474C52.3056 56.1455 52.5124 57.197 52.1347 58.1072C51.748 59.0173 50.8488 59.6093 49.8417 59.6093H18.8005C15.8691 59.6093 13.4861 57.2677 13.4861 54.3871V33.2773C13.4861 33.0917 13.3243 32.9327 13.1354 32.9327H8.13575C5.52801 32.9327 4.68274 31.4482 4.43995 30.812C4.19716 30.1758 3.84646 28.5057 5.81576 26.8268L35.6699 1.35195C37.7831 -0.450649 41.0923 -0.450649 43.2054 1.35195L55.7945 12.0968L68.3837 1.35195C70.4968 -0.450649 73.806 -0.450649 75.9191 1.35195L105.773 26.8268C107.743 28.5057 107.392 30.1758 107.149 30.812C106.906 31.4482 106.061 32.9327 103.453 32.9327H98.4626C98.2738 32.9327 98.1119 33.0917 98.1119 33.2773V54.3783C98.1119 57.2589 95.729 59.6005 92.7975 59.6005H61.7834C61.7744 59.6093 61.7564 59.6093 61.7474 59.6093ZM67.7362 54.7317H92.7885C92.9774 54.7317 93.1392 54.5727 93.1392 54.3871V33.2773C93.1392 30.3967 95.5222 28.0551 98.4536 28.0551H99.6406L72.6639 5.03666C72.4212 4.82459 71.8816 4.82459 71.6388 5.03666L57.4311 17.1688C56.4959 17.9641 55.1111 17.9641 54.1759 17.1688L39.9502 5.03666C39.7075 4.82459 39.1679 4.82459 38.9251 5.03666L11.9395 28.0551H13.1264C16.0579 28.0551 18.4408 30.3967 18.4408 33.2773V54.3783C18.4408 54.5638 18.6027 54.7229 18.7915 54.7229H43.8439L36.785 47.7864C31.0659 42.1666 31.0659 33.0122 36.785 27.3924C41.9555 22.3115 50.0485 21.8255 55.7855 25.9167C61.5316 21.8255 69.6246 22.3204 74.7951 27.3924C80.5142 33.0122 80.5142 42.1666 74.7951 47.7864L67.7362 54.7317Z" fill="#B5B6BC"/>
</g>
<defs>
<clipPath id="clip0_507_9237">
<rect width="111" height="94" fill="white" transform="translate(0.294434)"/>
</clipPath>
</defs>
</svg>
