<svg width="85" height="103" viewBox="0 0 85 103" fill="none" xmlns="http://www.w3.org/2000/svg">
<g clip-path="url(#clip0_507_9294)">
<path d="M5.79634 94.8531V96.0991H3.71713C3.33328 96.0991 3.0134 96.0991 2.78948 96.0671C2.56557 96.0671 2.27768 96.0032 1.9578 95.9074C1.63792 95.8116 1.35003 95.6518 1.12612 95.4601C0.774251 95.1406 0.550336 94.7573 0.454373 94.31C0.358409 93.8627 0.294434 93.3196 0.294434 92.7126V86.1313H1.63792V92.6807C1.63792 93.2238 1.7019 93.6711 1.82985 93.9905C2.08575 94.5656 2.59756 94.8531 3.39725 94.8531H5.79634Z" fill="#B5B6BC"/>
<path d="M12.7698 86.1633H14.1132V92.9682C14.1132 94.0864 13.8254 94.917 13.2496 95.4601C12.6738 95.9713 11.7781 96.2588 10.5946 96.2588C9.41103 96.2588 8.54736 96.0032 7.97158 95.4601C7.3958 94.949 7.10791 94.1183 7.10791 92.9682V86.1313H8.4514V93.1599C8.4514 93.7988 8.64333 94.2781 9.02718 94.5656C9.41103 94.8531 9.95483 95.0129 10.5946 95.0129C11.2663 95.0129 11.7781 94.8531 12.194 94.5656C12.5778 94.2781 12.8017 93.7988 12.8017 93.1599V86.1633H12.7698Z" fill="#B5B6BC"/>
<path d="M15.6807 86.3233V86.1636H17.0242V86.3233C17.0242 88.2082 17.6959 89.55 19.0394 90.3168C19.7751 89.9015 20.3189 89.3584 20.6068 88.6875C20.8947 88.0165 21.0546 87.2179 21.0546 86.3233V86.1636H22.4301V86.4511C22.4301 88.4319 21.6944 89.9015 20.2229 90.8919C21.6944 91.9142 22.4301 93.3838 22.4301 95.3326V96.0994H21.0546V95.4604C21.0546 94.5339 20.8947 93.7352 20.6068 93.0963C20.3189 92.4254 19.7751 91.8822 19.0394 91.4669C17.6959 92.2337 17.0242 93.5755 17.0242 95.4604V96.0994H15.6807V95.4604C15.6807 93.4157 16.4164 91.9142 17.8878 90.8919C16.4164 89.9015 15.6807 88.368 15.6807 86.3233Z" fill="#B5B6BC"/>
<path d="M29.6911 86.1633H31.0346V92.9682C31.0346 94.0864 30.7467 94.917 30.171 95.4601C29.5952 95.9713 28.6995 96.2588 27.516 96.2588C26.3324 96.2588 25.4687 96.0032 24.893 95.4601C24.3172 94.949 24.0293 94.1183 24.0293 92.9682V86.1313H25.3728V93.1599C25.3728 93.7988 25.5647 94.2781 25.9486 94.5656C26.3324 94.8531 26.8762 95.0129 27.516 95.0129C28.1877 95.0129 28.6995 94.8531 29.1154 94.5656C29.4992 94.2781 29.7231 93.7988 29.7231 93.1599V86.1633H29.6911Z" fill="#B5B6BC"/>
<path d="M32.8901 96.0992V89.6137C32.8901 88.4636 33.178 87.5691 33.7538 86.9301C34.3296 86.2912 35.1293 85.9717 36.1849 85.9717C37.2405 85.9717 38.0402 86.2273 38.616 86.7384C39.1917 87.2496 39.4796 87.9844 39.4796 88.9109C39.4796 89.5179 39.3517 89.9971 39.0638 90.3805C38.7759 90.7639 38.2961 91.0514 37.6243 91.275V91.3389C38.3281 91.6265 38.8079 92.0098 39.0638 92.521C39.3197 93.0322 39.4157 93.8628 39.4157 95.0449V96.0992H38.0722V94.2781C38.0722 93.5433 37.8802 93.0002 37.4644 92.5849C37.0486 92.1696 36.4728 91.9779 35.7051 91.9779H34.8414V90.7319H35.6411C36.5687 90.7319 37.1765 90.5402 37.5284 90.1888C37.8802 89.8054 38.0402 89.3901 38.0402 88.8789C38.0402 88.3997 37.8802 88.0163 37.5284 87.6969C37.1765 87.4093 36.7287 87.2496 36.1529 87.2496C35.5131 87.2496 35.0013 87.4413 34.6815 87.7927C34.3616 88.1761 34.2016 88.7831 34.2016 89.6137V96.0992H32.8901Z" fill="#B5B6BC"/>
<path d="M47.2206 86.1636V86.8664C47.2206 88.0165 46.9967 89.0708 46.5808 90.0612C46.133 91.0196 45.5252 91.7544 44.6935 92.2656V96.1313H43.35V92.2976C42.5184 91.8183 41.8786 91.0835 41.4308 90.1251C40.9829 89.1667 40.759 88.1443 40.759 86.9942V86.1636H42.1345V86.8664C42.1345 87.8568 42.2625 88.6874 42.5504 89.3903C42.8382 90.0932 43.3181 90.6682 44.0218 91.1155C45.2693 90.2849 45.8771 88.8791 45.8771 86.8984V86.1955H47.2206V86.1636Z" fill="#B5B6BC"/>
<path d="M53.9059 86.1636V87.4095H51.3789C50.4193 87.4095 49.9394 87.7929 49.9394 88.5916C49.9394 89.0069 50.1634 89.3584 50.5792 89.6459C50.995 89.9334 51.5708 90.221 52.3065 90.4765C52.6264 90.6043 52.9143 90.7321 53.1382 90.8599C53.3621 90.9877 53.5861 91.1474 53.81 91.3711C54.0339 91.5947 54.1938 91.8503 54.3218 92.1698C54.4497 92.4893 54.4817 92.8726 54.4817 93.2879C54.4817 93.7672 54.3857 94.1825 54.1938 94.5659C54.0019 94.9492 53.746 95.2368 53.4261 95.4604C53.1062 95.684 52.7864 95.8438 52.4665 95.9396C52.1466 96.0355 51.8267 96.0994 51.5068 96.1313C51.3789 96.1313 51.187 96.1313 50.9311 96.1313H48.6919V94.8853H50.8671C51.5068 94.8853 52.0506 94.7576 52.4345 94.47C52.8503 94.2144 53.0423 93.7991 53.0423 93.2879C53.0423 93.0324 52.9783 92.8087 52.8823 92.617C52.7544 92.4254 52.5944 92.2656 52.4025 92.1059C52.1786 91.9781 51.9547 91.8503 51.7627 91.7225C51.5388 91.6267 51.2829 91.4989 50.9631 91.403C50.8671 91.3711 50.8031 91.3391 50.7711 91.3391C49.2677 90.7641 48.532 89.8376 48.532 88.5597C48.532 87.761 48.7879 87.154 49.2997 86.7706C49.8115 86.3872 50.4832 86.1955 51.3149 86.1955H53.9059V86.1636Z" fill="#B5B6BC"/>
<path d="M55.4094 87.4095V86.1636H61.679V87.4095H59.216V96.1313H57.8725V87.4095H55.4094Z" fill="#B5B6BC"/>
<path d="M64.1421 96.0991H62.8625V89.8373C62.8625 88.815 63.1824 87.9524 63.8542 87.2176C64.5259 86.4828 65.3576 86.1313 66.4132 86.1313H69.7079V96.0991H68.3645V87.3773H66.4452C65.7415 87.3773 65.1977 87.569 64.7818 87.9843C64.366 88.3996 64.174 89.0386 64.174 89.9331V91.1472C64.7178 90.5721 65.4536 90.3165 66.4452 90.3165H67.7567V91.5625H66.4452C65.9014 91.5625 65.4536 91.6264 65.1017 91.7542C64.7498 91.882 64.4299 92.1056 64.174 92.4251V96.0991H64.1421Z" fill="#B5B6BC"/>
<path d="M71.0515 87.4095V86.1636H77.3211V87.4095H74.8581V96.1313H73.5146V87.4095H71.0515Z" fill="#B5B6BC"/>
<path d="M84.2944 96.0994H78.6326V88.5277C78.6326 87.8249 78.8565 87.2498 79.3043 86.8345C79.6242 86.5469 79.9441 86.3553 80.3279 86.2914C80.7118 86.1955 81.1596 86.1636 81.7354 86.1636H84.3264V87.4095H81.5755C80.5199 87.4095 80.008 87.8568 80.008 88.7194V90.3487H83.3028V91.5947H79.9441V94.8534H84.2624V96.0994H84.2944Z" fill="#B5B6BC"/>
<path d="M9.60292 99.2297V99.7089H8.54732C8.13148 99.7089 7.93956 99.8687 7.93956 100.156C7.93956 100.316 8.03552 100.444 8.19546 100.54C8.38739 100.635 8.6113 100.763 8.89919 100.859C9.02714 100.891 9.15509 100.955 9.25106 100.987C9.34702 101.019 9.44298 101.083 9.53895 101.179C9.63491 101.242 9.69889 101.37 9.76286 101.466C9.79485 101.594 9.82684 101.722 9.82684 101.881C9.82684 102.073 9.79485 102.201 9.69889 102.361C9.60292 102.488 9.50696 102.616 9.37901 102.68C9.25106 102.744 9.1231 102.808 8.96317 102.872C8.83521 102.904 8.70726 102.936 8.54732 102.936C8.48335 102.936 8.41937 102.936 8.32341 102.936H7.39576V102.456H8.32341C8.57931 102.456 8.80323 102.393 8.99515 102.297C9.15509 102.201 9.25106 102.041 9.25106 101.849C9.25106 101.754 9.21907 101.658 9.18708 101.594C9.15509 101.53 9.05913 101.466 8.99515 101.402C8.89919 101.338 8.80323 101.306 8.70726 101.274C8.6113 101.242 8.51534 101.21 8.3554 101.147C8.32341 101.147 8.29142 101.115 8.25943 101.115C7.61968 100.891 7.33179 100.572 7.33179 100.092C7.33179 99.8048 7.42775 99.5811 7.65167 99.4214C7.87558 99.2617 8.13148 99.1978 8.48335 99.1978H9.60292V99.2297Z" fill="#B5B6BC"/>
<path d="M14.2091 102.457V102.936H13.3455C13.1855 102.936 13.0576 102.936 12.9616 102.936C12.8656 102.936 12.7377 102.904 12.6097 102.872C12.4818 102.84 12.3538 102.776 12.2579 102.712C12.0979 102.585 12.002 102.457 11.97 102.265C11.938 102.105 11.906 101.914 11.906 101.69V99.23H12.4818V101.658C12.4818 101.85 12.5138 102.009 12.5458 102.137C12.6417 102.361 12.8656 102.457 13.1855 102.457H14.2091Z" fill="#B5B6BC"/>
<path d="M16.1284 101.083C16.1284 100.795 16.1924 100.54 16.2884 100.284C16.3843 100.061 16.5123 99.8369 16.7042 99.6772C16.8641 99.5174 17.0881 99.3896 17.312 99.2938C17.5359 99.198 17.8238 99.166 18.1117 99.166C18.3996 99.166 18.6555 99.198 18.9114 99.2938C19.1673 99.3896 19.3592 99.5174 19.5191 99.6772C19.6791 99.8369 19.839 100.061 19.935 100.284C20.0309 100.508 20.0949 100.795 20.0949 101.083C20.0949 101.37 20.0309 101.626 19.935 101.882C19.839 102.105 19.7111 102.297 19.5511 102.489C19.3912 102.648 19.1673 102.776 18.9433 102.872C18.6874 102.968 18.4315 103 18.1437 103C17.8558 103 17.5679 102.968 17.344 102.872C17.0881 102.776 16.8961 102.648 16.7362 102.489C16.5762 102.329 16.4483 102.137 16.3523 101.882C16.1604 101.658 16.1284 101.402 16.1284 101.083ZM19.4552 101.083C19.4552 100.891 19.4232 100.7 19.3592 100.508C19.2952 100.316 19.1992 100.188 19.1033 100.029C18.9753 99.9008 18.8474 99.805 18.6874 99.7091C18.5275 99.6452 18.3356 99.5813 18.1117 99.5813C17.8877 99.5813 17.6958 99.6133 17.5359 99.7091C17.3759 99.773 17.216 99.9008 17.12 100.029C16.9921 100.156 16.9281 100.316 16.8641 100.508C16.8002 100.7 16.7682 100.859 16.7682 101.083C16.7682 101.275 16.8002 101.466 16.8641 101.658C16.9281 101.818 17.0241 101.977 17.12 102.105C17.248 102.233 17.3759 102.329 17.5359 102.393C17.6958 102.457 17.8877 102.489 18.1117 102.489C18.3356 102.489 18.5275 102.457 18.6874 102.393C18.8474 102.329 19.0073 102.233 19.1033 102.105C19.2312 101.977 19.2952 101.818 19.3592 101.658C19.3912 101.498 19.4232 101.307 19.4552 101.083Z" fill="#B5B6BC"/>
<path d="M24.1253 102.456H24.5412V101.338H23.9654V100.859H25.1489V102.904H24.2213C23.5815 102.904 23.0697 102.744 22.7179 102.424C22.366 102.105 22.1741 101.658 22.1741 101.051C22.1741 100.476 22.366 99.9965 22.7179 99.677C23.0697 99.3575 23.5815 99.1978 24.2213 99.1978H24.893V99.677H24.1253C23.6775 99.677 23.3576 99.8048 23.1017 100.06C22.8778 100.316 22.7499 100.667 22.7499 101.051C22.7499 101.466 22.8778 101.786 23.1017 102.041C23.3576 102.329 23.7095 102.456 24.1253 102.456Z" fill="#B5B6BC"/>
<path d="M27.7401 102.936H27.1963V100.604C27.1963 100.22 27.3242 99.9009 27.6121 99.6453C27.9 99.3897 28.2519 99.23 28.6677 99.23H30.0432V102.936H29.4674V99.7092H28.6677C28.3798 99.7092 28.1559 99.7731 27.964 99.9328C27.8041 100.093 27.7081 100.316 27.7081 100.668V101.115C27.932 100.891 28.2519 100.795 28.6677 100.795H29.2115V101.275H28.6677C28.4438 101.275 28.2519 101.307 28.0919 101.339C27.932 101.402 27.8041 101.466 27.7081 101.594V102.936H27.7401Z" fill="#B5B6BC"/>
<path d="M32.858 102.936H32.2822V99.23H33.7537C34.2335 99.23 34.6173 99.3258 34.8732 99.5175C35.1291 99.7092 35.2251 100.029 35.2251 100.444V102.936H34.6493V100.38C34.6493 100.125 34.5534 99.9648 34.3934 99.8689C34.2335 99.7731 34.0096 99.7092 33.7537 99.7092H32.826V102.936H32.858Z" fill="#B5B6BC"/>
<path d="M40.7271 102.456H41.143V101.338H40.5352V100.859H41.7188V102.904H40.7911C40.1514 102.904 39.6396 102.744 39.2877 102.424C38.9358 102.105 38.7439 101.658 38.7439 101.051C38.7439 100.476 38.9358 99.9965 39.2877 99.677C39.6396 99.3575 40.1514 99.1978 40.7911 99.1978H41.4629V99.677H40.6952C40.2473 99.677 39.9274 99.8048 39.6715 100.06C39.4476 100.316 39.3197 100.667 39.3197 101.051C39.3197 101.466 39.4476 101.786 39.6715 102.041C39.9594 102.329 40.3113 102.456 40.7271 102.456Z" fill="#B5B6BC"/>
<path d="M43.7979 101.083C43.7979 100.795 43.8618 100.54 43.9578 100.284C44.0538 100.061 44.1817 99.8369 44.3736 99.6772C44.5336 99.5174 44.7575 99.3896 44.9814 99.2938C45.2053 99.198 45.4932 99.166 45.7811 99.166C46.069 99.166 46.3249 99.198 46.5808 99.2938C46.8367 99.3896 47.0286 99.5174 47.1886 99.6772C47.3485 99.8369 47.5084 100.061 47.6044 100.284C47.7004 100.508 47.7643 100.795 47.7643 101.083C47.7643 101.37 47.7004 101.626 47.6044 101.882C47.5084 102.105 47.3805 102.297 47.2205 102.489C47.0606 102.648 46.8367 102.776 46.6128 102.872C46.3569 102.968 46.101 103 45.8131 103C45.5252 103 45.2373 102.968 45.0134 102.872C44.7575 102.776 44.5656 102.648 44.4056 102.489C44.2457 102.329 44.1177 102.137 44.0218 101.882C43.8618 101.658 43.7979 101.402 43.7979 101.083ZM47.1246 101.083C47.1246 100.891 47.0926 100.7 47.0286 100.508C46.9646 100.316 46.8687 100.188 46.7727 100.029C46.6448 99.9008 46.5168 99.805 46.3569 99.7091C46.1969 99.6452 46.005 99.5813 45.7811 99.5813C45.5572 99.5813 45.3972 99.6133 45.2053 99.7091C45.0454 99.773 44.8854 99.9008 44.7895 100.029C44.6615 100.156 44.5975 100.316 44.5336 100.508C44.4696 100.7 44.4376 100.859 44.4376 101.083C44.4376 101.275 44.4696 101.466 44.5336 101.658C44.5975 101.818 44.6935 101.977 44.7895 102.105C44.9174 102.233 45.0454 102.329 45.2053 102.393C45.3653 102.457 45.5572 102.489 45.7811 102.489C46.005 102.489 46.1969 102.457 46.3569 102.393C46.5168 102.329 46.6768 102.233 46.7727 102.105C46.9007 101.977 46.9646 101.818 47.0286 101.658C47.0926 101.498 47.1246 101.307 47.1246 101.083Z" fill="#B5B6BC"/>
<path d="M52.2426 102.936H49.8755V100.124C49.8755 99.8687 49.9714 99.6451 50.1634 99.4853C50.2913 99.3895 50.4193 99.3256 50.5792 99.2937C50.7392 99.2617 50.9311 99.2617 51.155 99.2617H52.2426V99.7409H51.091C50.6432 99.7409 50.4193 99.9007 50.4193 100.22V100.827H51.7948V101.306H50.4193V102.52H52.2426V102.936Z" fill="#B5B6BC"/>
<path d="M56.433 99.2297V99.7089H55.3774C54.9616 99.7089 54.7696 99.8687 54.7696 100.156C54.7696 100.316 54.8656 100.444 55.0255 100.54C55.2175 100.635 55.4414 100.763 55.7293 100.859C55.8572 100.891 55.9852 100.955 56.0811 100.987C56.1771 101.019 56.2731 101.083 56.369 101.179C56.465 101.242 56.529 101.37 56.593 101.466C56.6249 101.594 56.6569 101.722 56.6569 101.881C56.6569 102.073 56.6249 102.201 56.529 102.361C56.433 102.488 56.3371 102.616 56.2091 102.68C56.0811 102.744 55.9532 102.808 55.7933 102.872C55.6653 102.904 55.5373 102.936 55.3774 102.936C55.3134 102.936 55.2495 102.936 55.1535 102.936H54.2258V102.456H55.1535C55.4094 102.456 55.6333 102.393 55.8252 102.297C55.9852 102.201 56.0811 102.041 56.0811 101.849C56.0811 101.754 56.0492 101.658 56.0172 101.594C55.9852 101.53 55.8892 101.466 55.8252 101.402C55.7293 101.338 55.6333 101.306 55.5373 101.274C55.4414 101.242 55.3454 101.21 55.1855 101.147C55.1535 101.147 55.1215 101.115 55.0895 101.115C54.4498 100.891 54.1619 100.572 54.1619 100.092C54.1619 99.8048 54.2578 99.5811 54.4817 99.4214C54.7057 99.2617 54.9616 99.1978 55.3134 99.1978H56.433V99.2297Z" fill="#B5B6BC"/>
<path d="M60.6554 102.936H60.1116V99.23H60.6874V100.795H62.5106V99.23H63.0864V102.936H62.5106V101.243H60.6874V102.936H60.6554Z" fill="#B5B6BC"/>
<path d="M67.6288 102.936H65.2297V100.124C65.2297 99.8687 65.3257 99.6451 65.5176 99.4853C65.6456 99.3895 65.7735 99.3256 65.9335 99.2937C66.0934 99.2617 66.2853 99.2617 66.5093 99.2617H67.5968V99.7409H66.4453C65.9974 99.7409 65.7735 99.9007 65.7735 100.22V100.827H67.149V101.306H65.7735V102.52H67.5968V102.936H67.6288Z" fill="#B5B6BC"/>
<path d="M69.676 102.936V100.54C69.676 100.124 69.804 99.7728 70.0279 99.5492C70.2518 99.3255 70.6037 99.1978 71.0515 99.1978C71.4993 99.1978 71.8192 99.2936 72.0751 99.4853C72.299 99.677 72.427 99.9326 72.427 100.284C72.427 100.508 72.363 100.699 72.235 100.827C72.1071 100.955 71.9152 101.083 71.6273 101.147V101.179C71.9152 101.274 72.1391 101.434 72.235 101.626C72.331 101.817 72.395 102.137 72.395 102.552V102.936H71.8192V102.265C71.8192 102.009 71.7232 101.786 71.5633 101.626C71.4034 101.466 71.1475 101.402 70.8276 101.402H70.5077V100.923H70.8596C71.2434 100.923 71.4993 100.859 71.6593 100.731C71.8192 100.603 71.8832 100.444 71.8832 100.252C71.8832 100.06 71.8192 99.9326 71.6593 99.8048C71.4993 99.7089 71.3074 99.645 71.0835 99.645C70.7956 99.645 70.6037 99.7089 70.4757 99.8367C70.3478 99.9645 70.2838 100.188 70.2838 100.508V102.904H69.676V102.936Z" fill="#B5B6BC"/>
<path d="M76.8412 102.936H74.4741V100.124C74.4741 99.8687 74.5701 99.6451 74.762 99.4853C74.89 99.3895 75.0179 99.3256 75.1779 99.2937C75.3378 99.2617 75.5297 99.2617 75.7536 99.2617H76.8412V99.7409H75.6897C75.2418 99.7409 75.0179 99.9007 75.0179 100.22V100.827H76.3934V101.306H75.0179V102.52H76.8412V102.936Z" fill="#B5B6BC"/>
<path d="M37.4643 80.189C38.7438 80.9238 40.4071 81.3391 42.1345 81.3391C43.8618 81.3391 45.5252 80.9238 46.8047 80.189L74.0903 64.4706C76.2655 63.2247 78.0248 60.6369 78.5686 58.0811C54.9936 59.4229 39.5435 66.8348 29.3074 75.4926L37.4643 80.189Z" fill="#B5B6BC"/>
<path d="M74.0584 16.8685L46.7728 1.15012C45.4933 0.415323 43.8299 0 42.1026 0C40.3753 0 38.7119 0.415323 37.4324 1.15012L10.1788 16.8685C7.52378 18.402 5.50854 21.8843 5.50854 24.9194V56.388C5.50854 59.455 7.52378 62.9054 10.1788 64.4389L12.29 65.6529C36.1529 53.7683 63.2146 54.2475 78.7287 55.9088V24.9194C78.6967 21.8843 76.7134 18.402 74.0584 16.8685ZM56.753 49.5192H27.4522V34.312C27.4522 33.9606 27.836 33.3217 28.1239 33.1619L41.4309 25.4944C41.4948 25.4625 41.7507 25.3666 42.1026 25.3666C42.4545 25.3666 42.7104 25.4625 42.7743 25.4944L56.0813 33.1619C56.3692 33.3217 56.753 33.9926 56.753 34.312V49.5192ZM65.3577 49.5192H61.0714V34.312C61.0714 32.4271 59.8878 30.3824 58.2565 29.424L44.9495 21.7565C44.1498 21.3092 43.1582 21.0537 42.1346 21.0537C41.111 21.0537 40.0874 21.3092 39.3197 21.7565L26.0127 29.424C24.3814 30.3824 23.1978 32.4271 23.1978 34.312V49.5192H18.8795V29.0726C18.8795 28.178 19.6472 26.8362 20.4469 26.357L40.5672 14.7599C40.951 14.5363 41.5268 14.4085 42.1346 14.4085C42.7424 14.4085 43.3181 14.5363 43.702 14.7599L63.8223 26.357C64.622 26.8043 65.3897 28.1461 65.3897 29.0726V49.5192H65.3577ZM74.4103 49.5192H69.6761V29.0726C69.6761 26.6126 68.0767 23.8651 65.9655 22.6511L45.8452 11.054C44.8216 10.447 43.5101 10.1275 42.1346 10.1275C40.7591 10.1275 39.4476 10.447 38.424 11.054L18.2717 22.6511C16.1605 23.8651 14.5611 26.6126 14.5611 29.0726V49.5192H9.8269V24.9194C9.8269 23.4178 11.0104 21.3412 12.3219 20.5744L39.6076 4.85608C40.2153 4.50465 41.143 4.28102 42.1026 4.28102C43.0622 4.28102 43.9899 4.47271 44.5977 4.85608L71.8833 20.5744C73.1948 21.3412 74.3783 23.3859 74.3783 24.9194V49.5192H74.4103Z" fill="#B5B6BC"/>
</g>
<defs>
<clipPath id="clip0_507_9294">
<rect width="84" height="103" fill="white" transform="translate(0.294434)"/>
</clipPath>
</defs>
</svg>
